<svg width="94" height="40" viewBox="0 0 94 40" fill="none" xmlns="http://www.w3.org/2000/svg">
<path fill-rule="evenodd" clip-rule="evenodd" d="M17.0826 5.157C15.9869 6.5081 14.2337 7.57375 12.4806 7.42152C12.2614 5.59468 13.1198 3.65367 14.1242 2.45481C15.2199 1.06565 17.1374 0.0761181 18.6896 0C18.8722 1.90295 18.16 3.76785 17.0826 5.157ZM18.6712 7.78297C17.1267 7.69035 15.7174 8.26699 14.5791 8.73275C13.8466 9.03249 13.2263 9.28631 12.7543 9.28631C12.2247 9.28631 11.5788 9.01892 10.8536 8.7187C9.9033 8.32531 8.81685 7.87557 7.67754 7.89715C5.06609 7.93521 2.63726 9.4766 1.30414 11.9314C-1.43514 16.841 0.591931 24.1103 3.2399 28.1065C4.5365 30.0856 6.08876 32.2549 8.13409 32.1788C9.03391 32.1434 9.68119 31.8572 10.3511 31.561C11.1223 31.22 11.9234 30.8658 13.1744 30.8658C14.3819 30.8658 15.1481 31.2108 15.8835 31.542C16.5828 31.8569 17.2543 32.1593 18.2512 32.1408C20.3696 32.1027 21.7027 30.1617 22.9993 28.1826C24.3985 26.0585 25.0134 23.9856 25.1067 23.671C25.112 23.653 25.1157 23.6407 25.1176 23.6346C25.1154 23.6322 25.0981 23.624 25.0676 23.6094C24.5999 23.3863 21.0247 21.6808 20.9905 17.1074C20.956 13.2688 23.8262 11.3238 24.278 11.0177C24.3055 10.999 24.324 10.9865 24.3324 10.9799C22.5062 8.16356 19.6573 7.85909 18.6712 7.78297ZM33.3356 31.9315V2.26444H44.0188C49.5339 2.26444 53.3872 6.22258 53.3872 12.0076C53.3872 17.7925 49.4609 21.7887 43.8727 21.7887H37.755V31.9315H33.3356ZM37.7546 6.14667H42.8497C46.6847 6.14667 48.8761 8.27797 48.8761 12.0268C48.8761 15.7756 46.6847 17.9259 42.8314 17.9259H37.7546V6.14667ZM67.9786 28.3729C66.8099 30.6945 64.235 32.1597 61.4591 32.1597C57.3502 32.1597 54.4831 29.6098 54.4831 25.7658C54.4831 21.9599 57.2589 19.7715 62.3905 19.448L67.9056 19.1055V17.469C67.9056 15.0522 66.3899 13.7392 63.6871 13.7392C61.4591 13.7392 59.8338 14.938 59.5051 16.7649H55.524C55.6519 12.9209 59.1216 10.1236 63.8149 10.1236C68.8735 10.1236 72.1606 12.8828 72.1606 17.1645V31.9314H68.0699V28.3729H67.9786ZM62.6459 28.6395C60.2901 28.6395 58.7927 27.4597 58.7927 25.6519C58.7927 23.787 60.2354 22.7023 62.9929 22.531L67.9053 22.2075V23.8821C67.9053 26.6604 65.6409 28.6395 62.6459 28.6395ZM85.729 33.0923C83.9576 38.2873 81.9305 40 77.6207 40C77.292 40 76.1963 39.9619 75.9406 39.8858V36.3273C76.2146 36.3654 76.8903 36.4034 77.2372 36.4034C79.1913 36.4034 80.287 35.5471 80.9627 33.3206L81.3644 32.0076L73.8771 10.4091H78.4973L83.702 27.9353H83.7933L88.9979 10.4091H93.4903L85.729 33.0923Z" fill="#D6DAE1"/>
</svg>
