<svg width="98" height="40" viewBox="0 0 98 40" fill="none" xmlns="http://www.w3.org/2000/svg">
<path fill-rule="evenodd" clip-rule="evenodd" d="M44.8032 31.2886V19.5499H50.8618C53.3444 19.5499 55.4399 18.7181 57.1481 17.0774L57.5581 16.6615C60.6785 13.2647 60.4735 7.973 57.1481 4.83036C55.4854 3.16661 53.2078 2.26541 50.8618 2.31163H41.1362V31.2886H44.8032ZM44.8037 15.9911V5.86995H50.9544C52.2756 5.86995 53.5285 6.37832 54.4625 7.30262C56.4444 9.24367 56.4899 12.4787 54.5764 14.4891C53.6424 15.4827 52.3212 16.0373 50.9544 15.9911H44.8037ZM74.6633 13.0103C73.0918 11.5545 70.9508 10.8151 68.2404 10.8151C64.7556 10.8151 62.1363 12.1091 60.4052 14.674L63.6395 16.7306C64.8239 14.9744 66.441 14.0964 68.4909 14.0964C69.7892 14.0964 71.0419 14.5816 72.0213 15.4597C72.9779 16.2916 73.5245 17.4932 73.5245 18.7641V19.6191C72.1124 18.8334 70.3358 18.4175 68.1493 18.4175C65.5983 18.4175 63.5484 19.0183 62.0224 20.243C60.4964 21.4677 59.722 23.0852 59.722 25.1418C59.6764 27.0135 60.4736 28.7928 61.8857 29.9944C63.3206 31.2884 65.1428 31.9355 67.2838 31.9355C69.8119 31.9355 71.8163 30.8032 73.3423 28.5386H73.5017V31.2884H77.0093V19.0645C77.0093 16.4995 76.2349 14.4661 74.6633 13.0103ZM64.7106 27.6375C63.9589 27.0829 63.5033 26.1817 63.5033 25.2112C63.5033 24.1252 64.0045 23.224 64.984 22.5076C65.9863 21.7913 67.2392 21.4216 68.7199 21.4216C70.7702 21.3985 72.3648 21.8606 73.5038 22.7849C73.5038 24.3562 72.8887 25.7196 71.6814 26.875C70.5879 27.9841 69.1072 28.608 67.5582 28.608C66.5331 28.6312 65.5307 28.2845 64.7106 27.6375ZM84.8901 40L97.1438 11.462H93.1579L87.4866 25.6964H87.4183L81.6102 11.462H77.6244L85.6645 30.0175L81.1092 40H84.8901Z" fill="#D6DAE1"/>
<path d="M32.1434 17.0081C32.1434 15.8758 32.0522 14.7436 31.87 13.6344H16.4048V20.0352H25.2648C24.9004 22.0918 23.716 23.9404 21.985 25.0958V29.2552H27.2692C30.3668 26.3667 32.1434 22.0918 32.1434 17.0081Z" fill="#D6DAE1"/>
<path d="M16.4051 33.2762C20.8237 33.2762 24.559 31.7973 27.2695 29.2554L21.9853 25.0961C20.5048 26.1128 18.6144 26.6905 16.4051 26.6905C12.1231 26.6905 8.50161 23.7558 7.20335 19.8275H1.75977V24.1255C4.5385 29.7407 10.2098 33.2762 16.4051 33.2762Z" fill="#D6DAE1"/>
<path d="M7.20422 19.8273C6.52081 17.7707 6.52081 15.5293 7.20422 13.4496V9.17468H1.75976C-0.586588 13.8655 -0.586588 19.4114 1.75976 24.1022L7.20422 19.8273Z" fill="#D6DAE1"/>
<path d="M16.4051 6.58669C18.751 6.54047 21.0059 7.44167 22.6914 9.08231L27.3833 4.32214C24.3996 1.503 20.4821 -0.0452096 16.4051 0.00100567C10.2098 0.00100567 4.5385 3.55958 1.75977 9.17474L7.20335 13.4728C8.50161 9.52136 12.1231 6.58669 16.4051 6.58669Z" fill="#D6DAE1"/>
</svg>
