<svg width="149" height="40" viewBox="0 0 149 40" fill="none" xmlns="http://www.w3.org/2000/svg">
<path fill-rule="evenodd" clip-rule="evenodd" d="M17.829 0H6.2729C5.48202 0 4.80946 0.576914 4.68593 1.36102L0.0120888 31.1134C-0.080678 31.7008 0.37227 32.2297 0.965315 32.2297H6.4821C7.27299 32.2297 7.94555 31.6533 8.06908 30.8678L9.32947 22.8428C9.45111 22.0572 10.1251 21.4803 10.9146 21.4803H14.5727C22.1848 21.4803 26.578 17.7817 27.7257 10.4529C28.2425 7.24612 27.7475 4.72699 26.2518 2.96251C24.6095 1.02504 21.6963 0 17.829 0ZM19.1615 10.8668C18.5297 15.0302 15.3614 15.0302 12.2982 15.0302H10.5541L11.7776 7.25464C11.8504 6.78465 12.2556 6.4387 12.7289 6.4387H13.5283C15.6151 6.4387 17.5835 6.4387 18.6007 7.63292C19.2074 8.34527 19.393 9.40405 19.1615 10.8668V10.8668Z" fill="#D6DAE1"/>
<path fill-rule="evenodd" clip-rule="evenodd" d="M52.667 10.5077H47.1331C46.6617 10.5077 46.2542 10.8537 46.1818 11.3237L45.9366 12.8776L45.5499 12.3145C44.352 10.5686 41.6802 9.98499 39.0141 9.98499C32.8986 9.98499 27.6758 14.6355 26.6586 21.1588C26.13 24.4126 26.8816 27.5243 28.7203 29.6942C30.4067 31.6891 32.8196 32.5208 35.6902 32.5208C40.6177 32.5208 43.3496 29.3397 43.3496 29.3397L43.103 30.8836C43.0102 31.4739 43.4632 32.0032 44.0529 32.0032H49.0372C49.83 32.0032 50.4992 31.4263 50.6242 30.6408L53.615 11.624C53.7096 11.0385 53.2581 10.5077 52.667 10.5077ZM44.9531 21.3218C44.4192 24.4958 41.9102 26.6267 38.7098 26.6267C37.1029 26.6267 35.8189 26.1091 34.9939 25.1288C34.176 24.1551 33.8656 22.7688 34.1254 21.2249C34.6243 18.078 37.1753 15.8772 40.327 15.8772C41.8984 15.8772 43.1758 16.4019 44.0174 17.3903C44.8603 18.3897 45.1949 19.7845 44.9531 21.3218V21.3218Z" fill="#D6DAE1"/>
<path fill-rule="evenodd" clip-rule="evenodd" d="M81.7138 10.9836H76.1525C75.622 10.9836 75.1236 11.2483 74.823 11.6912L67.1532 23.0342L63.9021 12.1337C63.6976 11.4517 63.071 10.9836 62.361 10.9836H56.8968C56.2323 10.9836 55.7713 11.6352 55.9824 12.2629L62.1078 30.3107L56.3492 38.4731C55.8962 39.116 56.3525 39.9999 57.1349 39.9999H62.689C63.2163 39.9999 63.7095 39.7419 64.0086 39.308L82.5042 12.502C82.9472 11.8609 82.4924 10.9836 81.7138 10.9836" fill="#D6DAE1"/>
<path fill-rule="evenodd" clip-rule="evenodd" d="M100.252 0H88.6948C87.9058 0 87.2333 0.576914 87.1098 1.36102L82.4359 31.1134C82.3432 31.7008 82.7961 32.2297 83.3858 32.2297H89.3168C89.8672 32.2297 90.3386 31.8263 90.4247 31.2764L91.7514 22.8428C91.873 22.0572 92.5475 21.4803 93.3365 21.4803H96.9932C104.607 21.4803 108.998 17.7817 110.148 10.4529C110.666 7.24612 110.168 4.72699 108.672 2.96251C107.031 1.02504 104.12 0 100.252 0ZM101.586 10.8668C100.955 15.0302 97.7871 15.0302 94.722 15.0302H92.9803L94.2052 7.25464C94.2776 6.78465 94.6799 6.4387 95.1546 6.4387H95.954C98.0389 6.4387 100.009 6.4387 101.026 7.63292C101.633 8.34527 101.817 9.40405 101.586 10.8668V10.8668Z" fill="#D6DAE1"/>
<path fill-rule="evenodd" clip-rule="evenodd" d="M135.083 10.5077H129.552C129.078 10.5077 128.674 10.8537 128.603 11.3237L128.358 12.8776L127.969 12.3145C126.771 10.5686 124.101 9.98499 121.435 9.98499C115.32 9.98499 110.099 14.6355 109.082 21.1588C108.554 24.4126 109.303 27.5243 111.141 29.6942C112.831 31.6891 115.24 32.5208 118.111 32.5208C123.038 32.5208 125.771 29.3397 125.771 29.3397L125.524 30.8836C125.431 31.4739 125.884 32.0032 126.477 32.0032H131.46C132.249 32.0032 132.922 31.4263 133.045 30.6408L136.037 11.624C136.129 11.0385 135.676 10.5077 135.083 10.5077ZM127.369 21.3218C126.839 24.4958 124.326 26.6267 121.125 26.6267C119.522 26.6267 118.235 26.1091 117.41 25.1288C116.592 24.1551 116.285 22.7688 116.541 21.2249C117.043 18.078 119.591 15.8772 122.743 15.8772C124.314 15.8772 125.591 16.4019 126.433 17.3903C127.279 18.3897 127.614 19.7845 127.369 21.3218V21.3218Z" fill="#D6DAE1"/>
<path fill-rule="evenodd" clip-rule="evenodd" d="M141.146 0.817849L136.403 31.1149C136.31 31.7022 136.763 32.2312 137.353 32.2312H142.121C142.914 32.2312 143.586 31.6547 143.708 30.8692L148.385 1.11819C148.478 0.530818 148.025 0 147.435 0H142.096C141.625 0.00142565 141.219 0.347859 141.146 0.817849" fill="#D6DAE1"/>
</svg>
