<svg width="123" height="40" viewBox="0 0 123 40" fill="none" xmlns="http://www.w3.org/2000/svg">
<path fill-rule="evenodd" clip-rule="evenodd" d="M30.8339 39.6885H20.297L12.3956 8.65766C12.0206 7.23024 11.2243 5.96832 10.0529 5.37356C7.12973 3.87891 3.90855 2.68939 0.394531 2.08946V0.894775H17.3687C19.7113 0.894775 21.4683 2.68939 21.7612 4.77363L25.8609 27.1572L36.3926 0.894775H46.6367L30.8339 39.6885ZM52.4934 39.6885H42.5422L50.7364 0.894775H60.6877L52.4934 39.6885ZM73.5621 11.6417C73.8549 9.55233 75.6119 8.35765 77.6618 8.35765C80.883 8.05768 84.3918 8.65761 87.3202 10.1471L89.0772 1.79462C86.1488 0.59993 82.9277 0 80.0045 0C70.3461 0 63.318 5.37351 63.318 12.8313C63.318 18.5047 68.2962 21.4837 71.8102 23.2783C75.6119 25.0678 77.0761 26.2625 76.7833 28.0519C76.7833 30.7361 73.8549 31.9308 70.9317 31.9308C67.4177 31.9308 63.9037 31.036 60.6876 29.5414L58.9306 37.899C62.4447 39.3885 66.2464 39.9884 69.7604 39.9884C80.5901 40.2832 87.3202 34.9149 87.3202 26.8572C87.3202 16.7101 73.5621 16.1154 73.5621 11.6417V11.6417ZM122.147 39.6885L114.246 0.894775H105.759C104.002 0.894775 102.245 2.08946 101.659 3.87891L87.0274 39.6885H97.2714L99.3162 34.0202H111.903L113.074 39.6885H122.147ZM107.223 11.3419L110.146 25.9626H101.952L107.223 11.3419Z" fill="#D6DAE1"/>
</svg>
