<svg width="116" height="50" viewBox="0 0 116 50" fill="none" xmlns="http://www.w3.org/2000/svg">
<path d="M17.0091 1.07574L17.0091 1.07574C24.2146 -1.31629 31.6484 4.04895 31.6484 11.6416C31.6484 13.5474 31.1857 15.3722 30.3514 16.9899C27.3911 12.9156 21.9878 10.8303 16.6941 12.5872L16.8516 13.0617L16.694 12.5872L0.5 17.9622L0.5 6.55534L17.0091 1.07574Z" fill="#1280AE" stroke="white"/>
<path d="M30.366 18.8974C31.1799 20.4331 31.6484 22.1958 31.6484 24.1021C31.6484 29.133 28.4255 33.5985 23.6508 35.183L23.6508 35.183L12.0086 39.0474C6.34349 40.9278 0.5 36.7101 0.5 30.7413L0.5 22.5978C2.56186 26.7705 7.50051 29.1367 12.3236 27.5359L12.3236 27.5359L23.8891 23.697H23.8898L23.9665 23.6716C26.6242 22.7896 28.8388 21.085 30.366 18.8974Z" fill="#04A9EE" stroke="white"/>
<path d="M17.0087 13.5364L17.0086 13.5362C22.0197 11.8734 27.1424 13.9613 29.7982 17.9469C28.3883 20.1439 26.2493 21.8601 23.6504 22.7226L23.6504 22.7226L12.0082 26.5869C12.0082 26.5869 12.0082 26.5869 12.0082 26.5869C6.5761 28.3898 0.979449 24.585 0.529679 19.006L17.0087 13.5364Z" fill="#172D52" stroke="white"/>
<path d="M53.1978 34.751C53.1978 35.5078 53.0472 36.2158 52.7461 36.875C52.4531 37.526 52.0015 38.0957 51.3911 38.584C50.7808 39.0641 50.0036 39.4425 49.0596 39.7192C48.1156 39.9878 46.9966 40.1221 45.7026 40.1221C44.9946 40.1221 44.2907 40.1139 43.5908 40.0977C42.8991 40.0895 42.2725 40.0773 41.7109 40.061C41.0518 40.0448 40.4251 40.0244 39.8311 40C39.8799 39.7559 39.9165 39.4425 39.9409 39.0601C39.9653 38.6776 39.9816 38.2463 39.9897 37.7661C40.006 37.286 40.0142 36.7651 40.0142 36.2036V26.0474C40.0142 25.4777 40.006 24.9487 39.9897 24.4604C39.9816 23.964 39.9653 23.5205 39.9409 23.1299C39.9165 22.7393 39.8799 22.4219 39.8311 22.1777C40.1322 22.1615 40.4862 22.1452 40.8931 22.1289C41.3 22.1126 41.7476 22.1004 42.2358 22.0923C42.7241 22.076 43.245 22.0679 43.7983 22.0679C44.3517 22.0597 44.9214 22.0557 45.5073 22.0557C46.492 22.0557 47.3953 22.133 48.2173 22.2876C49.0474 22.4341 49.7635 22.6823 50.3657 23.0322C50.9679 23.374 51.4359 23.8257 51.7695 24.3872C52.1113 24.9487 52.2822 25.6364 52.2822 26.4502C52.2822 26.9466 52.2049 27.3942 52.0503 27.793C51.9038 28.1917 51.7004 28.5498 51.4399 28.8672C51.1795 29.1764 50.8743 29.445 50.5244 29.6729C50.1826 29.8926 49.8123 30.0798 49.4136 30.2344C49.8693 30.3564 50.321 30.5233 50.7686 30.7349C51.2243 30.9383 51.6312 31.215 51.9893 31.5649C52.3473 31.9149 52.6362 32.3503 52.856 32.8711C53.0838 33.3838 53.1978 34.0104 53.1978 34.751ZM43.4932 37.3145C43.6966 37.3307 44.0059 37.347 44.4209 37.3633C44.8359 37.3714 45.3486 37.3755 45.959 37.3755C46.488 37.3755 46.9884 37.3307 47.4604 37.2412C47.9406 37.1436 48.3556 36.9849 48.7056 36.7651C49.0636 36.5454 49.3444 36.2524 49.5479 35.8862C49.7594 35.52 49.8652 35.0602 49.8652 34.5068C49.8652 33.6686 49.5153 33.0379 48.8154 32.6147C48.1237 32.1834 47.1349 31.9678 45.8491 31.9678H43.4932V37.3145ZM43.4932 29.3188H45.3853C46.549 29.3188 47.432 29.1032 48.0342 28.6719C48.6445 28.2324 48.9497 27.6261 48.9497 26.853C48.9497 26.1287 48.6934 25.5916 48.1807 25.2417C47.668 24.8836 46.842 24.7046 45.7026 24.7046C45.2795 24.7046 44.8604 24.7127 44.4453 24.729C44.0384 24.7371 43.721 24.7493 43.4932 24.7656V29.3188ZM64.9287 30.2832C64.7578 30.2425 64.5096 30.1937 64.1841 30.1367C63.8586 30.0716 63.4354 30.0391 62.9146 30.0391C62.2716 30.0391 61.7345 30.1774 61.3032 30.4541C60.8719 30.7308 60.526 31.1011 60.2656 31.5649C60.0133 32.0288 59.8302 32.5578 59.7163 33.1519C59.6105 33.7459 59.5576 34.3604 59.5576 34.9951C59.5576 35.3532 59.5902 35.6787 59.6553 35.9717C59.7285 36.2646 59.8262 36.5169 59.9482 36.7285C60.0703 36.9401 60.2127 37.1069 60.3755 37.229C60.5382 37.3429 60.7132 37.3999 60.9004 37.3999C61.2015 37.3999 61.5107 37.2778 61.8281 37.0337C62.1455 36.7814 62.4507 36.46 62.7437 36.0693C63.0448 35.6787 63.3255 35.2433 63.5859 34.7632C63.8545 34.283 64.0864 33.811 64.2817 33.3472C64.4852 32.8752 64.6439 32.4398 64.7578 32.041C64.8717 31.6423 64.9287 31.3249 64.9287 31.0889V30.2832ZM65.9663 40C65.8768 39.8535 65.7913 39.6297 65.71 39.3286C65.6286 39.0194 65.5553 38.6898 65.4902 38.3398C65.4333 37.9818 65.3844 37.6318 65.3438 37.29C65.3112 36.9401 65.2949 36.6512 65.2949 36.4233V35.7275C65.0345 36.2565 64.7212 36.7936 64.355 37.3389C63.9969 37.876 63.5859 38.3643 63.1221 38.8037C62.6582 39.2432 62.1455 39.6053 61.584 39.8901C61.0306 40.1668 60.4365 40.3052 59.8018 40.3052C59.2891 40.3052 58.8089 40.1912 58.3613 39.9634C57.9137 39.7355 57.5231 39.3978 57.1895 38.9502C56.8639 38.5026 56.6076 37.9492 56.4204 37.29C56.2332 36.6227 56.1396 35.8577 56.1396 34.9951C56.1396 34.0267 56.2821 33.0827 56.5669 32.1631C56.8517 31.2354 57.2912 30.4134 57.8853 29.6973C58.4793 28.973 59.2362 28.3952 60.1558 27.9639C61.0754 27.5244 62.1659 27.3047 63.4272 27.3047C64.3143 27.3047 65.1932 27.3576 66.064 27.4634C66.9347 27.561 67.7201 27.6912 68.4199 27.854V33.5303C68.4199 35.0684 68.4932 36.3623 68.6396 37.4121C68.7861 38.4538 68.9774 39.3164 69.2134 40H65.9663ZM80.5049 40V33.2861C80.5049 32.7246 80.4683 32.2526 80.395 31.8701C80.3218 31.4876 80.2078 31.1825 80.0532 30.9546C79.8986 30.7186 79.6992 30.5518 79.4551 30.4541C79.2191 30.3483 78.9383 30.2954 78.6128 30.2954C78.2629 30.2954 77.9211 30.3727 77.5874 30.5273C77.2537 30.682 76.9445 30.8854 76.6597 31.1377C76.3748 31.39 76.1266 31.6707 75.915 31.98C75.7035 32.2892 75.5448 32.6025 75.439 32.9199V40H72.021V32.4927C72.021 31.2882 71.9518 30.271 71.8135 29.4409C71.6833 28.6027 71.549 27.972 71.4106 27.5488H74.7676C74.8164 27.6709 74.8652 27.8337 74.9141 28.0371C74.9629 28.2324 75.0076 28.4399 75.0483 28.6597C75.089 28.8713 75.1257 29.0828 75.1582 29.2944L75.2559 29.8071C75.6465 29.3677 76.029 28.9893 76.4033 28.6719C76.7777 28.3545 77.1561 28.0941 77.5386 27.8906C77.9211 27.6872 78.3117 27.5407 78.7104 27.4512C79.1092 27.3535 79.5243 27.3047 79.9556 27.3047C80.5741 27.3047 81.1274 27.4105 81.6157 27.6221C82.1121 27.8337 82.5312 28.151 82.873 28.5742C83.2148 28.9974 83.4753 29.5264 83.6543 30.1611C83.8333 30.7959 83.9229 31.5324 83.9229 32.3706V40H80.5049ZM87.1089 40V26.2061C87.1089 24.8877 87.1007 23.7362 87.0845 22.7515C87.0682 21.7586 87.0153 20.9977 86.9258 20.4688H90.5269V32.1265L94.2866 27.5488H98.8643L93.0293 33.0054L99.2305 40H94.7505L90.5269 34.1406V40H87.1089Z" fill="white"/>
<path d="M48.375 20.3125C46.8917 20.3125 45.5917 20.0583 44.475 19.55C43.3583 19.0333 42.4208 18.3333 41.6625 17.45C40.9125 16.5583 40.3458 15.55 39.9625 14.425C39.5875 13.3 39.4 12.125 39.4 10.9C39.4 9.66667 39.5875 8.4875 39.9625 7.3625C40.3458 6.22917 40.9125 5.22083 41.6625 4.3375C42.4208 3.44583 43.3583 2.74583 44.475 2.2375C45.5917 1.72083 46.8917 1.4625 48.375 1.4625C49.8583 1.4625 51.1583 1.72083 52.275 2.2375C53.3917 2.74583 54.325 3.44583 55.075 4.3375C55.8333 5.22083 56.4 6.22917 56.775 7.3625C57.1583 8.4875 57.35 9.66667 57.35 10.9C57.35 12.125 57.1583 13.3 56.775 14.425C56.4 15.55 55.8333 16.5583 55.075 17.45C54.325 18.3333 53.3917 19.0333 52.275 19.55C51.1583 20.0583 49.8583 20.3125 48.375 20.3125ZM48.375 18.4125C49.5333 18.4125 50.6208 18.1333 51.6375 17.575C52.6542 17.0083 53.475 16.1667 54.1 15.05C54.7333 13.9333 55.05 12.5458 55.05 10.8875C55.05 9.22083 54.7333 7.83333 54.1 6.725C53.475 5.60833 52.6542 4.77083 51.6375 4.2125C50.6208 3.64583 49.5333 3.3625 48.375 3.3625C47.2167 3.3625 46.1292 3.64583 45.1125 4.2125C44.0958 4.77083 43.2708 5.60833 42.6375 6.725C42.0125 7.83333 41.7 9.22083 41.7 10.8875C41.7 12.5458 42.0125 13.9333 42.6375 15.05C43.2708 16.1667 44.0958 17.0083 45.1125 17.575C46.1292 18.1333 47.2167 18.4125 48.375 18.4125ZM66.677 20.2875C65.5103 20.2875 64.4061 20.0417 63.3645 19.55C62.3311 19.05 61.4895 18.3125 60.8395 17.3375C60.1978 16.3625 59.877 15.1542 59.877 13.7125C59.877 12.6208 60.0686 11.6542 60.452 10.8125C60.8436 9.9625 61.3645 9.24583 62.0145 8.6625C62.6728 8.07917 63.4103 7.6375 64.227 7.3375C65.052 7.02917 65.8936 6.875 66.752 6.875C67.5103 6.875 68.2603 7 69.002 7.25C69.752 7.5 70.4311 7.91667 71.0395 8.5L70.2895 10.0125C69.8228 9.5625 69.2978 9.22917 68.7145 9.0125C68.1311 8.7875 67.5436 8.675 66.952 8.675C66.1186 8.675 65.3228 8.86667 64.5645 9.25C63.8061 9.625 63.1895 10.1833 62.7145 10.925C62.2395 11.6667 62.002 12.575 62.002 13.65C62.002 14.7583 62.2353 15.675 62.702 16.4C63.1686 17.1167 63.7728 17.65 64.5145 18C65.2645 18.3417 66.0561 18.5125 66.8895 18.5125C67.5645 18.5125 68.2395 18.3875 68.9145 18.1375C69.5895 17.8792 70.1853 17.5083 70.702 17.025L71.4145 18.6C70.7228 19.1583 69.9645 19.5792 69.1395 19.8625C68.3145 20.1458 67.4936 20.2875 66.677 20.2875ZM79.1115 20.275C77.8449 20.275 76.7115 20 75.7115 19.45C74.7199 18.9 73.9365 18.1208 73.3615 17.1125C72.7865 16.1042 72.499 14.9167 72.499 13.55C72.499 12.375 72.7532 11.2833 73.2615 10.275C73.7782 9.26667 74.5199 8.45417 75.4865 7.8375C76.4615 7.2125 77.6324 6.9 78.999 6.9C79.899 6.9 80.6782 7.06667 81.3365 7.4C82.0032 7.725 82.5157 8.16667 82.874 8.725C83.2407 9.28333 83.424 9.9125 83.424 10.6125C83.424 11.6292 83.0532 12.4458 82.3115 13.0625C81.5699 13.6792 80.5574 14.1625 79.274 14.5125C77.999 14.8542 76.5532 15.1375 74.9365 15.3625C75.1032 15.9958 75.399 16.5542 75.824 17.0375C76.249 17.5125 76.749 17.8833 77.324 18.15C77.899 18.4167 78.4949 18.55 79.1115 18.55C79.9782 18.55 80.774 18.3875 81.499 18.0625C82.2324 17.7292 82.8074 17.325 83.224 16.85L84.2615 18.175C83.6365 18.8167 82.8699 19.3292 81.9615 19.7125C81.0615 20.0875 80.1115 20.275 79.1115 20.275ZM74.7865 13.875C76.0699 13.6917 77.2074 13.4708 78.199 13.2125C79.1907 12.9542 79.9699 12.6167 80.5365 12.2C81.1032 11.775 81.3865 11.2292 81.3865 10.5625C81.3865 9.99583 81.1782 9.5375 80.7615 9.1875C80.3532 8.8375 79.7699 8.6625 79.0115 8.6625C78.3199 8.6625 77.6449 8.83333 76.9865 9.175C76.3365 9.50833 75.799 10.0167 75.374 10.7C74.9574 11.375 74.749 12.2292 74.749 13.2625C74.749 13.4708 74.7615 13.675 74.7865 13.875ZM91.0779 20.275C90.0363 20.275 89.1238 20.0375 88.3404 19.5625C87.5654 19.0792 86.9613 18.4083 86.5279 17.55C86.0946 16.6833 85.8779 15.675 85.8779 14.525C85.8779 13 86.1779 11.6667 86.7779 10.525C87.3779 9.38333 88.2154 8.49583 89.2904 7.8625C90.3738 7.22083 91.6363 6.9 93.0779 6.9C93.9196 6.9 94.7488 7 95.5654 7.2C96.3821 7.39167 97.0404 7.65 97.5404 7.975V16.425C97.5404 16.975 97.6821 17.4208 97.9654 17.7625C98.2571 18.0958 98.6363 18.2625 99.1029 18.2625L98.6779 20.05C97.9529 20.05 97.3238 19.8542 96.7904 19.4625C96.2571 19.0708 95.9196 18.5583 95.7779 17.925C95.3529 18.6333 94.7113 19.2042 93.8529 19.6375C92.9946 20.0625 92.0696 20.275 91.0779 20.275ZM91.3904 18.55C92.2154 18.55 92.9321 18.3667 93.5404 18C94.1571 17.625 94.6363 17.1208 94.9779 16.4875C95.3196 15.8542 95.4904 15.1375 95.4904 14.3375V9.1C95.2321 8.96667 94.8779 8.8625 94.4279 8.7875C93.9779 8.70417 93.5154 8.6625 93.0404 8.6625C92.0321 8.6625 91.1488 8.90417 90.3904 9.3875C89.6404 9.8625 89.0529 10.5292 88.6279 11.3875C88.2113 12.2458 88.0029 13.25 88.0029 14.4C88.0029 15.6417 88.3113 16.6458 88.9279 17.4125C89.5529 18.1708 90.3738 18.55 91.3904 18.55ZM114.291 20.2375C113.383 20.3708 112.691 20.3208 112.216 20.0875C111.741 19.8542 111.416 19.4375 111.241 18.8375C111.066 18.2292 110.979 17.4333 110.979 16.45V12.975C110.979 11.4583 110.771 10.3625 110.354 9.6875C109.937 9.00417 109.246 8.6625 108.279 8.6625C107.679 8.6625 107.066 8.8125 106.441 9.1125C105.825 9.40417 105.296 9.86667 104.854 10.5C104.421 11.125 104.171 11.9375 104.104 12.9375V20H102.054V11.2625C102.054 10.5375 101.929 9.90417 101.679 9.3625C101.429 8.82083 101.158 8.30833 100.866 7.825L102.929 7.175C103.154 7.51667 103.358 7.86667 103.541 8.225C103.733 8.575 103.858 8.95417 103.916 9.3625C104.291 8.62083 104.929 8.025 105.829 7.575C106.737 7.125 107.7 6.9 108.716 6.9C110.166 6.9 111.25 7.37917 111.966 8.3375C112.683 9.2875 113.041 10.8208 113.041 12.9375V16C113.041 16.6333 113.054 17.1542 113.079 17.5625C113.104 17.9708 113.216 18.2583 113.416 18.425C113.616 18.5833 113.975 18.6125 114.491 18.5125L114.291 20.2375Z" fill="white"/>
<path d="M0.386719 45.2109C0.386719 44.2604 0.641927 43.5169 1.15234 42.9805C1.66276 42.4414 2.32161 42.1719 3.12891 42.1719C3.65755 42.1719 4.13411 42.2982 4.55859 42.5508C4.98307 42.8034 5.30599 43.1562 5.52734 43.6094C5.7513 44.0599 5.86328 44.5716 5.86328 45.1445C5.86328 45.7253 5.74609 46.2448 5.51172 46.7031C5.27734 47.1615 4.94531 47.5091 4.51562 47.7461C4.08594 47.9805 3.6224 48.0977 3.125 48.0977C2.58594 48.0977 2.10417 47.9674 1.67969 47.707C1.25521 47.4466 0.933594 47.0911 0.714844 46.6406C0.496094 46.1901 0.386719 45.7135 0.386719 45.2109ZM1.16797 45.2227C1.16797 45.9128 1.35286 46.457 1.72266 46.8555C2.09505 47.2513 2.5612 47.4492 3.12109 47.4492C3.69141 47.4492 4.16016 47.2487 4.52734 46.8477C4.89714 46.4466 5.08203 45.8776 5.08203 45.1406C5.08203 44.6745 5.0026 44.2682 4.84375 43.9219C4.6875 43.5729 4.45703 43.3034 4.15234 43.1133C3.85026 42.9206 3.51042 42.8242 3.13281 42.8242C2.59635 42.8242 2.13411 43.0091 1.74609 43.3789C1.36068 43.7461 1.16797 44.3607 1.16797 45.2227ZM10.4289 48H9.77656V42.2734H10.4797V44.3164C10.7766 43.944 11.1555 43.7578 11.6164 43.7578C11.8716 43.7578 12.1125 43.8099 12.3391 43.9141C12.5682 44.0156 12.7557 44.1602 12.9016 44.3477C13.05 44.5326 13.1659 44.7565 13.2492 45.0195C13.3326 45.2826 13.3742 45.5638 13.3742 45.8633C13.3742 46.5742 13.1984 47.1237 12.8469 47.5117C12.4953 47.8997 12.0734 48.0938 11.5813 48.0938C11.0917 48.0938 10.7076 47.8893 10.4289 47.4805V48ZM10.4211 45.8945C10.4211 46.3919 10.4888 46.7513 10.6242 46.9727C10.8456 47.3346 11.1451 47.5156 11.5227 47.5156C11.8299 47.5156 12.0956 47.3828 12.3195 47.1172C12.5435 46.849 12.6555 46.4505 12.6555 45.9219C12.6555 45.3802 12.5474 44.9805 12.3313 44.7227C12.1177 44.4648 11.8586 44.3359 11.5539 44.3359C11.2466 44.3359 10.981 44.4701 10.757 44.7383C10.5331 45.0039 10.4211 45.3893 10.4211 45.8945ZM17.3406 47.4883C17.0802 47.7096 16.8289 47.8659 16.5867 47.957C16.3471 48.0482 16.0893 48.0938 15.8133 48.0938C15.3576 48.0938 15.0073 47.9831 14.7625 47.7617C14.5177 47.5378 14.3953 47.2526 14.3953 46.9062C14.3953 46.7031 14.4409 46.5182 14.532 46.3516C14.6258 46.1823 14.7469 46.0469 14.8953 45.9453C15.0464 45.8438 15.2156 45.7669 15.4031 45.7148C15.5411 45.6784 15.7495 45.6432 16.0281 45.6094C16.5958 45.5417 17.0138 45.4609 17.282 45.3672C17.2846 45.2708 17.2859 45.2096 17.2859 45.1836C17.2859 44.8971 17.2195 44.6953 17.0867 44.5781C16.907 44.4193 16.6401 44.3398 16.2859 44.3398C15.9552 44.3398 15.7104 44.3984 15.5516 44.5156C15.3953 44.6302 15.2794 44.8346 15.2039 45.1289L14.5164 45.0352C14.5789 44.7409 14.6818 44.5039 14.825 44.3242C14.9682 44.1419 15.1753 44.0026 15.4461 43.9062C15.7169 43.8073 16.0307 43.7578 16.3875 43.7578C16.7417 43.7578 17.0294 43.7995 17.2508 43.8828C17.4721 43.9661 17.6349 44.0716 17.7391 44.1992C17.8432 44.3242 17.9161 44.4831 17.9578 44.6758C17.9812 44.7956 17.993 45.0117 17.993 45.3242V46.2617C17.993 46.9154 18.0073 47.3294 18.0359 47.5039C18.0672 47.6758 18.1271 47.8411 18.2156 48H17.4812C17.4083 47.8542 17.3615 47.6836 17.3406 47.4883ZM17.282 45.918C17.0268 46.0221 16.644 46.1107 16.1336 46.1836C15.8445 46.2253 15.6401 46.2721 15.5203 46.3242C15.4005 46.3763 15.3081 46.4531 15.243 46.5547C15.1779 46.6536 15.1453 46.7643 15.1453 46.8867C15.1453 47.0742 15.2156 47.2305 15.3562 47.3555C15.4995 47.4805 15.7078 47.543 15.9812 47.543C16.2521 47.543 16.493 47.4844 16.7039 47.3672C16.9148 47.2474 17.0698 47.0846 17.1687 46.8789C17.2443 46.7201 17.282 46.4857 17.282 46.1758V45.918ZM19.4867 48V43.8516H20.1195V44.4414C20.4242 43.9857 20.8643 43.7578 21.4398 43.7578C21.6898 43.7578 21.919 43.8034 22.1273 43.8945C22.3383 43.9831 22.4958 44.1003 22.6 44.2461C22.7042 44.3919 22.7771 44.5651 22.8188 44.7656C22.8448 44.8958 22.8578 45.1237 22.8578 45.4492V48H22.1547V45.4766C22.1547 45.1901 22.1273 44.9766 22.0727 44.8359C22.018 44.6927 21.9203 44.5794 21.7797 44.4961C21.6417 44.4102 21.4789 44.3672 21.2914 44.3672C20.9919 44.3672 20.7328 44.4622 20.5141 44.6523C20.2979 44.8424 20.1898 45.2031 20.1898 45.7344V48H19.4867ZM27.0469 46.4805L27.7383 46.5703C27.6628 47.0469 27.4688 47.4206 27.1562 47.6914C26.8464 47.9596 26.4648 48.0938 26.0117 48.0938C25.444 48.0938 24.987 47.9089 24.6406 47.5391C24.2969 47.1667 24.125 46.6341 24.125 45.9414C24.125 45.4935 24.1992 45.1016 24.3477 44.7656C24.4961 44.4297 24.7214 44.1784 25.0234 44.0117C25.3281 43.8424 25.6589 43.7578 26.0156 43.7578C26.4661 43.7578 26.8346 43.8724 27.1211 44.1016C27.4076 44.3281 27.5911 44.651 27.6719 45.0703L26.9883 45.1758C26.9232 44.8971 26.8073 44.6875 26.6406 44.5469C26.4766 44.4062 26.2773 44.3359 26.043 44.3359C25.6888 44.3359 25.401 44.4635 25.1797 44.7188C24.9583 44.9714 24.8477 45.3724 24.8477 45.9219C24.8477 46.4792 24.9544 46.8841 25.168 47.1367C25.3815 47.3893 25.6602 47.5156 26.0039 47.5156C26.2799 47.5156 26.5104 47.431 26.6953 47.2617C26.8802 47.0924 26.9974 46.832 27.0469 46.4805ZM28.4781 45.9258C28.4781 45.1576 28.6917 44.5885 29.1187 44.2188C29.4755 43.9115 29.9104 43.7578 30.4234 43.7578C30.9937 43.7578 31.4599 43.9453 31.8219 44.3203C32.1839 44.6927 32.3648 45.2083 32.3648 45.8672C32.3648 46.401 32.2841 46.8216 32.1227 47.1289C31.9638 47.4336 31.7307 47.6706 31.4234 47.8398C31.1187 48.0091 30.7854 48.0938 30.4234 48.0938C29.8427 48.0938 29.3727 47.9076 29.0133 47.5352C28.6565 47.1628 28.4781 46.6263 28.4781 45.9258ZM29.2008 45.9258C29.2008 46.457 29.3167 46.8555 29.5484 47.1211C29.7802 47.3841 30.0719 47.5156 30.4234 47.5156C30.7724 47.5156 31.0628 47.3828 31.2945 47.1172C31.5263 46.8516 31.6422 46.4466 31.6422 45.9023C31.6422 45.3893 31.525 45.0013 31.2906 44.7383C31.0589 44.4727 30.7698 44.3398 30.4234 44.3398C30.0719 44.3398 29.7802 44.4714 29.5484 44.7344C29.3167 44.9974 29.2008 45.3945 29.2008 45.9258ZM36.3875 48V44.3984H35.7664V43.8516H36.3875V43.4102C36.3875 43.1315 36.4122 42.9245 36.4617 42.7891C36.5294 42.6068 36.6479 42.4596 36.8172 42.3477C36.9891 42.2331 37.2286 42.1758 37.5359 42.1758C37.7339 42.1758 37.9526 42.1992 38.1922 42.2461L38.0867 42.8594C37.9409 42.8333 37.8029 42.8203 37.6727 42.8203C37.4591 42.8203 37.3081 42.8659 37.2195 42.957C37.131 43.0482 37.0867 43.2188 37.0867 43.4688V43.8516H37.8953V44.3984H37.0867V48H36.3875ZM41.6859 46.6641L42.4125 46.7539C42.2979 47.1784 42.0857 47.5078 41.7758 47.7422C41.4659 47.9766 41.0701 48.0938 40.5883 48.0938C39.9815 48.0938 39.4997 47.9076 39.143 47.5352C38.7888 47.1602 38.6117 46.6354 38.6117 45.9609C38.6117 45.263 38.7914 44.7214 39.1508 44.3359C39.5102 43.9505 39.9763 43.7578 40.5492 43.7578C41.1039 43.7578 41.557 43.9466 41.9086 44.3242C42.2602 44.7018 42.4359 45.2331 42.4359 45.918C42.4359 45.9596 42.4346 46.0221 42.432 46.1055H39.3383C39.3643 46.5612 39.4932 46.9102 39.725 47.1523C39.9568 47.3945 40.2458 47.5156 40.5922 47.5156C40.85 47.5156 41.0701 47.4479 41.2523 47.3125C41.4346 47.1771 41.5792 46.9609 41.6859 46.6641ZM39.3773 45.5273H41.6937C41.6625 45.1784 41.574 44.9167 41.4281 44.7422C41.2042 44.4714 40.9138 44.3359 40.557 44.3359C40.2341 44.3359 39.962 44.444 39.7406 44.6602C39.5219 44.8763 39.4008 45.1654 39.3773 45.5273ZM43.7031 43.082V42.2734H44.4062V43.082H43.7031ZM43.7031 48V43.8516H44.4062V48H43.7031ZM47.4156 47.3711L47.5172 47.9922C47.3193 48.0339 47.1422 48.0547 46.9859 48.0547C46.7307 48.0547 46.5328 48.0143 46.3922 47.9336C46.2516 47.8529 46.1526 47.7474 46.0953 47.6172C46.038 47.4844 46.0094 47.207 46.0094 46.7852V44.3984H45.4938V43.8516H46.0094V42.8242L46.7086 42.4023V43.8516H47.4156V44.3984H46.7086V46.8242C46.7086 47.0247 46.7203 47.1536 46.7438 47.2109C46.7698 47.2682 46.8102 47.3138 46.8648 47.3477C46.9221 47.3815 47.0029 47.3984 47.107 47.3984C47.1852 47.3984 47.288 47.3893 47.4156 47.3711ZM48.2453 45.9258C48.2453 45.1576 48.4589 44.5885 48.8859 44.2188C49.2427 43.9115 49.6776 43.7578 50.1906 43.7578C50.7609 43.7578 51.2271 43.9453 51.5891 44.3203C51.951 44.6927 52.132 45.2083 52.132 45.8672C52.132 46.401 52.0513 46.8216 51.8898 47.1289C51.731 47.4336 51.4979 47.6706 51.1906 47.8398C50.8859 48.0091 50.5526 48.0938 50.1906 48.0938C49.6099 48.0938 49.1398 47.9076 48.7805 47.5352C48.4237 47.1628 48.2453 46.6263 48.2453 45.9258ZM48.968 45.9258C48.968 46.457 49.0839 46.8555 49.3156 47.1211C49.5474 47.3841 49.8391 47.5156 50.1906 47.5156C50.5396 47.5156 50.8299 47.3828 51.0617 47.1172C51.2935 46.8516 51.4094 46.4466 51.4094 45.9023C51.4094 45.3893 51.2922 45.0013 51.0578 44.7383C50.826 44.4727 50.537 44.3398 50.1906 44.3398C49.8391 44.3398 49.5474 44.4714 49.3156 44.7344C49.0839 44.9974 48.968 45.3945 48.968 45.9258ZM55.9867 49.5898V43.8516H56.6273V44.3906C56.7784 44.1797 56.949 44.0221 57.1391 43.918C57.3292 43.8112 57.5596 43.7578 57.8305 43.7578C58.1846 43.7578 58.4971 43.849 58.768 44.0312C59.0388 44.2135 59.2432 44.4714 59.3812 44.8047C59.5193 45.1354 59.5883 45.4987 59.5883 45.8945C59.5883 46.319 59.5115 46.7018 59.3578 47.043C59.2068 47.3815 58.9854 47.6419 58.6937 47.8242C58.4047 48.0039 58.1 48.0938 57.7797 48.0938C57.5453 48.0938 57.3344 48.0443 57.1469 47.9453C56.962 47.8464 56.8096 47.7214 56.6898 47.5703V49.5898H55.9867ZM56.6234 45.9492C56.6234 46.4831 56.7315 46.8776 56.9477 47.1328C57.1638 47.388 57.4255 47.5156 57.7328 47.5156C58.0453 47.5156 58.3122 47.3841 58.5336 47.1211C58.7576 46.8555 58.8695 46.4453 58.8695 45.8906C58.8695 45.362 58.7602 44.9661 58.5414 44.7031C58.3253 44.4401 58.0661 44.3086 57.7641 44.3086C57.4646 44.3086 57.199 44.4492 56.9672 44.7305C56.738 45.0091 56.6234 45.4154 56.6234 45.9492ZM63.5469 47.4883C63.2865 47.7096 63.0352 47.8659 62.793 47.957C62.5534 48.0482 62.2956 48.0938 62.0195 48.0938C61.5638 48.0938 61.2135 47.9831 60.9688 47.7617C60.724 47.5378 60.6016 47.2526 60.6016 46.9062C60.6016 46.7031 60.6471 46.5182 60.7383 46.3516C60.832 46.1823 60.9531 46.0469 61.1016 45.9453C61.2526 45.8438 61.4219 45.7669 61.6094 45.7148C61.7474 45.6784 61.9557 45.6432 62.2344 45.6094C62.8021 45.5417 63.2201 45.4609 63.4883 45.3672C63.4909 45.2708 63.4922 45.2096 63.4922 45.1836C63.4922 44.8971 63.4258 44.6953 63.293 44.5781C63.1133 44.4193 62.8464 44.3398 62.4922 44.3398C62.1615 44.3398 61.9167 44.3984 61.7578 44.5156C61.6016 44.6302 61.4857 44.8346 61.4102 45.1289L60.7227 45.0352C60.7852 44.7409 60.888 44.5039 61.0312 44.3242C61.1745 44.1419 61.3815 44.0026 61.6523 43.9062C61.9232 43.8073 62.237 43.7578 62.5938 43.7578C62.9479 43.7578 63.2357 43.7995 63.457 43.8828C63.6784 43.9661 63.8411 44.0716 63.9453 44.1992C64.0495 44.3242 64.1224 44.4831 64.1641 44.6758C64.1875 44.7956 64.1992 45.0117 64.1992 45.3242V46.2617C64.1992 46.9154 64.2135 47.3294 64.2422 47.5039C64.2734 47.6758 64.3333 47.8411 64.4219 48H63.6875C63.6146 47.8542 63.5677 47.6836 63.5469 47.4883ZM63.4883 45.918C63.2331 46.0221 62.8503 46.1107 62.3398 46.1836C62.0508 46.2253 61.8464 46.2721 61.7266 46.3242C61.6068 46.3763 61.5143 46.4531 61.4492 46.5547C61.3841 46.6536 61.3516 46.7643 61.3516 46.8867C61.3516 47.0742 61.4219 47.2305 61.5625 47.3555C61.7057 47.4805 61.9141 47.543 62.1875 47.543C62.4583 47.543 62.6992 47.4844 62.9102 47.3672C63.1211 47.2474 63.276 47.0846 63.375 46.8789C63.4505 46.7201 63.4883 46.4857 63.4883 46.1758V45.918ZM65.6852 48V43.8516H66.318V44.4805C66.4794 44.1862 66.6279 43.9922 66.7633 43.8984C66.9013 43.8047 67.0523 43.7578 67.2164 43.7578C67.4534 43.7578 67.6943 43.8333 67.9391 43.9844L67.6969 44.6367C67.525 44.5352 67.3531 44.4844 67.1813 44.4844C67.0276 44.4844 66.8896 44.5312 66.7672 44.625C66.6448 44.7161 66.5576 44.8438 66.5055 45.0078C66.4273 45.2578 66.3883 45.5312 66.3883 45.8281V48H65.6852ZM71.4641 47.4883C71.2036 47.7096 70.9523 47.8659 70.7102 47.957C70.4706 48.0482 70.2128 48.0938 69.9367 48.0938C69.481 48.0938 69.1307 47.9831 68.8859 47.7617C68.6411 47.5378 68.5188 47.2526 68.5188 46.9062C68.5188 46.7031 68.5643 46.5182 68.6555 46.3516C68.7492 46.1823 68.8703 46.0469 69.0188 45.9453C69.1698 45.8438 69.3391 45.7669 69.5266 45.7148C69.6646 45.6784 69.8729 45.6432 70.1516 45.6094C70.7193 45.5417 71.1372 45.4609 71.4055 45.3672C71.4081 45.2708 71.4094 45.2096 71.4094 45.1836C71.4094 44.8971 71.343 44.6953 71.2102 44.5781C71.0305 44.4193 70.7635 44.3398 70.4094 44.3398C70.0786 44.3398 69.8339 44.3984 69.675 44.5156C69.5188 44.6302 69.4029 44.8346 69.3273 45.1289L68.6398 45.0352C68.7023 44.7409 68.8052 44.5039 68.9484 44.3242C69.0917 44.1419 69.2987 44.0026 69.5695 43.9062C69.8404 43.8073 70.1542 43.7578 70.5109 43.7578C70.8651 43.7578 71.1529 43.7995 71.3742 43.8828C71.5956 43.9661 71.7583 44.0716 71.8625 44.1992C71.9667 44.3242 72.0396 44.4831 72.0813 44.6758C72.1047 44.7956 72.1164 45.0117 72.1164 45.3242V46.2617C72.1164 46.9154 72.1307 47.3294 72.1594 47.5039C72.1906 47.6758 72.2505 47.8411 72.3391 48H71.6047C71.5318 47.8542 71.4849 47.6836 71.4641 47.4883ZM71.4055 45.918C71.1503 46.0221 70.7675 46.1107 70.257 46.1836C69.968 46.2253 69.7635 46.2721 69.6438 46.3242C69.524 46.3763 69.4315 46.4531 69.3664 46.5547C69.3013 46.6536 69.2688 46.7643 69.2688 46.8867C69.2688 47.0742 69.3391 47.2305 69.4797 47.3555C69.6229 47.4805 69.8313 47.543 70.1047 47.543C70.3755 47.543 70.6164 47.4844 70.8273 47.3672C71.0383 47.2474 71.1932 47.0846 71.2922 46.8789C71.3677 46.7201 71.4055 46.4857 71.4055 46.1758V45.918ZM77.3891 48L75.8109 43.8516H76.5531L77.4437 46.3359C77.5401 46.6042 77.6286 46.8828 77.7094 47.1719C77.7719 46.9531 77.8591 46.6901 77.9711 46.3828L78.893 43.8516H79.6156L78.0453 48H77.3891ZM80.375 45.9258C80.375 45.1576 80.5885 44.5885 81.0156 44.2188C81.3724 43.9115 81.8073 43.7578 82.3203 43.7578C82.8906 43.7578 83.3568 43.9453 83.7188 44.3203C84.0807 44.6927 84.2617 45.2083 84.2617 45.8672C84.2617 46.401 84.181 46.8216 84.0195 47.1289C83.8607 47.4336 83.6276 47.6706 83.3203 47.8398C83.0156 48.0091 82.6823 48.0938 82.3203 48.0938C81.7396 48.0938 81.2695 47.9076 80.9102 47.5352C80.5534 47.1628 80.375 46.6263 80.375 45.9258ZM81.0977 45.9258C81.0977 46.457 81.2135 46.8555 81.4453 47.1211C81.6771 47.3841 81.9688 47.5156 82.3203 47.5156C82.6693 47.5156 82.9596 47.3828 83.1914 47.1172C83.4232 46.8516 83.5391 46.4466 83.5391 45.9023C83.5391 45.3893 83.4219 45.0013 83.1875 44.7383C82.9557 44.4727 82.6667 44.3398 82.3203 44.3398C81.9688 44.3398 81.6771 44.4714 81.4453 44.7344C81.2135 44.9974 81.0977 45.3945 81.0977 45.9258ZM88.1969 46.4805L88.8883 46.5703C88.8128 47.0469 88.6188 47.4206 88.3063 47.6914C87.9964 47.9596 87.6148 48.0938 87.1617 48.0938C86.594 48.0938 86.137 47.9089 85.7906 47.5391C85.4469 47.1667 85.275 46.6341 85.275 45.9414C85.275 45.4935 85.3492 45.1016 85.4977 44.7656C85.6461 44.4297 85.8714 44.1784 86.1734 44.0117C86.4781 43.8424 86.8089 43.7578 87.1656 43.7578C87.6161 43.7578 87.9846 43.8724 88.2711 44.1016C88.5576 44.3281 88.7411 44.651 88.8219 45.0703L88.1383 45.1758C88.0732 44.8971 87.9573 44.6875 87.7906 44.5469C87.6266 44.4062 87.4273 44.3359 87.193 44.3359C86.8388 44.3359 86.551 44.4635 86.3297 44.7188C86.1083 44.9714 85.9977 45.3724 85.9977 45.9219C85.9977 46.4792 86.1044 46.8841 86.318 47.1367C86.5315 47.3893 86.8102 47.5156 87.1539 47.5156C87.4299 47.5156 87.6604 47.431 87.8453 47.2617C88.0302 47.0924 88.1474 46.832 88.1969 46.4805ZM92.7297 46.6641L93.4563 46.7539C93.3417 47.1784 93.1294 47.5078 92.8195 47.7422C92.5096 47.9766 92.1138 48.0938 91.632 48.0938C91.0253 48.0938 90.5435 47.9076 90.1867 47.5352C89.8326 47.1602 89.6555 46.6354 89.6555 45.9609C89.6555 45.263 89.8352 44.7214 90.1945 44.3359C90.5539 43.9505 91.0201 43.7578 91.593 43.7578C92.1477 43.7578 92.6008 43.9466 92.9523 44.3242C93.3039 44.7018 93.4797 45.2331 93.4797 45.918C93.4797 45.9596 93.4784 46.0221 93.4758 46.1055H90.382C90.4081 46.5612 90.537 46.9102 90.7688 47.1523C91.0005 47.3945 91.2896 47.5156 91.6359 47.5156C91.8938 47.5156 92.1138 47.4479 92.2961 47.3125C92.4784 47.1771 92.6229 46.9609 92.7297 46.6641ZM90.4211 45.5273H92.7375C92.7063 45.1784 92.6177 44.9167 92.4719 44.7422C92.2479 44.4714 91.9576 44.3359 91.6008 44.3359C91.2779 44.3359 91.0057 44.444 90.7844 44.6602C90.5656 44.8763 90.4445 45.1654 90.4211 45.5273ZM91.5773 42.6719L91.1359 43.3359H90.3313L91.175 42.2422H91.925L92.8039 43.3359H92.007L91.5773 42.6719Z" fill="white"/>
</svg>
