<svg width="116" height="54" viewBox="0 0 116 54" fill="none" xmlns="http://www.w3.org/2000/svg">
<path d="M17.0091 5.07574L17.0091 5.07574C24.2146 2.68371 31.6484 8.04895 31.6484 15.6416C31.6484 17.5474 31.1857 19.3722 30.3514 20.9899C27.3911 16.9156 21.9878 14.8303 16.6941 16.5872L16.8516 17.0617L16.694 16.5872L0.5 21.9622L0.5 10.5553L17.0091 5.07574Z" fill="#1280AE" stroke="white"/>
<path d="M30.366 22.8974C31.1799 24.4331 31.6484 26.1958 31.6484 28.1021C31.6484 33.133 28.4255 37.5985 23.6508 39.183L23.6508 39.183L12.0086 43.0474C6.34349 44.9278 0.5 40.7101 0.5 34.7413L0.5 26.5978C2.56186 30.7705 7.50051 33.1367 12.3236 31.5359L12.3236 31.5359L23.8891 27.697H23.8898L23.9665 27.6716C26.6242 26.7896 28.8388 25.085 30.366 22.8974Z" fill="#04A9EE" stroke="white"/>
<path d="M17.0087 17.5364L17.0086 17.5362C22.0197 15.8734 27.1424 17.9613 29.7982 21.9469C28.3883 24.1439 26.2493 25.8601 23.6504 26.7226L23.6504 26.7226L12.0082 30.5869C12.0082 30.5869 12.0082 30.5869 12.0082 30.5869C6.5761 32.3898 0.979449 28.585 0.529679 23.006L17.0087 17.5364Z" fill="#172D52" stroke="white"/>
<path d="M53.1978 38.751C53.1978 39.5078 53.0472 40.2158 52.7461 40.875C52.4531 41.526 52.0015 42.0957 51.3911 42.584C50.7808 43.0641 50.0036 43.4425 49.0596 43.7192C48.1156 43.9878 46.9966 44.1221 45.7026 44.1221C44.9946 44.1221 44.2907 44.1139 43.5908 44.0977C42.8991 44.0895 42.2725 44.0773 41.7109 44.061C41.0518 44.0448 40.4251 44.0244 39.8311 44C39.8799 43.7559 39.9165 43.4425 39.9409 43.0601C39.9653 42.6776 39.9816 42.2463 39.9897 41.7661C40.006 41.286 40.0142 40.7651 40.0142 40.2036V30.0474C40.0142 29.4777 40.006 28.9487 39.9897 28.4604C39.9816 27.964 39.9653 27.5205 39.9409 27.1299C39.9165 26.7393 39.8799 26.4219 39.8311 26.1777C40.1322 26.1615 40.4862 26.1452 40.8931 26.1289C41.3 26.1126 41.7476 26.1004 42.2358 26.0923C42.7241 26.076 43.245 26.0679 43.7983 26.0679C44.3517 26.0597 44.9214 26.0557 45.5073 26.0557C46.492 26.0557 47.3953 26.133 48.2173 26.2876C49.0474 26.4341 49.7635 26.6823 50.3657 27.0322C50.9679 27.374 51.4359 27.8257 51.7695 28.3872C52.1113 28.9487 52.2822 29.6364 52.2822 30.4502C52.2822 30.9466 52.2049 31.3942 52.0503 31.793C51.9038 32.1917 51.7004 32.5498 51.4399 32.8672C51.1795 33.1764 50.8743 33.445 50.5244 33.6729C50.1826 33.8926 49.8123 34.0798 49.4136 34.2344C49.8693 34.3564 50.321 34.5233 50.7686 34.7349C51.2243 34.9383 51.6312 35.215 51.9893 35.5649C52.3473 35.9149 52.6362 36.3503 52.856 36.8711C53.0838 37.3838 53.1978 38.0104 53.1978 38.751ZM43.4932 41.3145C43.6966 41.3307 44.0059 41.347 44.4209 41.3633C44.8359 41.3714 45.3486 41.3755 45.959 41.3755C46.488 41.3755 46.9884 41.3307 47.4604 41.2412C47.9406 41.1436 48.3556 40.9849 48.7056 40.7651C49.0636 40.5454 49.3444 40.2524 49.5479 39.8862C49.7594 39.52 49.8652 39.0602 49.8652 38.5068C49.8652 37.6686 49.5153 37.0379 48.8154 36.6147C48.1237 36.1834 47.1349 35.9678 45.8491 35.9678H43.4932V41.3145ZM43.4932 33.3188H45.3853C46.549 33.3188 47.432 33.1032 48.0342 32.6719C48.6445 32.2324 48.9497 31.6261 48.9497 30.853C48.9497 30.1287 48.6934 29.5916 48.1807 29.2417C47.668 28.8836 46.842 28.7046 45.7026 28.7046C45.2795 28.7046 44.8604 28.7127 44.4453 28.729C44.0384 28.7371 43.721 28.7493 43.4932 28.7656V33.3188ZM64.9287 34.2832C64.7578 34.2425 64.5096 34.1937 64.1841 34.1367C63.8586 34.0716 63.4354 34.0391 62.9146 34.0391C62.2716 34.0391 61.7345 34.1774 61.3032 34.4541C60.8719 34.7308 60.526 35.1011 60.2656 35.5649C60.0133 36.0288 59.8302 36.5578 59.7163 37.1519C59.6105 37.7459 59.5576 38.3604 59.5576 38.9951C59.5576 39.3532 59.5902 39.6787 59.6553 39.9717C59.7285 40.2646 59.8262 40.5169 59.9482 40.7285C60.0703 40.9401 60.2127 41.1069 60.3755 41.229C60.5382 41.3429 60.7132 41.3999 60.9004 41.3999C61.2015 41.3999 61.5107 41.2778 61.8281 41.0337C62.1455 40.7814 62.4507 40.46 62.7437 40.0693C63.0448 39.6787 63.3255 39.2433 63.5859 38.7632C63.8545 38.283 64.0864 37.811 64.2817 37.3472C64.4852 36.8752 64.6439 36.4398 64.7578 36.041C64.8717 35.6423 64.9287 35.3249 64.9287 35.0889V34.2832ZM65.9663 44C65.8768 43.8535 65.7913 43.6297 65.71 43.3286C65.6286 43.0194 65.5553 42.6898 65.4902 42.3398C65.4333 41.9818 65.3844 41.6318 65.3438 41.29C65.3112 40.9401 65.2949 40.6512 65.2949 40.4233V39.7275C65.0345 40.2565 64.7212 40.7936 64.355 41.3389C63.9969 41.876 63.5859 42.3643 63.1221 42.8037C62.6582 43.2432 62.1455 43.6053 61.584 43.8901C61.0306 44.1668 60.4365 44.3052 59.8018 44.3052C59.2891 44.3052 58.8089 44.1912 58.3613 43.9634C57.9137 43.7355 57.5231 43.3978 57.1895 42.9502C56.8639 42.5026 56.6076 41.9492 56.4204 41.29C56.2332 40.6227 56.1396 39.8577 56.1396 38.9951C56.1396 38.0267 56.2821 37.0827 56.5669 36.1631C56.8517 35.2354 57.2912 34.4134 57.8853 33.6973C58.4793 32.973 59.2362 32.3952 60.1558 31.9639C61.0754 31.5244 62.1659 31.3047 63.4272 31.3047C64.3143 31.3047 65.1932 31.3576 66.064 31.4634C66.9347 31.561 67.7201 31.6912 68.4199 31.854V37.5303C68.4199 39.0684 68.4932 40.3623 68.6396 41.4121C68.7861 42.4538 68.9774 43.3164 69.2134 44H65.9663ZM80.5049 44V37.2861C80.5049 36.7246 80.4683 36.2526 80.395 35.8701C80.3218 35.4876 80.2078 35.1825 80.0532 34.9546C79.8986 34.7186 79.6992 34.5518 79.4551 34.4541C79.2191 34.3483 78.9383 34.2954 78.6128 34.2954C78.2629 34.2954 77.9211 34.3727 77.5874 34.5273C77.2537 34.682 76.9445 34.8854 76.6597 35.1377C76.3748 35.39 76.1266 35.6707 75.915 35.98C75.7035 36.2892 75.5448 36.6025 75.439 36.9199V44H72.021V36.4927C72.021 35.2882 71.9518 34.271 71.8135 33.4409C71.6833 32.6027 71.549 31.972 71.4106 31.5488H74.7676C74.8164 31.6709 74.8652 31.8337 74.9141 32.0371C74.9629 32.2324 75.0076 32.4399 75.0483 32.6597C75.089 32.8713 75.1257 33.0828 75.1582 33.2944L75.2559 33.8071C75.6465 33.3677 76.029 32.9893 76.4033 32.6719C76.7777 32.3545 77.1561 32.0941 77.5386 31.8906C77.9211 31.6872 78.3117 31.5407 78.7104 31.4512C79.1092 31.3535 79.5243 31.3047 79.9556 31.3047C80.5741 31.3047 81.1274 31.4105 81.6157 31.6221C82.1121 31.8337 82.5312 32.151 82.873 32.5742C83.2148 32.9974 83.4753 33.5264 83.6543 34.1611C83.8333 34.7959 83.9229 35.5324 83.9229 36.3706V44H80.5049ZM87.1089 44V30.2061C87.1089 28.8877 87.1007 27.7362 87.0845 26.7515C87.0682 25.7586 87.0153 24.9977 86.9258 24.4688H90.5269V36.1265L94.2866 31.5488H98.8643L93.0293 37.0054L99.2305 44H94.7505L90.5269 38.1406V44H87.1089Z" fill="#3F98E1"/>
<path d="M48.375 24.3125C46.8917 24.3125 45.5917 24.0583 44.475 23.55C43.3583 23.0333 42.4208 22.3333 41.6625 21.45C40.9125 20.5583 40.3458 19.55 39.9625 18.425C39.5875 17.3 39.4 16.125 39.4 14.9C39.4 13.6667 39.5875 12.4875 39.9625 11.3625C40.3458 10.2292 40.9125 9.22083 41.6625 8.3375C42.4208 7.44583 43.3583 6.74583 44.475 6.2375C45.5917 5.72083 46.8917 5.4625 48.375 5.4625C49.8583 5.4625 51.1583 5.72083 52.275 6.2375C53.3917 6.74583 54.325 7.44583 55.075 8.3375C55.8333 9.22083 56.4 10.2292 56.775 11.3625C57.1583 12.4875 57.35 13.6667 57.35 14.9C57.35 16.125 57.1583 17.3 56.775 18.425C56.4 19.55 55.8333 20.5583 55.075 21.45C54.325 22.3333 53.3917 23.0333 52.275 23.55C51.1583 24.0583 49.8583 24.3125 48.375 24.3125ZM48.375 22.4125C49.5333 22.4125 50.6208 22.1333 51.6375 21.575C52.6542 21.0083 53.475 20.1667 54.1 19.05C54.7333 17.9333 55.05 16.5458 55.05 14.8875C55.05 13.2208 54.7333 11.8333 54.1 10.725C53.475 9.60833 52.6542 8.77083 51.6375 8.2125C50.6208 7.64583 49.5333 7.3625 48.375 7.3625C47.2167 7.3625 46.1292 7.64583 45.1125 8.2125C44.0958 8.77083 43.2708 9.60833 42.6375 10.725C42.0125 11.8333 41.7 13.2208 41.7 14.8875C41.7 16.5458 42.0125 17.9333 42.6375 19.05C43.2708 20.1667 44.0958 21.0083 45.1125 21.575C46.1292 22.1333 47.2167 22.4125 48.375 22.4125ZM66.677 24.2875C65.5103 24.2875 64.4061 24.0417 63.3645 23.55C62.3311 23.05 61.4895 22.3125 60.8395 21.3375C60.1978 20.3625 59.877 19.1542 59.877 17.7125C59.877 16.6208 60.0686 15.6542 60.452 14.8125C60.8436 13.9625 61.3645 13.2458 62.0145 12.6625C62.6728 12.0792 63.4103 11.6375 64.227 11.3375C65.052 11.0292 65.8936 10.875 66.752 10.875C67.5103 10.875 68.2603 11 69.002 11.25C69.752 11.5 70.4311 11.9167 71.0395 12.5L70.2895 14.0125C69.8228 13.5625 69.2978 13.2292 68.7145 13.0125C68.1311 12.7875 67.5436 12.675 66.952 12.675C66.1186 12.675 65.3228 12.8667 64.5645 13.25C63.8061 13.625 63.1895 14.1833 62.7145 14.925C62.2395 15.6667 62.002 16.575 62.002 17.65C62.002 18.7583 62.2353 19.675 62.702 20.4C63.1686 21.1167 63.7728 21.65 64.5145 22C65.2645 22.3417 66.0561 22.5125 66.8895 22.5125C67.5645 22.5125 68.2395 22.3875 68.9145 22.1375C69.5895 21.8792 70.1853 21.5083 70.702 21.025L71.4145 22.6C70.7228 23.1583 69.9645 23.5792 69.1395 23.8625C68.3145 24.1458 67.4936 24.2875 66.677 24.2875ZM79.1115 24.275C77.8449 24.275 76.7115 24 75.7115 23.45C74.7199 22.9 73.9365 22.1208 73.3615 21.1125C72.7865 20.1042 72.499 18.9167 72.499 17.55C72.499 16.375 72.7532 15.2833 73.2615 14.275C73.7782 13.2667 74.5199 12.4542 75.4865 11.8375C76.4615 11.2125 77.6324 10.9 78.999 10.9C79.899 10.9 80.6782 11.0667 81.3365 11.4C82.0032 11.725 82.5157 12.1667 82.874 12.725C83.2407 13.2833 83.424 13.9125 83.424 14.6125C83.424 15.6292 83.0532 16.4458 82.3115 17.0625C81.5699 17.6792 80.5574 18.1625 79.274 18.5125C77.999 18.8542 76.5532 19.1375 74.9365 19.3625C75.1032 19.9958 75.399 20.5542 75.824 21.0375C76.249 21.5125 76.749 21.8833 77.324 22.15C77.899 22.4167 78.4949 22.55 79.1115 22.55C79.9782 22.55 80.774 22.3875 81.499 22.0625C82.2324 21.7292 82.8074 21.325 83.224 20.85L84.2615 22.175C83.6365 22.8167 82.8699 23.3292 81.9615 23.7125C81.0615 24.0875 80.1115 24.275 79.1115 24.275ZM74.7865 17.875C76.0699 17.6917 77.2074 17.4708 78.199 17.2125C79.1907 16.9542 79.9699 16.6167 80.5365 16.2C81.1032 15.775 81.3865 15.2292 81.3865 14.5625C81.3865 13.9958 81.1782 13.5375 80.7615 13.1875C80.3532 12.8375 79.7699 12.6625 79.0115 12.6625C78.3199 12.6625 77.6449 12.8333 76.9865 13.175C76.3365 13.5083 75.799 14.0167 75.374 14.7C74.9574 15.375 74.749 16.2292 74.749 17.2625C74.749 17.4708 74.7615 17.675 74.7865 17.875ZM91.0779 24.275C90.0363 24.275 89.1238 24.0375 88.3404 23.5625C87.5654 23.0792 86.9613 22.4083 86.5279 21.55C86.0946 20.6833 85.8779 19.675 85.8779 18.525C85.8779 17 86.1779 15.6667 86.7779 14.525C87.3779 13.3833 88.2154 12.4958 89.2904 11.8625C90.3738 11.2208 91.6363 10.9 93.0779 10.9C93.9196 10.9 94.7488 11 95.5654 11.2C96.3821 11.3917 97.0404 11.65 97.5404 11.975V20.425C97.5404 20.975 97.6821 21.4208 97.9654 21.7625C98.2571 22.0958 98.6363 22.2625 99.1029 22.2625L98.6779 24.05C97.9529 24.05 97.3238 23.8542 96.7904 23.4625C96.2571 23.0708 95.9196 22.5583 95.7779 21.925C95.3529 22.6333 94.7113 23.2042 93.8529 23.6375C92.9946 24.0625 92.0696 24.275 91.0779 24.275ZM91.3904 22.55C92.2154 22.55 92.9321 22.3667 93.5404 22C94.1571 21.625 94.6363 21.1208 94.9779 20.4875C95.3196 19.8542 95.4904 19.1375 95.4904 18.3375V13.1C95.2321 12.9667 94.8779 12.8625 94.4279 12.7875C93.9779 12.7042 93.5154 12.6625 93.0404 12.6625C92.0321 12.6625 91.1488 12.9042 90.3904 13.3875C89.6404 13.8625 89.0529 14.5292 88.6279 15.3875C88.2113 16.2458 88.0029 17.25 88.0029 18.4C88.0029 19.6417 88.3113 20.6458 88.9279 21.4125C89.5529 22.1708 90.3738 22.55 91.3904 22.55ZM114.291 24.2375C113.383 24.3708 112.691 24.3208 112.216 24.0875C111.741 23.8542 111.416 23.4375 111.241 22.8375C111.066 22.2292 110.979 21.4333 110.979 20.45V16.975C110.979 15.4583 110.771 14.3625 110.354 13.6875C109.937 13.0042 109.246 12.6625 108.279 12.6625C107.679 12.6625 107.066 12.8125 106.441 13.1125C105.825 13.4042 105.296 13.8667 104.854 14.5C104.421 15.125 104.171 15.9375 104.104 16.9375V24H102.054V15.2625C102.054 14.5375 101.929 13.9042 101.679 13.3625C101.429 12.8208 101.158 12.3083 100.866 11.825L102.929 11.175C103.154 11.5167 103.358 11.8667 103.541 12.225C103.733 12.575 103.858 12.9542 103.916 13.3625C104.291 12.6208 104.929 12.025 105.829 11.575C106.737 11.125 107.7 10.9 108.716 10.9C110.166 10.9 111.25 11.3792 111.966 12.3375C112.683 13.2875 113.041 14.8208 113.041 16.9375V20C113.041 20.6333 113.054 21.1542 113.079 21.5625C113.104 21.9708 113.216 22.2583 113.416 22.425C113.616 22.5833 113.975 22.6125 114.491 22.5125L114.291 24.2375Z" fill="#3F98E1"/>
<path d="M0.386719 49.2109C0.386719 48.2604 0.641927 47.5169 1.15234 46.9805C1.66276 46.4414 2.32161 46.1719 3.12891 46.1719C3.65755 46.1719 4.13411 46.2982 4.55859 46.5508C4.98307 46.8034 5.30599 47.1562 5.52734 47.6094C5.7513 48.0599 5.86328 48.5716 5.86328 49.1445C5.86328 49.7253 5.74609 50.2448 5.51172 50.7031C5.27734 51.1615 4.94531 51.5091 4.51562 51.7461C4.08594 51.9805 3.6224 52.0977 3.125 52.0977C2.58594 52.0977 2.10417 51.9674 1.67969 51.707C1.25521 51.4466 0.933594 51.0911 0.714844 50.6406C0.496094 50.1901 0.386719 49.7135 0.386719 49.2109ZM1.16797 49.2227C1.16797 49.9128 1.35286 50.457 1.72266 50.8555C2.09505 51.2513 2.5612 51.4492 3.12109 51.4492C3.69141 51.4492 4.16016 51.2487 4.52734 50.8477C4.89714 50.4466 5.08203 49.8776 5.08203 49.1406C5.08203 48.6745 5.0026 48.2682 4.84375 47.9219C4.6875 47.5729 4.45703 47.3034 4.15234 47.1133C3.85026 46.9206 3.51042 46.8242 3.13281 46.8242C2.59635 46.8242 2.13411 47.0091 1.74609 47.3789C1.36068 47.7461 1.16797 48.3607 1.16797 49.2227ZM10.4289 52H9.77656V46.2734H10.4797V48.3164C10.7766 47.944 11.1555 47.7578 11.6164 47.7578C11.8716 47.7578 12.1125 47.8099 12.3391 47.9141C12.5682 48.0156 12.7557 48.1602 12.9016 48.3477C13.05 48.5326 13.1659 48.7565 13.2492 49.0195C13.3326 49.2826 13.3742 49.5638 13.3742 49.8633C13.3742 50.5742 13.1984 51.1237 12.8469 51.5117C12.4953 51.8997 12.0734 52.0938 11.5813 52.0938C11.0917 52.0938 10.7076 51.8893 10.4289 51.4805V52ZM10.4211 49.8945C10.4211 50.3919 10.4888 50.7513 10.6242 50.9727C10.8456 51.3346 11.1451 51.5156 11.5227 51.5156C11.8299 51.5156 12.0956 51.3828 12.3195 51.1172C12.5435 50.849 12.6555 50.4505 12.6555 49.9219C12.6555 49.3802 12.5474 48.9805 12.3313 48.7227C12.1177 48.4648 11.8586 48.3359 11.5539 48.3359C11.2466 48.3359 10.981 48.4701 10.757 48.7383C10.5331 49.0039 10.4211 49.3893 10.4211 49.8945ZM17.3406 51.4883C17.0802 51.7096 16.8289 51.8659 16.5867 51.957C16.3471 52.0482 16.0893 52.0938 15.8133 52.0938C15.3576 52.0938 15.0073 51.9831 14.7625 51.7617C14.5177 51.5378 14.3953 51.2526 14.3953 50.9062C14.3953 50.7031 14.4409 50.5182 14.532 50.3516C14.6258 50.1823 14.7469 50.0469 14.8953 49.9453C15.0464 49.8438 15.2156 49.7669 15.4031 49.7148C15.5411 49.6784 15.7495 49.6432 16.0281 49.6094C16.5958 49.5417 17.0138 49.4609 17.282 49.3672C17.2846 49.2708 17.2859 49.2096 17.2859 49.1836C17.2859 48.8971 17.2195 48.6953 17.0867 48.5781C16.907 48.4193 16.6401 48.3398 16.2859 48.3398C15.9552 48.3398 15.7104 48.3984 15.5516 48.5156C15.3953 48.6302 15.2794 48.8346 15.2039 49.1289L14.5164 49.0352C14.5789 48.7409 14.6818 48.5039 14.825 48.3242C14.9682 48.1419 15.1753 48.0026 15.4461 47.9062C15.7169 47.8073 16.0307 47.7578 16.3875 47.7578C16.7417 47.7578 17.0294 47.7995 17.2508 47.8828C17.4721 47.9661 17.6349 48.0716 17.7391 48.1992C17.8432 48.3242 17.9161 48.4831 17.9578 48.6758C17.9812 48.7956 17.993 49.0117 17.993 49.3242V50.2617C17.993 50.9154 18.0073 51.3294 18.0359 51.5039C18.0672 51.6758 18.1271 51.8411 18.2156 52H17.4812C17.4083 51.8542 17.3615 51.6836 17.3406 51.4883ZM17.282 49.918C17.0268 50.0221 16.644 50.1107 16.1336 50.1836C15.8445 50.2253 15.6401 50.2721 15.5203 50.3242C15.4005 50.3763 15.3081 50.4531 15.243 50.5547C15.1779 50.6536 15.1453 50.7643 15.1453 50.8867C15.1453 51.0742 15.2156 51.2305 15.3562 51.3555C15.4995 51.4805 15.7078 51.543 15.9812 51.543C16.2521 51.543 16.493 51.4844 16.7039 51.3672C16.9148 51.2474 17.0698 51.0846 17.1687 50.8789C17.2443 50.7201 17.282 50.4857 17.282 50.1758V49.918ZM19.4867 52V47.8516H20.1195V48.4414C20.4242 47.9857 20.8643 47.7578 21.4398 47.7578C21.6898 47.7578 21.919 47.8034 22.1273 47.8945C22.3383 47.9831 22.4958 48.1003 22.6 48.2461C22.7042 48.3919 22.7771 48.5651 22.8188 48.7656C22.8448 48.8958 22.8578 49.1237 22.8578 49.4492V52H22.1547V49.4766C22.1547 49.1901 22.1273 48.9766 22.0727 48.8359C22.018 48.6927 21.9203 48.5794 21.7797 48.4961C21.6417 48.4102 21.4789 48.3672 21.2914 48.3672C20.9919 48.3672 20.7328 48.4622 20.5141 48.6523C20.2979 48.8424 20.1898 49.2031 20.1898 49.7344V52H19.4867ZM27.0469 50.4805L27.7383 50.5703C27.6628 51.0469 27.4688 51.4206 27.1562 51.6914C26.8464 51.9596 26.4648 52.0938 26.0117 52.0938C25.444 52.0938 24.987 51.9089 24.6406 51.5391C24.2969 51.1667 24.125 50.6341 24.125 49.9414C24.125 49.4935 24.1992 49.1016 24.3477 48.7656C24.4961 48.4297 24.7214 48.1784 25.0234 48.0117C25.3281 47.8424 25.6589 47.7578 26.0156 47.7578C26.4661 47.7578 26.8346 47.8724 27.1211 48.1016C27.4076 48.3281 27.5911 48.651 27.6719 49.0703L26.9883 49.1758C26.9232 48.8971 26.8073 48.6875 26.6406 48.5469C26.4766 48.4062 26.2773 48.3359 26.043 48.3359C25.6888 48.3359 25.401 48.4635 25.1797 48.7188C24.9583 48.9714 24.8477 49.3724 24.8477 49.9219C24.8477 50.4792 24.9544 50.8841 25.168 51.1367C25.3815 51.3893 25.6602 51.5156 26.0039 51.5156C26.2799 51.5156 26.5104 51.431 26.6953 51.2617C26.8802 51.0924 26.9974 50.832 27.0469 50.4805ZM28.4781 49.9258C28.4781 49.1576 28.6917 48.5885 29.1187 48.2188C29.4755 47.9115 29.9104 47.7578 30.4234 47.7578C30.9937 47.7578 31.4599 47.9453 31.8219 48.3203C32.1839 48.6927 32.3648 49.2083 32.3648 49.8672C32.3648 50.401 32.2841 50.8216 32.1227 51.1289C31.9638 51.4336 31.7307 51.6706 31.4234 51.8398C31.1187 52.0091 30.7854 52.0938 30.4234 52.0938C29.8427 52.0938 29.3727 51.9076 29.0133 51.5352C28.6565 51.1628 28.4781 50.6263 28.4781 49.9258ZM29.2008 49.9258C29.2008 50.457 29.3167 50.8555 29.5484 51.1211C29.7802 51.3841 30.0719 51.5156 30.4234 51.5156C30.7724 51.5156 31.0628 51.3828 31.2945 51.1172C31.5263 50.8516 31.6422 50.4466 31.6422 49.9023C31.6422 49.3893 31.525 49.0013 31.2906 48.7383C31.0589 48.4727 30.7698 48.3398 30.4234 48.3398C30.0719 48.3398 29.7802 48.4714 29.5484 48.7344C29.3167 48.9974 29.2008 49.3945 29.2008 49.9258ZM36.3875 52V48.3984H35.7664V47.8516H36.3875V47.4102C36.3875 47.1315 36.4122 46.9245 36.4617 46.7891C36.5294 46.6068 36.6479 46.4596 36.8172 46.3477C36.9891 46.2331 37.2286 46.1758 37.5359 46.1758C37.7339 46.1758 37.9526 46.1992 38.1922 46.2461L38.0867 46.8594C37.9409 46.8333 37.8029 46.8203 37.6727 46.8203C37.4591 46.8203 37.3081 46.8659 37.2195 46.957C37.131 47.0482 37.0867 47.2188 37.0867 47.4688V47.8516H37.8953V48.3984H37.0867V52H36.3875ZM41.6859 50.6641L42.4125 50.7539C42.2979 51.1784 42.0857 51.5078 41.7758 51.7422C41.4659 51.9766 41.0701 52.0938 40.5883 52.0938C39.9815 52.0938 39.4997 51.9076 39.143 51.5352C38.7888 51.1602 38.6117 50.6354 38.6117 49.9609C38.6117 49.263 38.7914 48.7214 39.1508 48.3359C39.5102 47.9505 39.9763 47.7578 40.5492 47.7578C41.1039 47.7578 41.557 47.9466 41.9086 48.3242C42.2602 48.7018 42.4359 49.2331 42.4359 49.918C42.4359 49.9596 42.4346 50.0221 42.432 50.1055H39.3383C39.3643 50.5612 39.4932 50.9102 39.725 51.1523C39.9568 51.3945 40.2458 51.5156 40.5922 51.5156C40.85 51.5156 41.0701 51.4479 41.2523 51.3125C41.4346 51.1771 41.5792 50.9609 41.6859 50.6641ZM39.3773 49.5273H41.6937C41.6625 49.1784 41.574 48.9167 41.4281 48.7422C41.2042 48.4714 40.9138 48.3359 40.557 48.3359C40.2341 48.3359 39.962 48.444 39.7406 48.6602C39.5219 48.8763 39.4008 49.1654 39.3773 49.5273ZM43.7031 47.082V46.2734H44.4062V47.082H43.7031ZM43.7031 52V47.8516H44.4062V52H43.7031ZM47.4156 51.3711L47.5172 51.9922C47.3193 52.0339 47.1422 52.0547 46.9859 52.0547C46.7307 52.0547 46.5328 52.0143 46.3922 51.9336C46.2516 51.8529 46.1526 51.7474 46.0953 51.6172C46.038 51.4844 46.0094 51.207 46.0094 50.7852V48.3984H45.4938V47.8516H46.0094V46.8242L46.7086 46.4023V47.8516H47.4156V48.3984H46.7086V50.8242C46.7086 51.0247 46.7203 51.1536 46.7438 51.2109C46.7698 51.2682 46.8102 51.3138 46.8648 51.3477C46.9221 51.3815 47.0029 51.3984 47.107 51.3984C47.1852 51.3984 47.288 51.3893 47.4156 51.3711ZM48.2453 49.9258C48.2453 49.1576 48.4589 48.5885 48.8859 48.2188C49.2427 47.9115 49.6776 47.7578 50.1906 47.7578C50.7609 47.7578 51.2271 47.9453 51.5891 48.3203C51.951 48.6927 52.132 49.2083 52.132 49.8672C52.132 50.401 52.0513 50.8216 51.8898 51.1289C51.731 51.4336 51.4979 51.6706 51.1906 51.8398C50.8859 52.0091 50.5526 52.0938 50.1906 52.0938C49.6099 52.0938 49.1398 51.9076 48.7805 51.5352C48.4237 51.1628 48.2453 50.6263 48.2453 49.9258ZM48.968 49.9258C48.968 50.457 49.0839 50.8555 49.3156 51.1211C49.5474 51.3841 49.8391 51.5156 50.1906 51.5156C50.5396 51.5156 50.8299 51.3828 51.0617 51.1172C51.2935 50.8516 51.4094 50.4466 51.4094 49.9023C51.4094 49.3893 51.2922 49.0013 51.0578 48.7383C50.826 48.4727 50.537 48.3398 50.1906 48.3398C49.8391 48.3398 49.5474 48.4714 49.3156 48.7344C49.0839 48.9974 48.968 49.3945 48.968 49.9258ZM55.9867 53.5898V47.8516H56.6273V48.3906C56.7784 48.1797 56.949 48.0221 57.1391 47.918C57.3292 47.8112 57.5596 47.7578 57.8305 47.7578C58.1846 47.7578 58.4971 47.849 58.768 48.0312C59.0388 48.2135 59.2432 48.4714 59.3812 48.8047C59.5193 49.1354 59.5883 49.4987 59.5883 49.8945C59.5883 50.319 59.5115 50.7018 59.3578 51.043C59.2068 51.3815 58.9854 51.6419 58.6937 51.8242C58.4047 52.0039 58.1 52.0938 57.7797 52.0938C57.5453 52.0938 57.3344 52.0443 57.1469 51.9453C56.962 51.8464 56.8096 51.7214 56.6898 51.5703V53.5898H55.9867ZM56.6234 49.9492C56.6234 50.4831 56.7315 50.8776 56.9477 51.1328C57.1638 51.388 57.4255 51.5156 57.7328 51.5156C58.0453 51.5156 58.3122 51.3841 58.5336 51.1211C58.7576 50.8555 58.8695 50.4453 58.8695 49.8906C58.8695 49.362 58.7602 48.9661 58.5414 48.7031C58.3253 48.4401 58.0661 48.3086 57.7641 48.3086C57.4646 48.3086 57.199 48.4492 56.9672 48.7305C56.738 49.0091 56.6234 49.4154 56.6234 49.9492ZM63.5469 51.4883C63.2865 51.7096 63.0352 51.8659 62.793 51.957C62.5534 52.0482 62.2956 52.0938 62.0195 52.0938C61.5638 52.0938 61.2135 51.9831 60.9688 51.7617C60.724 51.5378 60.6016 51.2526 60.6016 50.9062C60.6016 50.7031 60.6471 50.5182 60.7383 50.3516C60.832 50.1823 60.9531 50.0469 61.1016 49.9453C61.2526 49.8438 61.4219 49.7669 61.6094 49.7148C61.7474 49.6784 61.9557 49.6432 62.2344 49.6094C62.8021 49.5417 63.2201 49.4609 63.4883 49.3672C63.4909 49.2708 63.4922 49.2096 63.4922 49.1836C63.4922 48.8971 63.4258 48.6953 63.293 48.5781C63.1133 48.4193 62.8464 48.3398 62.4922 48.3398C62.1615 48.3398 61.9167 48.3984 61.7578 48.5156C61.6016 48.6302 61.4857 48.8346 61.4102 49.1289L60.7227 49.0352C60.7852 48.7409 60.888 48.5039 61.0312 48.3242C61.1745 48.1419 61.3815 48.0026 61.6523 47.9062C61.9232 47.8073 62.237 47.7578 62.5938 47.7578C62.9479 47.7578 63.2357 47.7995 63.457 47.8828C63.6784 47.9661 63.8411 48.0716 63.9453 48.1992C64.0495 48.3242 64.1224 48.4831 64.1641 48.6758C64.1875 48.7956 64.1992 49.0117 64.1992 49.3242V50.2617C64.1992 50.9154 64.2135 51.3294 64.2422 51.5039C64.2734 51.6758 64.3333 51.8411 64.4219 52H63.6875C63.6146 51.8542 63.5677 51.6836 63.5469 51.4883ZM63.4883 49.918C63.2331 50.0221 62.8503 50.1107 62.3398 50.1836C62.0508 50.2253 61.8464 50.2721 61.7266 50.3242C61.6068 50.3763 61.5143 50.4531 61.4492 50.5547C61.3841 50.6536 61.3516 50.7643 61.3516 50.8867C61.3516 51.0742 61.4219 51.2305 61.5625 51.3555C61.7057 51.4805 61.9141 51.543 62.1875 51.543C62.4583 51.543 62.6992 51.4844 62.9102 51.3672C63.1211 51.2474 63.276 51.0846 63.375 50.8789C63.4505 50.7201 63.4883 50.4857 63.4883 50.1758V49.918ZM65.6852 52V47.8516H66.318V48.4805C66.4794 48.1862 66.6279 47.9922 66.7633 47.8984C66.9013 47.8047 67.0523 47.7578 67.2164 47.7578C67.4534 47.7578 67.6943 47.8333 67.9391 47.9844L67.6969 48.6367C67.525 48.5352 67.3531 48.4844 67.1813 48.4844C67.0276 48.4844 66.8896 48.5312 66.7672 48.625C66.6448 48.7161 66.5576 48.8438 66.5055 49.0078C66.4273 49.2578 66.3883 49.5312 66.3883 49.8281V52H65.6852ZM71.4641 51.4883C71.2036 51.7096 70.9523 51.8659 70.7102 51.957C70.4706 52.0482 70.2128 52.0938 69.9367 52.0938C69.481 52.0938 69.1307 51.9831 68.8859 51.7617C68.6411 51.5378 68.5188 51.2526 68.5188 50.9062C68.5188 50.7031 68.5643 50.5182 68.6555 50.3516C68.7492 50.1823 68.8703 50.0469 69.0188 49.9453C69.1698 49.8438 69.3391 49.7669 69.5266 49.7148C69.6646 49.6784 69.8729 49.6432 70.1516 49.6094C70.7193 49.5417 71.1372 49.4609 71.4055 49.3672C71.4081 49.2708 71.4094 49.2096 71.4094 49.1836C71.4094 48.8971 71.343 48.6953 71.2102 48.5781C71.0305 48.4193 70.7635 48.3398 70.4094 48.3398C70.0786 48.3398 69.8339 48.3984 69.675 48.5156C69.5188 48.6302 69.4029 48.8346 69.3273 49.1289L68.6398 49.0352C68.7023 48.7409 68.8052 48.5039 68.9484 48.3242C69.0917 48.1419 69.2987 48.0026 69.5695 47.9062C69.8404 47.8073 70.1542 47.7578 70.5109 47.7578C70.8651 47.7578 71.1529 47.7995 71.3742 47.8828C71.5956 47.9661 71.7583 48.0716 71.8625 48.1992C71.9667 48.3242 72.0396 48.4831 72.0813 48.6758C72.1047 48.7956 72.1164 49.0117 72.1164 49.3242V50.2617C72.1164 50.9154 72.1307 51.3294 72.1594 51.5039C72.1906 51.6758 72.2505 51.8411 72.3391 52H71.6047C71.5318 51.8542 71.4849 51.6836 71.4641 51.4883ZM71.4055 49.918C71.1503 50.0221 70.7675 50.1107 70.257 50.1836C69.968 50.2253 69.7635 50.2721 69.6438 50.3242C69.524 50.3763 69.4315 50.4531 69.3664 50.5547C69.3013 50.6536 69.2688 50.7643 69.2688 50.8867C69.2688 51.0742 69.3391 51.2305 69.4797 51.3555C69.6229 51.4805 69.8313 51.543 70.1047 51.543C70.3755 51.543 70.6164 51.4844 70.8273 51.3672C71.0383 51.2474 71.1932 51.0846 71.2922 50.8789C71.3677 50.7201 71.4055 50.4857 71.4055 50.1758V49.918ZM77.3891 52L75.8109 47.8516H76.5531L77.4437 50.3359C77.5401 50.6042 77.6286 50.8828 77.7094 51.1719C77.7719 50.9531 77.8591 50.6901 77.9711 50.3828L78.893 47.8516H79.6156L78.0453 52H77.3891ZM80.375 49.9258C80.375 49.1576 80.5885 48.5885 81.0156 48.2188C81.3724 47.9115 81.8073 47.7578 82.3203 47.7578C82.8906 47.7578 83.3568 47.9453 83.7188 48.3203C84.0807 48.6927 84.2617 49.2083 84.2617 49.8672C84.2617 50.401 84.181 50.8216 84.0195 51.1289C83.8607 51.4336 83.6276 51.6706 83.3203 51.8398C83.0156 52.0091 82.6823 52.0938 82.3203 52.0938C81.7396 52.0938 81.2695 51.9076 80.9102 51.5352C80.5534 51.1628 80.375 50.6263 80.375 49.9258ZM81.0977 49.9258C81.0977 50.457 81.2135 50.8555 81.4453 51.1211C81.6771 51.3841 81.9688 51.5156 82.3203 51.5156C82.6693 51.5156 82.9596 51.3828 83.1914 51.1172C83.4232 50.8516 83.5391 50.4466 83.5391 49.9023C83.5391 49.3893 83.4219 49.0013 83.1875 48.7383C82.9557 48.4727 82.6667 48.3398 82.3203 48.3398C81.9688 48.3398 81.6771 48.4714 81.4453 48.7344C81.2135 48.9974 81.0977 49.3945 81.0977 49.9258ZM88.1969 50.4805L88.8883 50.5703C88.8128 51.0469 88.6188 51.4206 88.3063 51.6914C87.9964 51.9596 87.6148 52.0938 87.1617 52.0938C86.594 52.0938 86.137 51.9089 85.7906 51.5391C85.4469 51.1667 85.275 50.6341 85.275 49.9414C85.275 49.4935 85.3492 49.1016 85.4977 48.7656C85.6461 48.4297 85.8714 48.1784 86.1734 48.0117C86.4781 47.8424 86.8089 47.7578 87.1656 47.7578C87.6161 47.7578 87.9846 47.8724 88.2711 48.1016C88.5576 48.3281 88.7411 48.651 88.8219 49.0703L88.1383 49.1758C88.0732 48.8971 87.9573 48.6875 87.7906 48.5469C87.6266 48.4062 87.4273 48.3359 87.193 48.3359C86.8388 48.3359 86.551 48.4635 86.3297 48.7188C86.1083 48.9714 85.9977 49.3724 85.9977 49.9219C85.9977 50.4792 86.1044 50.8841 86.318 51.1367C86.5315 51.3893 86.8102 51.5156 87.1539 51.5156C87.4299 51.5156 87.6604 51.431 87.8453 51.2617C88.0302 51.0924 88.1474 50.832 88.1969 50.4805ZM92.7297 50.6641L93.4563 50.7539C93.3417 51.1784 93.1294 51.5078 92.8195 51.7422C92.5096 51.9766 92.1138 52.0938 91.632 52.0938C91.0253 52.0938 90.5435 51.9076 90.1867 51.5352C89.8326 51.1602 89.6555 50.6354 89.6555 49.9609C89.6555 49.263 89.8352 48.7214 90.1945 48.3359C90.5539 47.9505 91.0201 47.7578 91.593 47.7578C92.1477 47.7578 92.6008 47.9466 92.9523 48.3242C93.3039 48.7018 93.4797 49.2331 93.4797 49.918C93.4797 49.9596 93.4784 50.0221 93.4758 50.1055H90.382C90.4081 50.5612 90.537 50.9102 90.7688 51.1523C91.0005 51.3945 91.2896 51.5156 91.6359 51.5156C91.8938 51.5156 92.1138 51.4479 92.2961 51.3125C92.4784 51.1771 92.6229 50.9609 92.7297 50.6641ZM90.4211 49.5273H92.7375C92.7063 49.1784 92.6177 48.9167 92.4719 48.7422C92.2479 48.4714 91.9576 48.3359 91.6008 48.3359C91.2779 48.3359 91.0057 48.444 90.7844 48.6602C90.5656 48.8763 90.4445 49.1654 90.4211 49.5273ZM91.5773 46.6719L91.1359 47.3359H90.3313L91.175 46.2422H91.925L92.8039 47.3359H92.007L91.5773 46.6719Z" fill="#3F98E1"/>
</svg>
