<svg width="113" height="50" viewBox="0 0 113 50" fill="none" xmlns="http://www.w3.org/2000/svg">
<path d="M17.0091 1.07574L17.0091 1.07574C24.2146 -1.31629 31.6484 4.04895 31.6484 11.6416C31.6484 13.5474 31.1857 15.3722 30.3514 16.9899C27.3911 12.9156 21.9878 10.8303 16.6941 12.5872L16.8406 13.0286L16.694 12.5872L0.5 17.9622L0.5 6.55534L17.0091 1.07574Z" fill="#1280AE" stroke="white"/>
<path d="M30.366 18.8974C31.1799 20.4331 31.6484 22.1958 31.6484 24.1021C31.6484 29.133 28.4255 33.5985 23.6508 35.183L23.6508 35.183L12.0086 39.0474C6.34348 40.9278 0.5 36.7101 0.5 30.7413L0.5 22.5978C2.56186 26.7705 7.50051 29.1367 12.3236 27.5359L12.3236 27.5359L23.8891 23.697H23.8898L23.9665 23.6716C26.6242 22.7896 28.8388 21.085 30.366 18.8974Z" fill="#04A9EE" stroke="white"/>
<path d="M17.0087 13.5364L17.0086 13.5362C22.0197 11.8734 27.1424 13.9613 29.7982 17.9469C28.3883 20.1439 26.2493 21.8601 23.6504 22.7226L23.6504 22.7226L12.0082 26.5869C12.0082 26.5869 12.0082 26.5869 12.0082 26.5869C6.5761 28.3898 0.979449 24.585 0.529679 19.006L17.0087 13.5364Z" fill="#172D52" stroke="white"/>
<path d="M46.1299 37.1924C47.2855 37.1924 48.3068 37.1842 49.1938 37.168C50.089 37.1517 50.7726 37.0988 51.2446 37.0093V40H39.8311C39.9206 39.5117 39.9735 38.8078 39.9897 37.8882C40.006 36.9604 40.0142 35.8944 40.0142 34.6899V27.4878C40.0142 26.2834 40.006 25.2214 39.9897 24.3018C39.9735 23.374 39.9206 22.666 39.8311 22.1777H43.4932V37.1924H46.1299ZM62.7192 40C62.6623 39.8698 62.6012 39.7192 62.5361 39.5483C62.471 39.3693 62.4059 39.1821 62.3408 38.9868C62.2839 38.7915 62.2269 38.5881 62.1699 38.3765C62.1211 38.1649 62.0804 37.9533 62.0479 37.7417C61.3236 38.5799 60.5749 39.2188 59.8018 39.6582C59.0286 40.0895 58.223 40.3052 57.3848 40.3052C54.8376 40.3052 53.564 38.5555 53.564 35.0562V31.4551C53.564 31.0645 53.5599 30.7104 53.5518 30.3931C53.5518 30.0757 53.5436 29.7705 53.5273 29.4775C53.5111 29.1764 53.4867 28.8713 53.4541 28.562C53.4215 28.2528 53.3768 27.915 53.3198 27.5488H56.9819V34.3237C56.9819 34.8771 57.0063 35.3532 57.0552 35.752C57.1121 36.1507 57.2057 36.4803 57.3359 36.7407C57.4661 36.993 57.637 37.1802 57.8486 37.3022C58.0602 37.4243 58.3206 37.4854 58.6299 37.4854C58.9066 37.4854 59.1995 37.404 59.5088 37.2412C59.8262 37.0785 60.1273 36.8709 60.4121 36.6187C60.7051 36.3582 60.9696 36.0775 61.2056 35.7764C61.4416 35.4753 61.6206 35.1823 61.7427 34.8975V31.4551C61.7427 31.0563 61.7386 30.6982 61.7305 30.3809C61.7305 30.0553 61.7223 29.7461 61.7061 29.4531C61.6898 29.1602 61.6654 28.8631 61.6328 28.562C61.6003 28.2609 61.5555 27.9232 61.4985 27.5488H65.1606V34.5068C65.1606 35.695 65.2257 36.7367 65.356 37.6318C65.4943 38.5189 65.6937 39.3083 65.9541 40H62.7192ZM77.7217 31.2476C77.445 31.0604 77.1805 30.8976 76.9282 30.7593C76.6841 30.6128 76.4359 30.4948 76.1836 30.4053C75.9395 30.3076 75.6831 30.2344 75.4146 30.1855C75.146 30.1367 74.853 30.1123 74.5356 30.1123C74.1125 30.1123 73.7178 30.1978 73.3516 30.3687C72.9854 30.5396 72.6639 30.7878 72.3872 31.1133C72.1187 31.4388 71.9071 31.8376 71.7524 32.3096C71.5978 32.7734 71.5205 33.3024 71.5205 33.8965C71.5205 34.4336 71.5897 34.9259 71.728 35.3735C71.8745 35.813 72.078 36.1914 72.3384 36.5088C72.5988 36.818 72.9162 37.0622 73.2905 37.2412C73.6649 37.4121 74.0799 37.4976 74.5356 37.4976C74.9019 37.4976 75.2396 37.4691 75.5488 37.4121C75.8581 37.347 76.151 37.2575 76.4277 37.1436C76.7044 37.0296 76.9689 36.8913 77.2212 36.7285C77.4816 36.5658 77.7461 36.3786 78.0146 36.167L78.3809 39.1455C78.0716 39.3327 77.7583 39.4995 77.4409 39.646C77.1235 39.7925 76.7899 39.9146 76.4399 40.0122C76.09 40.1099 75.7197 40.1831 75.3291 40.2319C74.9385 40.2808 74.5153 40.3052 74.0596 40.3052C73.2376 40.3052 72.4645 40.1668 71.7402 39.8901C71.016 39.6134 70.3853 39.2065 69.8481 38.6694C69.311 38.1323 68.8838 37.4731 68.5664 36.6919C68.2572 35.9106 68.1025 35.0195 68.1025 34.0186C68.1025 33.0664 68.2531 32.1834 68.5542 31.3696C68.8553 30.5477 69.2826 29.8356 69.8359 29.2334C70.3893 28.6312 71.0566 28.1592 71.8379 27.8174C72.6273 27.4756 73.5062 27.3047 74.4746 27.3047C75.2884 27.3047 76.0086 27.3901 76.6353 27.561C77.27 27.7319 77.8112 27.9354 78.2588 28.1714L77.7217 31.2476ZM89.4893 30.2832C89.3184 30.2425 89.0701 30.1937 88.7446 30.1367C88.4191 30.0716 87.9959 30.0391 87.4751 30.0391C86.8322 30.0391 86.2951 30.1774 85.8638 30.4541C85.4325 30.7308 85.0866 31.1011 84.8262 31.5649C84.5739 32.0288 84.3908 32.5578 84.2769 33.1519C84.1711 33.7459 84.1182 34.3604 84.1182 34.9951C84.1182 35.3532 84.1507 35.6787 84.2158 35.9717C84.2891 36.2646 84.3867 36.5169 84.5088 36.7285C84.6309 36.9401 84.7733 37.1069 84.936 37.229C85.0988 37.3429 85.2738 37.3999 85.4609 37.3999C85.762 37.3999 86.0713 37.2778 86.3887 37.0337C86.7061 36.7814 87.0112 36.46 87.3042 36.0693C87.6053 35.6787 87.8861 35.2433 88.1465 34.7632C88.415 34.283 88.647 33.811 88.8423 33.3472C89.0457 32.8752 89.2044 32.4398 89.3184 32.041C89.4323 31.6423 89.4893 31.3249 89.4893 31.0889V30.2832ZM90.5269 40C90.4373 39.8535 90.3519 39.6297 90.2705 39.3286C90.1891 39.0194 90.1159 38.6898 90.0508 38.3398C89.9938 37.9818 89.945 37.6318 89.9043 37.29C89.8717 36.9401 89.8555 36.6512 89.8555 36.4233V35.7275C89.5951 36.2565 89.2817 36.7936 88.9155 37.3389C88.5575 37.876 88.1465 38.3643 87.6826 38.8037C87.2188 39.2432 86.7061 39.6053 86.1445 39.8901C85.5911 40.1668 84.9971 40.3052 84.3623 40.3052C83.8496 40.3052 83.3695 40.1912 82.9219 39.9634C82.4743 39.7355 82.0837 39.3978 81.75 38.9502C81.4245 38.5026 81.1681 37.9492 80.981 37.29C80.7938 36.6227 80.7002 35.8577 80.7002 34.9951C80.7002 34.0267 80.8426 33.0827 81.1274 32.1631C81.4123 31.2354 81.8517 30.4134 82.4458 29.6973C83.0399 28.973 83.7967 28.3952 84.7163 27.9639C85.6359 27.5244 86.7264 27.3047 87.9878 27.3047C88.8748 27.3047 89.7537 27.3576 90.6245 27.4634C91.4953 27.561 92.2806 27.6912 92.9805 27.854V33.5303C92.9805 35.0684 93.0537 36.3623 93.2002 37.4121C93.3467 38.4538 93.5379 39.3164 93.7739 40H90.5269Z" fill="#3F98E1"/>
<path d="M109.088 31.4473C108.512 31.1543 107.979 30.9053 107.491 30.7002C107.003 30.4854 106.529 30.3096 106.07 30.1729C105.611 30.0361 105.152 29.9336 104.693 29.8652C104.234 29.7969 103.746 29.7627 103.229 29.7627C102.77 29.7627 102.35 29.8359 101.969 29.9824C101.588 30.1191 101.256 30.2998 100.973 30.5244C100.699 30.749 100.484 31.0078 100.328 31.3008C100.172 31.584 100.094 31.877 100.094 32.1797C100.094 32.4922 100.147 32.7754 100.255 33.0293C100.372 33.2734 100.597 33.5127 100.929 33.7471C101.261 33.9717 101.72 34.2061 102.306 34.4502C102.901 34.6846 103.683 34.9531 104.649 35.2559C105.626 35.5586 106.49 35.9004 107.242 36.2812C107.994 36.6621 108.624 37.1016 109.132 37.5996C109.64 38.0879 110.021 38.6396 110.274 39.2549C110.538 39.8701 110.67 40.5635 110.67 41.335C110.67 42.3799 110.46 43.3369 110.04 44.2061C109.63 45.0654 109.063 45.8027 108.341 46.418C107.628 47.0332 106.793 47.5117 105.836 47.8535C104.889 48.1953 103.873 48.3662 102.789 48.3662C102.027 48.3662 101.285 48.3174 100.562 48.2197C99.8398 48.1221 99.1562 47.9854 98.5117 47.8096C97.877 47.6338 97.2861 47.4287 96.7393 47.1943C96.2021 46.9502 95.7285 46.6816 95.3184 46.3887L96.0508 42.3604C97.1055 43.21 98.1943 43.8252 99.3174 44.2061C100.45 44.5869 101.607 44.7773 102.789 44.7773C103.268 44.7773 103.727 44.7139 104.166 44.5869C104.605 44.4502 104.996 44.2598 105.338 44.0156C105.68 43.7617 105.953 43.4541 106.158 43.0928C106.363 42.7314 106.466 42.3164 106.466 41.8477C106.466 41.5449 106.402 41.2568 106.275 40.9834C106.158 40.71 105.919 40.4414 105.558 40.1777C105.196 39.9043 104.688 39.626 104.034 39.3428C103.39 39.0596 102.535 38.7471 101.471 38.4053C100.318 38.0439 99.3809 37.6533 98.6582 37.2334C97.9355 36.8135 97.3691 36.3594 96.959 35.8711C96.5488 35.3828 96.2705 34.8604 96.124 34.3037C95.9775 33.7373 95.9043 33.127 95.9043 32.4727C95.9043 32.0332 95.9678 31.5742 96.0947 31.0957C96.2217 30.6172 96.4121 30.1484 96.666 29.6895C96.9297 29.2305 97.2617 28.7959 97.6621 28.3857C98.0625 27.9658 98.5361 27.5996 99.083 27.2871C99.6396 26.9648 100.274 26.7109 100.987 26.5254C101.7 26.3398 102.496 26.2471 103.375 26.2471C104 26.2471 104.581 26.2715 105.118 26.3203C105.665 26.3691 106.192 26.4473 106.7 26.5547C107.218 26.6621 107.721 26.7988 108.209 26.9648C108.707 27.1309 109.22 27.3311 109.747 27.5654L109.088 31.4473Z" fill="#3F98E1"/>
<path d="M40.175 20V1.8H45.3125C47.6542 1.8 49.4 2.1375 50.55 2.8125C51.7083 3.4875 52.2875 4.6125 52.2875 6.1875C52.2875 7.35417 52.0458 8.2625 51.5625 8.9125C51.0875 9.55417 50.35 10.0458 49.35 10.3875C50.5917 10.6292 51.5333 11.1042 52.175 11.8125C52.825 12.5208 53.15 13.5708 53.15 14.9625C53.15 16.7708 52.5208 18.0625 51.2625 18.8375C50.0125 19.6125 48.3042 20 46.1375 20H40.175ZM42.325 9.6875H45.1125C46.8792 9.6875 48.1375 9.44167 48.8875 8.95C49.6458 8.45833 50.025 7.65417 50.025 6.5375C50.025 5.49583 49.6667 4.75417 48.95 4.3125C48.2333 3.87083 47.0208 3.65 45.3125 3.65H42.325V9.6875ZM42.325 18.15H46.0625C47.7375 18.15 48.9583 17.9042 49.725 17.4125C50.4917 16.9125 50.875 16.0833 50.875 14.925C50.875 13.7 50.4583 12.8167 49.625 12.275C48.8 11.725 47.4208 11.45 45.4875 11.45H42.325V18.15ZM60.5359 20.275C59.4943 20.275 58.5818 20.0375 57.7984 19.5625C57.0234 19.0792 56.4193 18.4083 55.9859 17.55C55.5526 16.6833 55.3359 15.675 55.3359 14.525C55.3359 13 55.6359 11.6667 56.2359 10.525C56.8359 9.38333 57.6734 8.49583 58.7484 7.8625C59.8318 7.22083 61.0943 6.9 62.5359 6.9C63.3776 6.9 64.2068 7 65.0234 7.2C65.8401 7.39167 66.4984 7.65 66.9984 7.975V16.425C66.9984 16.975 67.1401 17.4208 67.4234 17.7625C67.7151 18.0958 68.0943 18.2625 68.5609 18.2625L68.1359 20.05C67.4109 20.05 66.7818 19.8542 66.2484 19.4625C65.7151 19.0708 65.3776 18.5583 65.2359 17.925C64.8109 18.6333 64.1693 19.2042 63.3109 19.6375C62.4526 20.0625 61.5276 20.275 60.5359 20.275ZM60.8484 18.55C61.6734 18.55 62.3901 18.3667 62.9984 18C63.6151 17.625 64.0943 17.1208 64.4359 16.4875C64.7776 15.8542 64.9484 15.1375 64.9484 14.3375V9.1C64.6901 8.96667 64.3359 8.8625 63.8859 8.7875C63.4359 8.70417 62.9734 8.6625 62.4984 8.6625C61.4901 8.6625 60.6068 8.90417 59.8484 9.3875C59.0984 9.8625 58.5109 10.5292 58.0859 11.3875C57.6693 12.2458 57.4609 13.25 57.4609 14.4C57.4609 15.6417 57.7693 16.6458 58.3859 17.4125C59.0109 18.1708 59.8318 18.55 60.8484 18.55ZM83.7494 20.2375C82.8411 20.3708 82.1494 20.3208 81.6744 20.0875C81.1994 19.8542 80.8744 19.4375 80.6994 18.8375C80.5244 18.2292 80.4369 17.4333 80.4369 16.45V12.975C80.4369 11.4583 80.2286 10.3625 79.8119 9.6875C79.3952 9.00417 78.7036 8.6625 77.7369 8.6625C77.1369 8.6625 76.5244 8.8125 75.8994 9.1125C75.2827 9.40417 74.7536 9.86667 74.3119 10.5C73.8786 11.125 73.6286 11.9375 73.5619 12.9375V20H71.5119V11.2625C71.5119 10.5375 71.3869 9.90417 71.1369 9.3625C70.8869 8.82083 70.6161 8.30833 70.3244 7.825L72.3869 7.175C72.6119 7.51667 72.8161 7.86667 72.9994 8.225C73.1911 8.575 73.3161 8.95417 73.3744 9.3625C73.7494 8.62083 74.3869 8.025 75.2869 7.575C76.1952 7.125 77.1577 6.9 78.1744 6.9C79.6244 6.9 80.7077 7.37917 81.4244 8.3375C82.1411 9.2875 82.4994 10.8208 82.4994 12.9375V16C82.4994 16.6333 82.5119 17.1542 82.5369 17.5625C82.5619 17.9708 82.6744 18.2583 82.8744 18.425C83.0744 18.5833 83.4327 18.6125 83.9494 18.5125L83.7494 20.2375ZM92.8 20.2875C91.6333 20.2875 90.5292 20.0417 89.4875 19.55C88.4542 19.05 87.6125 18.3125 86.9625 17.3375C86.3208 16.3625 86 15.1542 86 13.7125C86 12.6208 86.1917 11.6542 86.575 10.8125C86.9667 9.9625 87.4875 9.24583 88.1375 8.6625C88.7958 8.07917 89.5333 7.6375 90.35 7.3375C91.175 7.02917 92.0167 6.875 92.875 6.875C93.6333 6.875 94.3833 7 95.125 7.25C95.875 7.5 96.5542 7.91667 97.1625 8.5L96.4125 10.0125C95.9458 9.5625 95.4208 9.22917 94.8375 9.0125C94.2542 8.7875 93.6667 8.675 93.075 8.675C92.2417 8.675 91.4458 8.86667 90.6875 9.25C89.9292 9.625 89.3125 10.1833 88.8375 10.925C88.3625 11.6667 88.125 12.575 88.125 13.65C88.125 14.7583 88.3583 15.675 88.825 16.4C89.2917 17.1167 89.8958 17.65 90.6375 18C91.3875 18.3417 92.1792 18.5125 93.0125 18.5125C93.6875 18.5125 94.3625 18.3875 95.0375 18.1375C95.7125 17.8792 96.3083 17.5083 96.825 17.025L97.5375 18.6C96.8458 19.1583 96.0875 19.5792 95.2625 19.8625C94.4375 20.1458 93.6167 20.2875 92.8 20.2875ZM105.272 20.275C103.947 20.275 102.789 20 101.797 19.45C100.805 18.8917 100.03 18.1125 99.4721 17.1125C98.9221 16.1125 98.6471 14.9458 98.6471 13.6125C98.6471 12.2708 98.9221 11.0958 99.4721 10.0875C100.022 9.07917 100.793 8.29583 101.785 7.7375C102.785 7.17917 103.943 6.9 105.26 6.9C106.568 6.9 107.71 7.17917 108.685 7.7375C109.66 8.29583 110.418 9.075 110.96 10.075C111.501 11.075 111.772 12.2458 111.772 13.5875C111.772 14.9208 111.501 16.0917 110.96 17.1C110.418 18.1 109.66 18.8792 108.685 19.4375C107.71 19.9958 106.572 20.275 105.272 20.275ZM105.272 18.55C106.589 18.55 107.647 18.1 108.447 17.2C109.247 16.2917 109.647 15.0958 109.647 13.6125C109.647 12.1208 109.243 10.925 108.435 10.025C107.635 9.11667 106.576 8.6625 105.26 8.6625C103.918 8.6625 102.835 9.12083 102.01 10.0375C101.185 10.9458 100.772 12.1458 100.772 13.6375C100.772 15.1125 101.185 16.3 102.01 17.2C102.835 18.1 103.922 18.55 105.272 18.55Z" fill="#3F98E1"/>
<path d="M0.386719 45.2109C0.386719 44.2604 0.641927 43.5169 1.15234 42.9805C1.66276 42.4414 2.32161 42.1719 3.12891 42.1719C3.65755 42.1719 4.13411 42.2982 4.55859 42.5508C4.98307 42.8034 5.30599 43.1562 5.52734 43.6094C5.7513 44.0599 5.86328 44.5716 5.86328 45.1445C5.86328 45.7253 5.74609 46.2448 5.51172 46.7031C5.27734 47.1615 4.94531 47.5091 4.51562 47.7461C4.08594 47.9805 3.6224 48.0977 3.125 48.0977C2.58594 48.0977 2.10417 47.9674 1.67969 47.707C1.25521 47.4466 0.933594 47.0911 0.714844 46.6406C0.496094 46.1901 0.386719 45.7135 0.386719 45.2109ZM1.16797 45.2227C1.16797 45.9128 1.35286 46.457 1.72266 46.8555C2.09505 47.2513 2.5612 47.4492 3.12109 47.4492C3.69141 47.4492 4.16016 47.2487 4.52734 46.8477C4.89714 46.4466 5.08203 45.8776 5.08203 45.1406C5.08203 44.6745 5.0026 44.2682 4.84375 43.9219C4.6875 43.5729 4.45703 43.3034 4.15234 43.1133C3.85026 42.9206 3.51042 42.8242 3.13281 42.8242C2.59635 42.8242 2.13411 43.0091 1.74609 43.3789C1.36068 43.7461 1.16797 44.3607 1.16797 45.2227ZM10.4289 48H9.77656V42.2734H10.4797V44.3164C10.7766 43.944 11.1555 43.7578 11.6164 43.7578C11.8716 43.7578 12.1125 43.8099 12.3391 43.9141C12.5682 44.0156 12.7557 44.1602 12.9016 44.3477C13.05 44.5326 13.1659 44.7565 13.2492 45.0195C13.3326 45.2826 13.3742 45.5638 13.3742 45.8633C13.3742 46.5742 13.1984 47.1237 12.8469 47.5117C12.4953 47.8997 12.0734 48.0938 11.5813 48.0938C11.0917 48.0938 10.7076 47.8893 10.4289 47.4805V48ZM10.4211 45.8945C10.4211 46.3919 10.4888 46.7513 10.6242 46.9727C10.8456 47.3346 11.1451 47.5156 11.5227 47.5156C11.8299 47.5156 12.0956 47.3828 12.3195 47.1172C12.5435 46.849 12.6555 46.4505 12.6555 45.9219C12.6555 45.3802 12.5474 44.9805 12.3313 44.7227C12.1177 44.4648 11.8586 44.3359 11.5539 44.3359C11.2466 44.3359 10.981 44.4701 10.757 44.7383C10.5331 45.0039 10.4211 45.3893 10.4211 45.8945ZM17.3406 47.4883C17.0802 47.7096 16.8289 47.8659 16.5867 47.957C16.3471 48.0482 16.0893 48.0938 15.8133 48.0938C15.3576 48.0938 15.0073 47.9831 14.7625 47.7617C14.5177 47.5378 14.3953 47.2526 14.3953 46.9062C14.3953 46.7031 14.4409 46.5182 14.532 46.3516C14.6258 46.1823 14.7469 46.0469 14.8953 45.9453C15.0464 45.8438 15.2156 45.7669 15.4031 45.7148C15.5411 45.6784 15.7495 45.6432 16.0281 45.6094C16.5958 45.5417 17.0138 45.4609 17.282 45.3672C17.2846 45.2708 17.2859 45.2096 17.2859 45.1836C17.2859 44.8971 17.2195 44.6953 17.0867 44.5781C16.907 44.4193 16.6401 44.3398 16.2859 44.3398C15.9552 44.3398 15.7104 44.3984 15.5516 44.5156C15.3953 44.6302 15.2794 44.8346 15.2039 45.1289L14.5164 45.0352C14.5789 44.7409 14.6818 44.5039 14.825 44.3242C14.9682 44.1419 15.1753 44.0026 15.4461 43.9062C15.7169 43.8073 16.0307 43.7578 16.3875 43.7578C16.7417 43.7578 17.0294 43.7995 17.2508 43.8828C17.4721 43.9661 17.6349 44.0716 17.7391 44.1992C17.8432 44.3242 17.9161 44.4831 17.9578 44.6758C17.9812 44.7956 17.993 45.0117 17.993 45.3242V46.2617C17.993 46.9154 18.0073 47.3294 18.0359 47.5039C18.0672 47.6758 18.1271 47.8411 18.2156 48H17.4812C17.4083 47.8542 17.3615 47.6836 17.3406 47.4883ZM17.282 45.918C17.0268 46.0221 16.644 46.1107 16.1336 46.1836C15.8445 46.2253 15.6401 46.2721 15.5203 46.3242C15.4005 46.3763 15.3081 46.4531 15.243 46.5547C15.1779 46.6536 15.1453 46.7643 15.1453 46.8867C15.1453 47.0742 15.2156 47.2305 15.3562 47.3555C15.4995 47.4805 15.7078 47.543 15.9812 47.543C16.2521 47.543 16.493 47.4844 16.7039 47.3672C16.9148 47.2474 17.0698 47.0846 17.1687 46.8789C17.2443 46.7201 17.282 46.4857 17.282 46.1758V45.918ZM19.4867 48V43.8516H20.1195V44.4414C20.4242 43.9857 20.8643 43.7578 21.4398 43.7578C21.6898 43.7578 21.919 43.8034 22.1273 43.8945C22.3383 43.9831 22.4958 44.1003 22.6 44.2461C22.7042 44.3919 22.7771 44.5651 22.8188 44.7656C22.8448 44.8958 22.8578 45.1237 22.8578 45.4492V48H22.1547V45.4766C22.1547 45.1901 22.1273 44.9766 22.0727 44.8359C22.018 44.6927 21.9203 44.5794 21.7797 44.4961C21.6417 44.4102 21.4789 44.3672 21.2914 44.3672C20.9919 44.3672 20.7328 44.4622 20.5141 44.6523C20.2979 44.8424 20.1898 45.2031 20.1898 45.7344V48H19.4867ZM27.0469 46.4805L27.7383 46.5703C27.6628 47.0469 27.4688 47.4206 27.1562 47.6914C26.8464 47.9596 26.4648 48.0938 26.0117 48.0938C25.444 48.0938 24.987 47.9089 24.6406 47.5391C24.2969 47.1667 24.125 46.6341 24.125 45.9414C24.125 45.4935 24.1992 45.1016 24.3477 44.7656C24.4961 44.4297 24.7214 44.1784 25.0234 44.0117C25.3281 43.8424 25.6589 43.7578 26.0156 43.7578C26.4661 43.7578 26.8346 43.8724 27.1211 44.1016C27.4076 44.3281 27.5911 44.651 27.6719 45.0703L26.9883 45.1758C26.9232 44.8971 26.8073 44.6875 26.6406 44.5469C26.4766 44.4062 26.2773 44.3359 26.043 44.3359C25.6888 44.3359 25.401 44.4635 25.1797 44.7188C24.9583 44.9714 24.8477 45.3724 24.8477 45.9219C24.8477 46.4792 24.9544 46.8841 25.168 47.1367C25.3815 47.3893 25.6602 47.5156 26.0039 47.5156C26.2799 47.5156 26.5104 47.431 26.6953 47.2617C26.8802 47.0924 26.9974 46.832 27.0469 46.4805ZM28.4781 45.9258C28.4781 45.1576 28.6917 44.5885 29.1187 44.2188C29.4755 43.9115 29.9104 43.7578 30.4234 43.7578C30.9937 43.7578 31.4599 43.9453 31.8219 44.3203C32.1839 44.6927 32.3648 45.2083 32.3648 45.8672C32.3648 46.401 32.2841 46.8216 32.1227 47.1289C31.9638 47.4336 31.7307 47.6706 31.4234 47.8398C31.1187 48.0091 30.7854 48.0938 30.4234 48.0938C29.8427 48.0938 29.3727 47.9076 29.0133 47.5352C28.6565 47.1628 28.4781 46.6263 28.4781 45.9258ZM29.2008 45.9258C29.2008 46.457 29.3167 46.8555 29.5484 47.1211C29.7802 47.3841 30.0719 47.5156 30.4234 47.5156C30.7724 47.5156 31.0628 47.3828 31.2945 47.1172C31.5263 46.8516 31.6422 46.4466 31.6422 45.9023C31.6422 45.3893 31.525 45.0013 31.2906 44.7383C31.0589 44.4727 30.7698 44.3398 30.4234 44.3398C30.0719 44.3398 29.7802 44.4714 29.5484 44.7344C29.3167 44.9974 29.2008 45.3945 29.2008 45.9258ZM36.3875 48V44.3984H35.7664V43.8516H36.3875V43.4102C36.3875 43.1315 36.4122 42.9245 36.4617 42.7891C36.5294 42.6068 36.6479 42.4596 36.8172 42.3477C36.9891 42.2331 37.2286 42.1758 37.5359 42.1758C37.7339 42.1758 37.9526 42.1992 38.1922 42.2461L38.0867 42.8594C37.9409 42.8333 37.8029 42.8203 37.6727 42.8203C37.4591 42.8203 37.3081 42.8659 37.2195 42.957C37.131 43.0482 37.0867 43.2188 37.0867 43.4688V43.8516H37.8953V44.3984H37.0867V48H36.3875ZM41.6859 46.6641L42.4125 46.7539C42.2979 47.1784 42.0857 47.5078 41.7758 47.7422C41.4659 47.9766 41.0701 48.0938 40.5883 48.0938C39.9815 48.0938 39.4997 47.9076 39.143 47.5352C38.7888 47.1602 38.6117 46.6354 38.6117 45.9609C38.6117 45.263 38.7914 44.7214 39.1508 44.3359C39.5102 43.9505 39.9763 43.7578 40.5492 43.7578C41.1039 43.7578 41.557 43.9466 41.9086 44.3242C42.2602 44.7018 42.4359 45.2331 42.4359 45.918C42.4359 45.9596 42.4346 46.0221 42.432 46.1055H39.3383C39.3643 46.5612 39.4932 46.9102 39.725 47.1523C39.9568 47.3945 40.2458 47.5156 40.5922 47.5156C40.85 47.5156 41.0701 47.4479 41.2523 47.3125C41.4346 47.1771 41.5792 46.9609 41.6859 46.6641ZM39.3773 45.5273H41.6937C41.6625 45.1784 41.574 44.9167 41.4281 44.7422C41.2042 44.4714 40.9138 44.3359 40.557 44.3359C40.2341 44.3359 39.962 44.444 39.7406 44.6602C39.5219 44.8763 39.4008 45.1654 39.3773 45.5273ZM43.7031 43.082V42.2734H44.4062V43.082H43.7031ZM43.7031 48V43.8516H44.4062V48H43.7031ZM47.4156 47.3711L47.5172 47.9922C47.3193 48.0339 47.1422 48.0547 46.9859 48.0547C46.7307 48.0547 46.5328 48.0143 46.3922 47.9336C46.2516 47.8529 46.1526 47.7474 46.0953 47.6172C46.038 47.4844 46.0094 47.207 46.0094 46.7852V44.3984H45.4938V43.8516H46.0094V42.8242L46.7086 42.4023V43.8516H47.4156V44.3984H46.7086V46.8242C46.7086 47.0247 46.7203 47.1536 46.7438 47.2109C46.7698 47.2682 46.8102 47.3138 46.8648 47.3477C46.9221 47.3815 47.0029 47.3984 47.107 47.3984C47.1852 47.3984 47.288 47.3893 47.4156 47.3711ZM48.2453 45.9258C48.2453 45.1576 48.4589 44.5885 48.8859 44.2188C49.2427 43.9115 49.6776 43.7578 50.1906 43.7578C50.7609 43.7578 51.2271 43.9453 51.5891 44.3203C51.951 44.6927 52.132 45.2083 52.132 45.8672C52.132 46.401 52.0513 46.8216 51.8898 47.1289C51.731 47.4336 51.4979 47.6706 51.1906 47.8398C50.8859 48.0091 50.5526 48.0938 50.1906 48.0938C49.6099 48.0938 49.1398 47.9076 48.7805 47.5352C48.4237 47.1628 48.2453 46.6263 48.2453 45.9258ZM48.968 45.9258C48.968 46.457 49.0839 46.8555 49.3156 47.1211C49.5474 47.3841 49.8391 47.5156 50.1906 47.5156C50.5396 47.5156 50.8299 47.3828 51.0617 47.1172C51.2935 46.8516 51.4094 46.4466 51.4094 45.9023C51.4094 45.3893 51.2922 45.0013 51.0578 44.7383C50.826 44.4727 50.537 44.3398 50.1906 44.3398C49.8391 44.3398 49.5474 44.4714 49.3156 44.7344C49.0839 44.9974 48.968 45.3945 48.968 45.9258ZM55.9867 49.5898V43.8516H56.6273V44.3906C56.7784 44.1797 56.949 44.0221 57.1391 43.918C57.3292 43.8112 57.5596 43.7578 57.8305 43.7578C58.1846 43.7578 58.4971 43.849 58.768 44.0312C59.0388 44.2135 59.2432 44.4714 59.3812 44.8047C59.5193 45.1354 59.5883 45.4987 59.5883 45.8945C59.5883 46.319 59.5115 46.7018 59.3578 47.043C59.2068 47.3815 58.9854 47.6419 58.6937 47.8242C58.4047 48.0039 58.1 48.0938 57.7797 48.0938C57.5453 48.0938 57.3344 48.0443 57.1469 47.9453C56.962 47.8464 56.8096 47.7214 56.6898 47.5703V49.5898H55.9867ZM56.6234 45.9492C56.6234 46.4831 56.7315 46.8776 56.9477 47.1328C57.1638 47.388 57.4255 47.5156 57.7328 47.5156C58.0453 47.5156 58.3122 47.3841 58.5336 47.1211C58.7576 46.8555 58.8695 46.4453 58.8695 45.8906C58.8695 45.362 58.7602 44.9661 58.5414 44.7031C58.3253 44.4401 58.0661 44.3086 57.7641 44.3086C57.4646 44.3086 57.199 44.4492 56.9672 44.7305C56.738 45.0091 56.6234 45.4154 56.6234 45.9492ZM63.5469 47.4883C63.2865 47.7096 63.0352 47.8659 62.793 47.957C62.5534 48.0482 62.2956 48.0938 62.0195 48.0938C61.5638 48.0938 61.2135 47.9831 60.9688 47.7617C60.724 47.5378 60.6016 47.2526 60.6016 46.9062C60.6016 46.7031 60.6471 46.5182 60.7383 46.3516C60.832 46.1823 60.9531 46.0469 61.1016 45.9453C61.2526 45.8438 61.4219 45.7669 61.6094 45.7148C61.7474 45.6784 61.9557 45.6432 62.2344 45.6094C62.8021 45.5417 63.2201 45.4609 63.4883 45.3672C63.4909 45.2708 63.4922 45.2096 63.4922 45.1836C63.4922 44.8971 63.4258 44.6953 63.293 44.5781C63.1133 44.4193 62.8464 44.3398 62.4922 44.3398C62.1615 44.3398 61.9167 44.3984 61.7578 44.5156C61.6016 44.6302 61.4857 44.8346 61.4102 45.1289L60.7227 45.0352C60.7852 44.7409 60.888 44.5039 61.0312 44.3242C61.1745 44.1419 61.3815 44.0026 61.6523 43.9062C61.9232 43.8073 62.237 43.7578 62.5938 43.7578C62.9479 43.7578 63.2357 43.7995 63.457 43.8828C63.6784 43.9661 63.8411 44.0716 63.9453 44.1992C64.0495 44.3242 64.1224 44.4831 64.1641 44.6758C64.1875 44.7956 64.1992 45.0117 64.1992 45.3242V46.2617C64.1992 46.9154 64.2135 47.3294 64.2422 47.5039C64.2734 47.6758 64.3333 47.8411 64.4219 48H63.6875C63.6146 47.8542 63.5677 47.6836 63.5469 47.4883ZM63.4883 45.918C63.2331 46.0221 62.8503 46.1107 62.3398 46.1836C62.0508 46.2253 61.8464 46.2721 61.7266 46.3242C61.6068 46.3763 61.5143 46.4531 61.4492 46.5547C61.3841 46.6536 61.3516 46.7643 61.3516 46.8867C61.3516 47.0742 61.4219 47.2305 61.5625 47.3555C61.7057 47.4805 61.9141 47.543 62.1875 47.543C62.4583 47.543 62.6992 47.4844 62.9102 47.3672C63.1211 47.2474 63.276 47.0846 63.375 46.8789C63.4505 46.7201 63.4883 46.4857 63.4883 46.1758V45.918ZM65.6852 48V43.8516H66.318V44.4805C66.4794 44.1862 66.6279 43.9922 66.7633 43.8984C66.9013 43.8047 67.0523 43.7578 67.2164 43.7578C67.4534 43.7578 67.6943 43.8333 67.9391 43.9844L67.6969 44.6367C67.525 44.5352 67.3531 44.4844 67.1813 44.4844C67.0276 44.4844 66.8896 44.5312 66.7672 44.625C66.6448 44.7161 66.5576 44.8438 66.5055 45.0078C66.4273 45.2578 66.3883 45.5312 66.3883 45.8281V48H65.6852ZM71.4641 47.4883C71.2036 47.7096 70.9523 47.8659 70.7102 47.957C70.4706 48.0482 70.2128 48.0938 69.9367 48.0938C69.481 48.0938 69.1307 47.9831 68.8859 47.7617C68.6411 47.5378 68.5188 47.2526 68.5188 46.9062C68.5188 46.7031 68.5643 46.5182 68.6555 46.3516C68.7492 46.1823 68.8703 46.0469 69.0188 45.9453C69.1698 45.8438 69.3391 45.7669 69.5266 45.7148C69.6646 45.6784 69.8729 45.6432 70.1516 45.6094C70.7193 45.5417 71.1372 45.4609 71.4055 45.3672C71.4081 45.2708 71.4094 45.2096 71.4094 45.1836C71.4094 44.8971 71.343 44.6953 71.2102 44.5781C71.0305 44.4193 70.7635 44.3398 70.4094 44.3398C70.0786 44.3398 69.8339 44.3984 69.675 44.5156C69.5188 44.6302 69.4029 44.8346 69.3273 45.1289L68.6398 45.0352C68.7023 44.7409 68.8052 44.5039 68.9484 44.3242C69.0917 44.1419 69.2987 44.0026 69.5695 43.9062C69.8404 43.8073 70.1542 43.7578 70.5109 43.7578C70.8651 43.7578 71.1529 43.7995 71.3742 43.8828C71.5956 43.9661 71.7583 44.0716 71.8625 44.1992C71.9667 44.3242 72.0396 44.4831 72.0813 44.6758C72.1047 44.7956 72.1164 45.0117 72.1164 45.3242V46.2617C72.1164 46.9154 72.1307 47.3294 72.1594 47.5039C72.1906 47.6758 72.2505 47.8411 72.3391 48H71.6047C71.5318 47.8542 71.4849 47.6836 71.4641 47.4883ZM71.4055 45.918C71.1503 46.0221 70.7675 46.1107 70.257 46.1836C69.968 46.2253 69.7635 46.2721 69.6438 46.3242C69.524 46.3763 69.4315 46.4531 69.3664 46.5547C69.3013 46.6536 69.2688 46.7643 69.2688 46.8867C69.2688 47.0742 69.3391 47.2305 69.4797 47.3555C69.6229 47.4805 69.8313 47.543 70.1047 47.543C70.3755 47.543 70.6164 47.4844 70.8273 47.3672C71.0383 47.2474 71.1932 47.0846 71.2922 46.8789C71.3677 46.7201 71.4055 46.4857 71.4055 46.1758V45.918ZM77.3891 48L75.8109 43.8516H76.5531L77.4437 46.3359C77.5401 46.6042 77.6286 46.8828 77.7094 47.1719C77.7719 46.9531 77.8591 46.6901 77.9711 46.3828L78.893 43.8516H79.6156L78.0453 48H77.3891ZM80.375 45.9258C80.375 45.1576 80.5885 44.5885 81.0156 44.2188C81.3724 43.9115 81.8073 43.7578 82.3203 43.7578C82.8906 43.7578 83.3568 43.9453 83.7188 44.3203C84.0807 44.6927 84.2617 45.2083 84.2617 45.8672C84.2617 46.401 84.181 46.8216 84.0195 47.1289C83.8607 47.4336 83.6276 47.6706 83.3203 47.8398C83.0156 48.0091 82.6823 48.0938 82.3203 48.0938C81.7396 48.0938 81.2695 47.9076 80.9102 47.5352C80.5534 47.1628 80.375 46.6263 80.375 45.9258ZM81.0977 45.9258C81.0977 46.457 81.2135 46.8555 81.4453 47.1211C81.6771 47.3841 81.9688 47.5156 82.3203 47.5156C82.6693 47.5156 82.9596 47.3828 83.1914 47.1172C83.4232 46.8516 83.5391 46.4466 83.5391 45.9023C83.5391 45.3893 83.4219 45.0013 83.1875 44.7383C82.9557 44.4727 82.6667 44.3398 82.3203 44.3398C81.9688 44.3398 81.6771 44.4714 81.4453 44.7344C81.2135 44.9974 81.0977 45.3945 81.0977 45.9258ZM88.1969 46.4805L88.8883 46.5703C88.8128 47.0469 88.6188 47.4206 88.3063 47.6914C87.9964 47.9596 87.6148 48.0938 87.1617 48.0938C86.594 48.0938 86.137 47.9089 85.7906 47.5391C85.4469 47.1667 85.275 46.6341 85.275 45.9414C85.275 45.4935 85.3492 45.1016 85.4977 44.7656C85.6461 44.4297 85.8714 44.1784 86.1734 44.0117C86.4781 43.8424 86.8089 43.7578 87.1656 43.7578C87.6161 43.7578 87.9846 43.8724 88.2711 44.1016C88.5576 44.3281 88.7411 44.651 88.8219 45.0703L88.1383 45.1758C88.0732 44.8971 87.9573 44.6875 87.7906 44.5469C87.6266 44.4062 87.4273 44.3359 87.193 44.3359C86.8388 44.3359 86.551 44.4635 86.3297 44.7188C86.1083 44.9714 85.9977 45.3724 85.9977 45.9219C85.9977 46.4792 86.1044 46.8841 86.318 47.1367C86.5315 47.3893 86.8102 47.5156 87.1539 47.5156C87.4299 47.5156 87.6604 47.431 87.8453 47.2617C88.0302 47.0924 88.1474 46.832 88.1969 46.4805ZM92.7297 46.6641L93.4563 46.7539C93.3417 47.1784 93.1294 47.5078 92.8195 47.7422C92.5096 47.9766 92.1138 48.0938 91.632 48.0938C91.0253 48.0938 90.5435 47.9076 90.1867 47.5352C89.8326 47.1602 89.6555 46.6354 89.6555 45.9609C89.6555 45.263 89.8352 44.7214 90.1945 44.3359C90.5539 43.9505 91.0201 43.7578 91.593 43.7578C92.1477 43.7578 92.6008 43.9466 92.9523 44.3242C93.3039 44.7018 93.4797 45.2331 93.4797 45.918C93.4797 45.9596 93.4784 46.0221 93.4758 46.1055H90.382C90.4081 46.5612 90.537 46.9102 90.7688 47.1523C91.0005 47.3945 91.2896 47.5156 91.6359 47.5156C91.8938 47.5156 92.1138 47.4479 92.2961 47.3125C92.4784 47.1771 92.6229 46.9609 92.7297 46.6641ZM90.4211 45.5273H92.7375C92.7063 45.1784 92.6177 44.9167 92.4719 44.7422C92.2479 44.4714 91.9576 44.3359 91.6008 44.3359C91.2779 44.3359 91.0057 44.444 90.7844 44.6602C90.5656 44.8763 90.4445 45.1654 90.4211 45.5273ZM91.5773 42.6719L91.1359 43.3359H90.3313L91.175 42.2422H91.925L92.8039 43.3359H92.007L91.5773 42.6719Z" fill="#3F98E1"/>
</svg>
