<svg width="45" height="45" viewBox="0 0 45 45" fill="none" xmlns="http://www.w3.org/2000/svg">
<rect x="0.5" y="0.5" width="44" height="44" rx="7.5" stroke="#172D52"/>
<path d="M34 22.5001C34 16.1488 28.8513 11.0001 22.5 11.0001C16.1487 11.0001 11 16.1488 11 22.5001C11 28.24 15.2054 32.9976 20.7031 33.8604V25.8243H17.7832V22.5001H20.7031V19.9665C20.7031 17.0843 22.42 15.4922 25.0468 15.4922C26.305 15.4922 27.6211 15.7169 27.6211 15.7169V18.5469H26.171C24.7424 18.5469 24.2969 19.4334 24.2969 20.3428V22.5001H27.4863L26.9765 25.8243H24.2969V33.8604C29.7946 32.9976 34 28.24 34 22.5001Z" fill="#172D52"/>
</svg>
