<svg width="45" height="45" viewBox="0 0 45 45" fill="none" xmlns="http://www.w3.org/2000/svg">
<rect x="0.5" y="0.5" width="44" height="44" rx="7.5" stroke="#172D52"/>
<path fill-rule="evenodd" clip-rule="evenodd" d="M22.5 11C19.3766 11 18.9856 11.013 17.7589 11.069C16.5346 11.125 15.6981 11.3197 14.9667 11.6041C14.2001 11.8924 13.5047 12.3447 12.9297 12.9305C12.3449 13.5048 11.8923 14.1997 11.6034 14.9667C11.3205 15.6981 11.125 16.5353 11.069 17.7597C11.0138 18.9856 11 19.3758 11 22.5C11 25.6242 11.013 26.0144 11.069 27.2411C11.125 28.4654 11.3197 29.3019 11.6041 30.0333C11.8924 30.7999 12.3447 31.4953 12.9305 32.0703C13.5048 32.6551 14.1997 33.1077 14.9667 33.3966C15.6981 33.6803 16.5346 33.875 17.7589 33.931C18.9856 33.987 19.3766 34 22.5 34C25.6234 34 26.0144 33.987 27.2411 33.931C28.4654 33.875 29.3019 33.6803 30.0333 33.3959C30.7999 33.1076 31.4953 32.6553 32.0703 32.0695C32.6551 31.4952 33.1077 30.8003 33.3966 30.0333C33.6803 29.3019 33.875 28.4654 33.931 27.2411C33.987 26.0144 34 25.6234 34 22.5C34 19.3766 33.987 18.9856 33.931 17.7589C33.875 16.5346 33.6803 15.6981 33.3959 14.9667C33.1072 14.1993 32.6545 13.5042 32.0695 12.9297C31.4952 12.3449 30.8003 11.8923 30.0333 11.6034C29.3019 11.3205 28.4647 11.125 27.2403 11.069C26.0144 11.0138 25.6242 11 22.5 11ZM22.5 13.0723C25.5705 13.0723 25.9347 13.0838 27.1475 13.139C28.2684 13.1904 28.8771 13.3767 29.2827 13.5354C29.8194 13.7431 30.2027 13.9931 30.6052 14.3948C31.0077 14.7973 31.2569 15.1806 31.4646 15.7173C31.6226 16.1229 31.8096 16.7316 31.861 17.8525C31.9162 19.0653 31.9277 19.4295 31.9277 22.5C31.9277 25.5705 31.9162 25.9347 31.861 27.1475C31.8096 28.2684 31.6233 28.8771 31.4646 29.2827C31.2806 29.7822 30.9869 30.2341 30.6052 30.6052C30.2342 30.987 29.7823 31.2807 29.2827 31.4646C28.8771 31.6226 28.2684 31.8096 27.1475 31.861C25.9347 31.9162 25.5713 31.9277 22.5 31.9277C19.4287 31.9277 19.0653 31.9162 17.8525 31.861C16.7316 31.8096 16.1229 31.6233 15.7173 31.4646C15.2178 31.2806 14.7659 30.9869 14.3948 30.6052C14.0131 30.2341 13.7195 29.7822 13.5354 29.2827C13.3774 28.8771 13.1904 28.2684 13.139 27.1475C13.0838 25.9347 13.0723 25.5705 13.0723 22.5C13.0723 19.4295 13.0838 19.0653 13.139 17.8525C13.1904 16.7316 13.3767 16.1229 13.5354 15.7173C13.7431 15.1806 13.9931 14.7973 14.3948 14.3948C14.7658 14.013 15.2177 13.7193 15.7173 13.5354C16.1229 13.3774 16.7316 13.1904 17.8525 13.139C19.0653 13.0838 19.4295 13.0723 22.5 13.0723Z" fill="#172D52"/>
<path fill-rule="evenodd" clip-rule="evenodd" d="M22.5 26.3372C21.9961 26.3372 21.4971 26.2379 21.0316 26.0451C20.5661 25.8522 20.143 25.5696 19.7867 25.2133C19.4304 24.857 19.1478 24.434 18.9549 23.9684C18.7621 23.5029 18.6629 23.0039 18.6629 22.5C18.6629 21.9961 18.7621 21.4971 18.9549 21.0316C19.1478 20.566 19.4304 20.143 19.7867 19.7867C20.143 19.4304 20.5661 19.1478 21.0316 18.9549C21.4971 18.7621 21.9961 18.6628 22.5 18.6628C23.5177 18.6628 24.4937 19.0671 25.2133 19.7867C25.9329 20.5063 26.3372 21.4823 26.3372 22.5C26.3372 23.5177 25.9329 24.4937 25.2133 25.2133C24.4937 25.9329 23.5177 26.3372 22.5 26.3372ZM22.5 16.589C20.9323 16.589 19.4288 17.2118 18.3203 18.3203C17.2118 19.4288 16.589 20.9323 16.589 22.5C16.589 24.0677 17.2118 25.5712 18.3203 26.6797C19.4288 27.7882 20.9323 28.411 22.5 28.411C24.0677 28.411 25.5712 27.7882 26.6797 26.6797C27.7883 25.5712 28.411 24.0677 28.411 22.5C28.411 20.9323 27.7883 19.4288 26.6797 18.3203C25.5712 17.2118 24.0677 16.589 22.5 16.589ZM30.1307 16.4817C30.1307 16.8522 29.9834 17.2076 29.7214 17.4697C29.4594 17.7317 29.104 17.8789 28.7334 17.8789C28.3628 17.8789 28.0074 17.7317 27.7454 17.4697C27.4834 17.2076 27.3362 16.8522 27.3362 16.4817C27.3362 16.1111 27.4834 15.7557 27.7454 15.4937C28.0074 15.2316 28.3628 15.0844 28.7334 15.0844C29.104 15.0844 29.4594 15.2316 29.7214 15.4937C29.9834 15.7557 30.1307 16.1111 30.1307 16.4817Z" fill="#172D52"/>
</svg>
