<svg width="45" height="45" viewBox="0 0 45 45" fill="none" xmlns="http://www.w3.org/2000/svg">
<path d="M34 15.2133C33.1542 15.5881 32.2456 15.8413 31.2904 15.9558C32.2648 15.3723 33.0124 14.4465 33.3649 13.3444C32.4532 13.8853 31.4433 14.2783 30.3686 14.489C29.5076 13.5733 28.2819 13 26.9246 13C24.3193 13 22.2062 15.113 22.2062 17.7203C22.2062 18.0891 22.2488 18.4476 22.3278 18.7941C18.4047 18.5965 14.9292 16.7175 12.6015 13.863C12.1963 14.562 11.9633 15.3723 11.9633 16.2354C11.9633 17.8723 12.797 19.3178 14.0621 20.1636C13.2882 20.1382 12.561 19.9265 11.9248 19.573V19.6338C11.9248 21.92 13.5506 23.8274 15.7102 24.2609C15.3131 24.3683 14.8968 24.425 14.4673 24.425C14.1634 24.425 13.8666 24.3967 13.579 24.342C14.1796 26.2159 15.9219 27.5814 17.9873 27.6179C16.3717 28.884 14.3367 29.6387 12.1264 29.6387C11.7455 29.6387 11.3697 29.6164 11 29.5728C13.0887 30.913 15.5684 31.6929 18.2324 31.6929C26.9134 31.6929 31.6591 24.503 31.6591 18.2673C31.6591 18.0647 31.654 17.8601 31.6449 17.6575C32.5667 16.991 33.3669 16.1614 33.998 15.2163L34 15.2133Z" fill="#172D52"/>
<rect x="0.5" y="0.5" width="44" height="44" rx="7.5" stroke="#172D52"/>
</svg>
