<svg width="45" height="45" viewBox="0 0 45 45" fill="none" xmlns="http://www.w3.org/2000/svg">
<rect x="0.5" y="0.5" width="44" height="44" rx="7.5" stroke="#172D52"/>
<path fill-rule="evenodd" clip-rule="evenodd" d="M31.4856 15.448C32.4758 15.695 33.2541 16.4199 33.5191 17.3424C33.9981 19.0128 34 22.5 34 22.5C34 22.5 34 25.9872 33.5191 27.6576C33.2541 28.5801 32.4758 29.305 31.4856 29.5519C29.6927 30 22.5 30 22.5 30C22.5 30 15.3073 30 13.5143 29.5519C12.5241 29.305 11.746 28.5801 11.4809 27.6576C11 25.9872 11 22.5 11 22.5C11 22.5 11 19.0128 11.4809 17.3424C11.746 16.4199 12.5241 15.695 13.5143 15.448C15.3073 15 22.5 15 22.5 15C22.5 15 29.6927 15 31.4856 15.448ZM26.1731 22.5003L20.1978 25.7141V19.2865L26.1731 22.5003Z" fill="#172D52"/>
</svg>
