<svg width="35" height="35" viewBox="0 0 35 35" fill="none" xmlns="http://www.w3.org/2000/svg">
<circle cx="17.5" cy="17.5" r="17.5" fill="#18315B"/>
<path fill-rule="evenodd" clip-rule="evenodd" d="M25.8136 11.4182C26.6746 11.6487 27.3513 12.3253 27.5818 13.1864C27.9983 14.7455 28 18.0003 28 18.0003C28 18.0003 28 21.2552 27.5818 22.8143C27.3513 23.6754 26.6746 24.352 25.8136 24.5825C24.2545 25.0007 18 25.0007 18 25.0007C18 25.0007 11.7455 25.0007 10.1864 24.5825C9.32532 24.352 8.64867 23.6754 8.41818 22.8143C8 21.2552 8 18.0003 8 18.0003C8 18.0003 8 14.7455 8.41818 13.1864C8.64867 12.3253 9.32532 11.6487 10.1864 11.4182C11.7455 11 18 11 18 11C18 11 24.2545 11 25.8136 11.4182ZM21.194 18.0006L15.9981 21.0002V15.0009L21.194 18.0006Z" fill="#F6FAFF"/>
</svg>
