<svg width="30" height="30" viewBox="0 0 30 30" fill="none" xmlns="http://www.w3.org/2000/svg">
<circle cx="15" cy="15" r="15" fill="#18315B"/>
<path d="M21.9818 9H8.01818C7.74814 9 7.48916 9.10727 7.29822 9.29822C7.10727 9.48916 7 9.74814 7 10.0182V19.3273C7 19.5973 7.10727 19.8563 7.29822 20.0472C7.48916 20.2382 7.74814 20.3455 8.01818 20.3455H21.9818C22.2519 20.3455 22.5108 20.2382 22.7018 20.0472C22.8927 19.8563 23 19.5973 23 19.3273V10.0182C23 9.74814 22.8927 9.48916 22.7018 9.29822C22.5108 9.10727 22.2519 9 21.9818 9ZM8.01818 9.87273H21.9818C22.0204 9.87273 22.0574 9.88805 22.0847 9.91533C22.1119 9.94261 22.1273 9.9796 22.1273 10.0182V11.9091H7.87273V10.0182C7.87273 9.9796 7.88805 9.94261 7.91533 9.91533C7.94261 9.88805 7.9796 9.87273 8.01818 9.87273ZM21.9818 19.4727H8.01818C7.9796 19.4727 7.94261 19.4574 7.91533 19.4301C7.88805 19.4028 7.87273 19.3658 7.87273 19.3273V12.7818H22.1273V19.3273C22.1273 19.3658 22.1119 19.4028 22.0847 19.4301C22.0574 19.4574 22.0204 19.4727 21.9818 19.4727ZM20.6727 17.5818C20.6727 17.6975 20.6268 17.8085 20.5449 17.8904C20.4631 17.9722 20.3521 18.0182 20.2364 18.0182H17.9091C17.7934 18.0182 17.6824 17.9722 17.6005 17.8904C17.5187 17.8085 17.4727 17.6975 17.4727 17.5818C17.4727 17.4661 17.5187 17.3551 17.6005 17.2733C17.6824 17.1914 17.7934 17.1455 17.9091 17.1455H20.2364C20.3521 17.1455 20.4631 17.1914 20.5449 17.2733C20.6268 17.3551 20.6727 17.4661 20.6727 17.5818ZM16.0182 17.5818C16.0182 17.6975 15.9722 17.8085 15.8904 17.8904C15.8085 17.9722 15.6975 18.0182 15.5818 18.0182H14.4182C14.3025 18.0182 14.1915 17.9722 14.1096 17.8904C14.0278 17.8085 13.9818 17.6975 13.9818 17.5818C13.9818 17.4661 14.0278 17.3551 14.1096 17.2733C14.1915 17.1914 14.3025 17.1455 14.4182 17.1455H15.5818C15.6975 17.1455 15.8085 17.1914 15.8904 17.2733C15.9722 17.3551 16.0182 17.4661 16.0182 17.5818Z" fill="white"/>
</svg>
