<svg width="30" height="30" viewBox="0 0 30 30" fill="none" xmlns="http://www.w3.org/2000/svg">
<circle cx="15" cy="15" r="15" fill="#18315B"/>
<path d="M11.2105 16.8105V11.2105C11.2105 10.9719 11.2914 10.7718 11.4531 10.6101C11.6147 10.4484 11.8146 10.3679 12.0526 10.3684H12.8947C13.1333 10.3684 13.3335 10.4493 13.4952 10.6109C13.6568 10.7726 13.7374 10.9725 13.7368 11.2105V16.8105L13.6316 16.7053C13.3088 16.3965 12.9228 16.2421 12.4737 16.2421C12.0246 16.2421 11.6386 16.3965 11.3158 16.7053L11.2105 16.8105ZM15.4211 18.0737V7.84211C15.4211 7.60351 15.5019 7.40337 15.6636 7.24169C15.8253 7.08 16.0251 6.99944 16.2632 7H17.1053C17.3439 7 17.544 7.08085 17.7057 7.24253C17.8674 7.40421 17.9479 7.60407 17.9474 7.84211V15.5474L15.4211 18.0737ZM7 20.9789V14.5789C7 14.3404 7.08084 14.1402 7.24253 13.9785C7.40421 13.8168 7.60407 13.7363 7.84211 13.7368H8.68421C8.92281 13.7368 9.12295 13.8177 9.28463 13.9794C9.44632 14.1411 9.52688 14.3409 9.52632 14.5789V18.4526L7 20.9789ZM9.02105 23.0421C8.65614 23.0421 8.39986 22.87 8.25221 22.5259C8.10456 22.1818 8.16435 21.8766 8.43158 21.6105L11.8842 18.1579C12.0386 18.0035 12.2247 17.9193 12.4425 17.9053C12.6603 17.8912 12.8532 17.9614 13.0211 18.1158L15.4211 20.1789L20.1368 15.4632H19.6316C19.393 15.4632 19.1928 15.3823 19.0312 15.2206C18.8695 15.0589 18.7889 14.8591 18.7895 14.6211C18.7895 14.3825 18.8703 14.1823 19.032 14.0206C19.1937 13.8589 19.3935 13.7784 19.6316 13.7789H22.1579C22.3965 13.7789 22.5966 13.8598 22.7583 14.0215C22.92 14.1832 23.0006 14.383 23 14.6211V17.1474C23 17.386 22.9192 17.5861 22.7575 17.7478C22.5958 17.9095 22.3959 17.99 22.1579 17.9895C21.9193 17.9895 21.7192 17.9086 21.5575 17.7469C21.3958 17.5853 21.3152 17.3854 21.3158 17.1474V16.6421L16.0526 21.9053C15.8982 22.0596 15.7121 22.1439 15.4943 22.1579C15.2765 22.1719 15.0836 22.1018 14.9158 21.9474L12.5158 19.8842L9.61053 22.7895C9.54035 22.8596 9.45277 22.9194 9.34779 22.9688C9.24281 23.0182 9.13389 23.0427 9.02105 23.0421Z" fill="white"/>
</svg>
