<svg width="30" height="30" viewBox="0 0 30 30" fill="none" xmlns="http://www.w3.org/2000/svg">
<circle cx="15" cy="15" r="15" fill="#18315B"/>
<path d="M18 13C18 13.7956 17.6839 14.5587 17.1213 15.1213C16.5587 15.6839 15.7956 16 15 16C14.2044 16 13.4413 15.6839 12.8787 15.1213C12.3161 14.5587 12 13.7956 12 13C12 12.2044 12.3161 11.4413 12.8787 10.8787C13.4413 10.3161 14.2044 10 15 10C15.7956 10 16.5587 10.3161 17.1213 10.8787C17.6839 11.4413 18 12.2044 18 13Z" fill="white"/>
<path fill-rule="evenodd" clip-rule="evenodd" d="M7 15C7 12.8783 7.84285 10.8434 9.34315 9.34315C10.8434 7.84285 12.8783 7 15 7C17.1217 7 19.1566 7.84285 20.6569 9.34315C22.1571 10.8434 23 12.8783 23 15C23 17.1217 22.1571 19.1566 20.6569 20.6569C19.1566 22.1571 17.1217 23 15 23C12.8783 23 10.8434 22.1571 9.34315 20.6569C7.84285 19.1566 7 17.1217 7 15ZM15 8C13.6818 8.00007 12.3904 8.37236 11.2744 9.07403C10.1584 9.77569 9.26328 10.7782 8.69196 11.9662C8.12065 13.1542 7.89639 14.4793 8.045 15.7892C8.19361 17.099 8.70905 18.3402 9.532 19.37C10.242 18.226 11.805 17 15 17C18.195 17 19.757 18.225 20.468 19.37C21.2909 18.3402 21.8064 17.099 21.955 15.7892C22.1036 14.4793 21.8794 13.1542 21.308 11.9662C20.7367 10.7782 19.8416 9.77569 18.7256 9.07403C17.6096 8.37236 16.3182 8.00007 15 8Z" fill="white"/>
</svg>
