<svg width="30" height="30" viewBox="0 0 30 30" fill="none" xmlns="http://www.w3.org/2000/svg">
<circle cx="15" cy="15" r="15" fill="#18315B"/>
<path d="M15 23C10.5816 23 7 19.4184 7 15C7 10.5816 10.5816 7 15 7C19.4184 7 23 10.5816 23 15C23 19.4184 19.4184 23 15 23ZM15 21.4C16.6974 21.4 18.3253 20.7257 19.5255 19.5255C20.7257 18.3253 21.4 16.6974 21.4 15C21.4 13.3026 20.7257 11.6747 19.5255 10.4745C18.3253 9.27428 16.6974 8.6 15 8.6C13.3026 8.6 11.6747 9.27428 10.4745 10.4745C9.27428 11.6747 8.6 13.3026 8.6 15C8.6 16.6974 9.27428 18.3253 10.4745 19.5255C11.6747 20.7257 13.3026 21.4 15 21.4ZM12.2 16.6H16.6C16.7061 16.6 16.8078 16.5579 16.8828 16.4828C16.9579 16.4078 17 16.3061 17 16.2C17 16.0939 16.9579 15.9922 16.8828 15.9172C16.8078 15.8421 16.7061 15.8 16.6 15.8H13.4C12.8696 15.8 12.3609 15.5893 11.9858 15.2142C11.6107 14.8391 11.4 14.3304 11.4 13.8C11.4 13.2696 11.6107 12.7609 11.9858 12.3858C12.3609 12.0107 12.8696 11.8 13.4 11.8H14.2V10.2H15.8V11.8H17.8V13.4H13.4C13.2939 13.4 13.1922 13.4421 13.1172 13.5172C13.0421 13.5922 13 13.6939 13 13.8C13 13.9061 13.0421 14.0078 13.1172 14.0828C13.1922 14.1579 13.2939 14.2 13.4 14.2H16.6C17.1304 14.2 17.6391 14.4107 18.0142 14.7858C18.3893 15.1609 18.6 15.6696 18.6 16.2C18.6 16.7304 18.3893 17.2391 18.0142 17.6142C17.6391 17.9893 17.1304 18.2 16.6 18.2H15.8V19.8H14.2V18.2H12.2V16.6Z" fill="white"/>
<rect x="10.8132" y="9.4" width="14.4" height="1.6" transform="rotate(50.0411 10.8132 9.4)" fill="white"/>
</svg>
