<svg width="171" height="30" viewBox="0 0 171 30" fill="none" xmlns="http://www.w3.org/2000/svg">
<path d="M7.90681 3.74876C9.19136 5.00323 9.21419 6.60558 7.9659 7.89649C6.71761 9.1874 5.12316 9.21034 3.83861 7.95587C2.46015 6.6097 2.05745 3.28438 1.9664 2.29623C1.96319 2.2611 1.96758 2.22568 1.97928 2.19242C1.99098 2.15915 2.00971 2.12883 2.03417 2.10353C2.05864 2.07822 2.08827 2.05854 2.12102 2.04584C2.15377 2.03314 2.18887 2.02771 2.22391 2.02993C3.20926 2.09325 6.52836 2.40259 7.90681 3.74876Z" stroke="#172F56" stroke-miterlimit="10"/>
<path d="M7.23214 4.68028C7.50971 4.95135 7.66877 5.32214 7.67431 5.71106C7.67985 6.09999 7.53142 6.47519 7.26168 6.75414" stroke="#172F56" stroke-linecap="round" stroke-linejoin="round"/>
<path d="M7.90681 13.3372C9.19136 14.5917 9.21419 16.194 7.9659 17.4849C6.71761 18.7758 5.12316 18.7988 3.83861 17.5443C2.46015 16.1981 2.05745 12.8728 1.9664 11.8847C1.96319 11.8495 1.96758 11.8141 1.97928 11.7809C1.99098 11.7476 2.00971 11.7173 2.03417 11.692C2.05864 11.6667 2.08827 11.647 2.12102 11.6343C2.15377 11.6216 2.18887 11.6161 2.22391 11.6184C3.20926 11.6817 6.52836 11.991 7.90681 13.3372Z" stroke="#172F56" stroke-miterlimit="10"/>
<path d="M7.23214 14.2686C7.50971 14.5397 7.66877 14.9105 7.67431 15.2994C7.67985 15.6883 7.53142 16.0635 7.26168 16.3425" stroke="#172F56" stroke-linecap="round" stroke-linejoin="round"/>
<path d="M7.90681 22.9257C9.19136 24.1802 9.21419 25.7825 7.9659 27.0734C6.71761 28.3643 5.12316 28.3873 3.83861 27.1328C2.46015 25.7866 2.05745 22.4613 1.9664 21.4732C1.96319 21.438 1.96758 21.4026 1.97928 21.3694C1.99098 21.3361 2.00971 21.3058 2.03417 21.2805C2.05864 21.2552 2.08827 21.2355 2.12102 21.2228C2.15377 21.2101 2.18887 21.2046 2.22391 21.2069C3.20926 21.2702 6.52836 21.5795 7.90681 22.9257Z" stroke="#172F56" stroke-miterlimit="10"/>
<path d="M7.23214 23.8571C7.50971 24.1282 7.66877 24.499 7.67431 24.8879C7.67985 25.2768 7.53142 25.652 7.26168 25.931" stroke="#172F56" stroke-linecap="round" stroke-linejoin="round"/>
<path d="M17.9068 3.74876C19.1914 5.00323 19.2142 6.60558 17.9659 7.89649C16.7176 9.1874 15.1232 9.21034 13.8386 7.95587C12.4602 6.6097 12.0574 3.28438 11.9664 2.29623C11.9632 2.2611 11.9676 2.22568 11.9793 2.19242C11.991 2.15915 12.0097 2.12883 12.0342 2.10353C12.0586 2.07822 12.0883 2.05854 12.121 2.04584C12.1538 2.03314 12.1889 2.02771 12.2239 2.02993C13.2093 2.09325 16.5284 2.40259 17.9068 3.74876Z" stroke="#172F56" stroke-miterlimit="10"/>
<path d="M17.2321 4.68028C17.5097 4.95135 17.6688 5.32214 17.6743 5.71106C17.6798 6.09999 17.5314 6.47519 17.2617 6.75414" stroke="#172F56" stroke-linecap="round" stroke-linejoin="round"/>
<path d="M17.9068 13.3372C19.1914 14.5917 19.2142 16.194 17.9659 17.4849C16.7176 18.7758 15.1232 18.7988 13.8386 17.5443C12.4602 16.1981 12.0574 12.8728 11.9664 11.8847C11.9632 11.8495 11.9676 11.8141 11.9793 11.7809C11.991 11.7476 12.0097 11.7173 12.0342 11.692C12.0586 11.6667 12.0883 11.647 12.121 11.6343C12.1538 11.6216 12.1889 11.6161 12.2239 11.6184C13.2093 11.6817 16.5284 11.991 17.9068 13.3372Z" stroke="#172F56" stroke-miterlimit="10"/>
<path d="M17.2321 14.2686C17.5097 14.5397 17.6688 14.9105 17.6743 15.2994C17.6798 15.6883 17.5314 16.0635 17.2617 16.3425" stroke="#172F56" stroke-linecap="round" stroke-linejoin="round"/>
<path d="M17.9068 22.9257C19.1914 24.1802 19.2142 25.7825 17.9659 27.0734C16.7176 28.3643 15.1232 28.3873 13.8386 27.1328C12.4602 25.7866 12.0574 22.4613 11.9664 21.4732C11.9632 21.438 11.9676 21.4026 11.9793 21.3694C11.991 21.3361 12.0097 21.3058 12.0342 21.2805C12.0586 21.2552 12.0883 21.2355 12.121 21.2228C12.1538 21.2101 12.1889 21.2046 12.2239 21.2069C13.2093 21.2702 16.5284 21.5795 17.9068 22.9257Z" stroke="#172F56" stroke-miterlimit="10"/>
<path d="M17.2321 23.8571C17.5097 24.1282 17.6688 24.499 17.6743 24.8879C17.6798 25.2768 17.5314 25.652 17.2617 25.931" stroke="#172F56" stroke-linecap="round" stroke-linejoin="round"/>
<path d="M27.9068 3.74876C29.1914 5.00323 29.2142 6.60558 27.9659 7.89649C26.7176 9.1874 25.1232 9.21034 23.8386 7.95587C22.4602 6.6097 22.0574 3.28438 21.9664 2.29623C21.9632 2.2611 21.9676 2.22568 21.9793 2.19242C21.991 2.15915 22.0097 2.12883 22.0342 2.10353C22.0586 2.07822 22.0883 2.05854 22.121 2.04584C22.1538 2.03314 22.1889 2.02771 22.2239 2.02993C23.2093 2.09325 26.5284 2.40259 27.9068 3.74876Z" stroke="#172F56" stroke-miterlimit="10"/>
<path d="M27.2321 4.68028C27.5097 4.95135 27.6688 5.32214 27.6743 5.71106C27.6798 6.09999 27.5314 6.47519 27.2617 6.75414" stroke="#172F56" stroke-linecap="round" stroke-linejoin="round"/>
<path d="M27.9068 13.3372C29.1914 14.5917 29.2142 16.194 27.9659 17.4849C26.7176 18.7758 25.1232 18.7988 23.8386 17.5443C22.4602 16.1981 22.0574 12.8728 21.9664 11.8847C21.9632 11.8495 21.9676 11.8141 21.9793 11.7809C21.991 11.7476 22.0097 11.7173 22.0342 11.692C22.0586 11.6667 22.0883 11.647 22.121 11.6343C22.1538 11.6216 22.1889 11.6161 22.2239 11.6184C23.2093 11.6817 26.5284 11.991 27.9068 13.3372Z" stroke="#172F56" stroke-miterlimit="10"/>
<path d="M27.2321 14.2687C27.5097 14.5398 27.6688 14.9106 27.6743 15.2995C27.6798 15.6884 27.5314 16.0636 27.2617 16.3426" stroke="#172F56" stroke-linecap="round" stroke-linejoin="round"/>
<path d="M27.9068 22.9257C29.1914 24.1802 29.2142 25.7825 27.9659 27.0734C26.7176 28.3643 25.1232 28.3873 23.8386 27.1328C22.4602 25.7866 22.0574 22.4613 21.9664 21.4732C21.9632 21.438 21.9676 21.4026 21.9793 21.3694C21.991 21.3361 22.0097 21.3058 22.0342 21.2805C22.0586 21.2552 22.0883 21.2355 22.121 21.2228C22.1538 21.2101 22.1889 21.2046 22.2239 21.2069C23.2093 21.2702 26.5284 21.5795 27.9068 22.9257Z" stroke="#172F56" stroke-miterlimit="10"/>
<path d="M27.2321 23.8572C27.5097 24.1283 27.6688 24.4991 27.6743 24.888C27.6798 25.2769 27.5314 25.6521 27.2617 25.9311" stroke="#172F56" stroke-linecap="round" stroke-linejoin="round"/>
<path d="M56.1308 8.18C57.0241 8.18 57.8508 8.32667 58.6108 8.62C59.3708 8.91333 60.0241 9.34 60.5708 9.9C61.1174 10.4467 61.5441 11.1267 61.8508 11.94C62.1708 12.7533 62.3308 13.68 62.3308 14.72C62.3308 15.7333 62.1708 16.64 61.8508 17.44C61.5308 18.24 61.0908 18.92 60.5308 19.48C59.9708 20.04 59.3041 20.4733 58.5308 20.78C57.7708 21.0733 56.9441 21.22 56.0508 21.22C55.1574 21.22 54.3308 21.08 53.5708 20.8C52.8108 20.5067 52.1574 20.0867 51.6108 19.54C51.0641 18.98 50.6308 18.3 50.3108 17.5C50.0041 16.6867 49.8508 15.76 49.8508 14.72C49.8508 13.7067 50.0108 12.8 50.3308 12C50.6508 11.1867 51.0908 10.5 51.6508 9.94C52.2108 9.36667 52.8708 8.93333 53.6308 8.64C54.4041 8.33333 55.2374 8.18 56.1308 8.18ZM52.7508 14.72C52.7508 15.4667 52.8374 16.12 53.0108 16.68C53.1974 17.2267 53.4441 17.6867 53.7508 18.06C54.0574 18.42 54.4108 18.6933 54.8108 18.88C55.2241 19.0533 55.6641 19.14 56.1308 19.14C56.5841 19.14 57.0108 19.0533 57.4108 18.88C57.8241 18.6933 58.1774 18.42 58.4708 18.06C58.7641 17.6867 58.9974 17.2267 59.1708 16.68C59.3441 16.12 59.4308 15.4667 59.4308 14.72C59.4308 13.9467 59.3374 13.28 59.1508 12.72C58.9774 12.16 58.7374 11.7 58.4308 11.34C58.1241 10.9667 57.7641 10.6933 57.3508 10.52C56.9508 10.3467 56.5174 10.26 56.0508 10.26C55.5841 10.26 55.1508 10.3533 54.7508 10.54C54.3508 10.7267 54.0041 11.0067 53.7108 11.38C53.4174 11.74 53.1841 12.2 53.0108 12.76C52.8374 13.32 52.7508 13.9733 52.7508 14.72ZM70.7328 19.1C71.3461 19.1 71.8661 19.0467 72.2928 18.94C72.7195 18.8333 73.0861 18.6867 73.3928 18.5L73.9528 20.5C73.6328 20.6867 73.1795 20.8533 72.5928 21C72.0061 21.1467 71.2928 21.22 70.4528 21.22C69.5061 21.22 68.6328 21.0733 67.8328 20.78C67.0328 20.4733 66.3395 20.04 65.7528 19.48C65.1795 18.9067 64.7328 18.22 64.4128 17.42C64.0928 16.6067 63.9328 15.6933 63.9328 14.68C63.9328 13.6933 64.0861 12.8 64.3928 12C64.7128 11.2 65.1528 10.52 65.7128 9.96C66.2861 9.38667 66.9795 8.94667 67.7928 8.64C68.6061 8.33333 69.5128 8.18 70.5128 8.18C71.3661 8.18 72.0661 8.26 72.6128 8.42C73.1728 8.58 73.6261 8.75333 73.9728 8.94L73.3528 10.96C73.0061 10.7733 72.6195 10.62 72.1928 10.5C71.7795 10.3667 71.3128 10.3 70.7928 10.3C70.2461 10.3 69.7328 10.38 69.2528 10.54C68.7728 10.7 68.3528 10.96 67.9928 11.32C67.6328 11.6667 67.3461 12.12 67.1328 12.68C66.9328 13.2267 66.8328 13.8933 66.8328 14.68C66.8328 15.44 66.9328 16.1 67.1328 16.66C67.3328 17.2067 67.6061 17.66 67.9528 18.02C68.3128 18.38 68.7261 18.6533 69.1928 18.84C69.6728 19.0133 70.1861 19.1 70.7328 19.1ZM75.9191 8.4H84.1191V10.52H78.6591V13.4H83.5991V15.5H78.6591V18.88H84.1791V21H75.9191V8.4ZM89.5711 16.08H92.7711L92.1911 14.4C92.0044 13.88 91.8311 13.36 91.6711 12.84C91.5111 12.3067 91.3578 11.7733 91.2111 11.24H91.1711C91.0244 11.7467 90.8644 12.2667 90.6911 12.8C90.5178 13.32 90.3378 13.8533 90.1511 14.4L89.5711 16.08ZM89.8111 8.4H92.6511L97.3111 21H94.4111L93.4311 18.1H88.9511L87.9711 21H85.1111L89.8111 8.4ZM98.9073 8.4H101.407L105.747 15.04C106.041 15.4933 106.307 15.94 106.547 16.38C106.801 16.8067 106.981 17.14 107.087 17.38H107.127C107.047 16.5133 107.007 15.6533 107.007 14.8C107.007 13.9333 107.007 13.06 107.007 12.18V8.4H109.547V21H107.047L103.007 14.88C102.834 14.6133 102.661 14.34 102.487 14.06C102.327 13.7667 102.174 13.4867 102.027 13.22C101.881 12.9533 101.747 12.7133 101.627 12.5C101.521 12.2733 101.441 12.0867 101.387 11.94H101.347C101.414 12.86 101.447 13.7467 101.447 14.6C101.461 15.44 101.467 16.3 101.467 17.18V21H98.9073V8.4ZM121.415 8.4C122.748 8.4 123.802 8.68667 124.575 9.26C125.348 9.83333 125.735 10.64 125.735 11.68C125.735 12.0667 125.662 12.4133 125.515 12.72C125.382 13.0267 125.202 13.2933 124.975 13.52C124.762 13.7333 124.515 13.9133 124.235 14.06C123.968 14.2067 123.695 14.3133 123.415 14.38C123.788 14.4467 124.135 14.56 124.455 14.72C124.788 14.8667 125.075 15.0667 125.315 15.32C125.568 15.5733 125.762 15.88 125.895 16.24C126.042 16.5867 126.115 16.9867 126.115 17.44C126.115 17.96 126.002 18.44 125.775 18.88C125.548 19.3067 125.222 19.68 124.795 20C124.382 20.32 123.875 20.5667 123.275 20.74C122.688 20.9133 122.035 21 121.315 21H116.915V8.4H121.415ZM119.655 13.44H120.955C121.555 13.44 122.028 13.3133 122.375 13.06C122.735 12.7933 122.915 12.4 122.915 11.88C122.915 11.4133 122.748 11.0667 122.415 10.84C122.095 10.6 121.628 10.48 121.015 10.48H119.655V13.44ZM119.655 18.92H120.955C121.635 18.92 122.195 18.7933 122.635 18.54C123.075 18.2733 123.295 17.82 123.295 17.18C123.295 16.58 123.062 16.1533 122.595 15.9C122.128 15.6333 121.555 15.5 120.875 15.5H119.655V18.92ZM131.348 16.08H134.548L133.968 14.4C133.782 13.88 133.608 13.36 133.448 12.84C133.288 12.3067 133.135 11.7733 132.988 11.24H132.948C132.802 11.7467 132.642 12.2667 132.468 12.8C132.295 13.32 132.115 13.8533 131.928 14.4L131.348 16.08ZM131.588 8.4H134.428L139.088 21H136.188L135.208 18.1H130.728L129.748 21H126.888L131.588 8.4ZM140.685 8.4H143.185L147.525 15.04C147.818 15.4933 148.085 15.94 148.325 16.38C148.578 16.8067 148.758 17.14 148.865 17.38H148.905C148.825 16.5133 148.785 15.6533 148.785 14.8C148.785 13.9333 148.785 13.06 148.785 12.18V8.4H151.325V21H148.825L144.785 14.88C144.611 14.6133 144.438 14.34 144.265 14.06C144.105 13.7667 143.951 13.4867 143.805 13.22C143.658 12.9533 143.525 12.7133 143.405 12.5C143.298 12.2733 143.218 12.0867 143.165 11.94H143.125C143.191 12.86 143.225 13.7467 143.225 14.6C143.238 15.44 143.245 16.3 143.245 17.18V21H140.685V8.4ZM154.083 21V8.4H156.823V13.7L161.163 8.4H164.563L159.863 13.9L164.963 21H161.583L157.863 15.62L156.823 16.72V21H154.083Z" fill="#172F56"/>
</svg>
