<svg width="171" height="30" viewBox="0 0 171 30" fill="none" xmlns="http://www.w3.org/2000/svg">
<path d="M7.90681 3.74876C9.19136 5.00323 9.21419 6.60558 7.9659 7.89649C6.71761 9.1874 5.12316 9.21034 3.83861 7.95587C2.46015 6.6097 2.05745 3.28438 1.9664 2.29623C1.96319 2.2611 1.96758 2.22568 1.97928 2.19242C1.99098 2.15915 2.00971 2.12883 2.03417 2.10353C2.05864 2.07822 2.08827 2.05854 2.12102 2.04584C2.15377 2.03314 2.18887 2.02771 2.22391 2.02993C3.20926 2.09325 6.52836 2.40259 7.90681 3.74876Z" stroke="white" stroke-miterlimit="10"/>
<path d="M7.23189 4.68028C7.50947 4.95135 7.66852 5.32214 7.67406 5.71106C7.6796 6.09999 7.53118 6.47519 7.26144 6.75414" stroke="white" stroke-linecap="round" stroke-linejoin="round"/>
<path d="M7.90681 13.3372C9.19136 14.5917 9.21419 16.194 7.9659 17.4849C6.71761 18.7758 5.12316 18.7988 3.83861 17.5443C2.46015 16.1981 2.05745 12.8728 1.9664 11.8847C1.96319 11.8495 1.96758 11.8141 1.97928 11.7809C1.99098 11.7476 2.00971 11.7173 2.03417 11.692C2.05864 11.6667 2.08827 11.647 2.12102 11.6343C2.15377 11.6216 2.18887 11.6161 2.22391 11.6184C3.20926 11.6817 6.52836 11.991 7.90681 13.3372Z" stroke="white" stroke-miterlimit="10"/>
<path d="M7.23189 14.2686C7.50947 14.5397 7.66852 14.9105 7.67406 15.2994C7.6796 15.6883 7.53118 16.0635 7.26144 16.3425" stroke="white" stroke-linecap="round" stroke-linejoin="round"/>
<path d="M7.90681 22.9257C9.19136 24.1802 9.21419 25.7825 7.9659 27.0734C6.71761 28.3643 5.12316 28.3873 3.83861 27.1328C2.46015 25.7866 2.05745 22.4613 1.9664 21.4732C1.96319 21.438 1.96758 21.4026 1.97928 21.3694C1.99098 21.3361 2.00971 21.3058 2.03417 21.2805C2.05864 21.2552 2.08827 21.2355 2.12102 21.2228C2.15377 21.2101 2.18887 21.2046 2.22391 21.2069C3.20926 21.2702 6.52836 21.5795 7.90681 22.9257Z" stroke="white" stroke-miterlimit="10"/>
<path d="M7.23189 23.8571C7.50947 24.1282 7.66852 24.499 7.67406 24.8879C7.6796 25.2768 7.53118 25.652 7.26144 25.931" stroke="white" stroke-linecap="round" stroke-linejoin="round"/>
<path d="M17.9068 3.74876C19.1914 5.00323 19.2142 6.60558 17.9659 7.89649C16.7176 9.1874 15.1232 9.21034 13.8386 7.95587C12.4602 6.6097 12.0574 3.28438 11.9664 2.29623C11.9632 2.2611 11.9676 2.22568 11.9793 2.19242C11.991 2.15915 12.0097 2.12883 12.0342 2.10353C12.0586 2.07822 12.0883 2.05854 12.121 2.04584C12.1538 2.03314 12.1889 2.02771 12.2239 2.02993C13.2093 2.09325 16.5284 2.40259 17.9068 3.74876Z" stroke="white" stroke-miterlimit="10"/>
<path d="M17.2319 4.68028C17.5095 4.95135 17.6685 5.32214 17.6741 5.71106C17.6796 6.09999 17.5312 6.47519 17.2614 6.75414" stroke="white" stroke-linecap="round" stroke-linejoin="round"/>
<path d="M17.9068 13.3372C19.1914 14.5917 19.2142 16.194 17.9659 17.4849C16.7176 18.7758 15.1232 18.7988 13.8386 17.5443C12.4602 16.1981 12.0574 12.8728 11.9664 11.8847C11.9632 11.8495 11.9676 11.8141 11.9793 11.7809C11.991 11.7476 12.0097 11.7173 12.0342 11.692C12.0586 11.6667 12.0883 11.647 12.121 11.6343C12.1538 11.6216 12.1889 11.6161 12.2239 11.6184C13.2093 11.6817 16.5284 11.991 17.9068 13.3372Z" stroke="white" stroke-miterlimit="10"/>
<path d="M17.2319 14.2686C17.5095 14.5397 17.6685 14.9105 17.6741 15.2994C17.6796 15.6883 17.5312 16.0635 17.2614 16.3425" stroke="white" stroke-linecap="round" stroke-linejoin="round"/>
<path d="M17.9068 22.9257C19.1914 24.1802 19.2142 25.7825 17.9659 27.0734C16.7176 28.3643 15.1232 28.3873 13.8386 27.1328C12.4602 25.7866 12.0574 22.4613 11.9664 21.4732C11.9632 21.438 11.9676 21.4026 11.9793 21.3694C11.991 21.3361 12.0097 21.3058 12.0342 21.2805C12.0586 21.2552 12.0883 21.2355 12.121 21.2228C12.1538 21.2101 12.1889 21.2046 12.2239 21.2069C13.2093 21.2702 16.5284 21.5795 17.9068 22.9257Z" stroke="white" stroke-miterlimit="10"/>
<path d="M17.2319 23.8571C17.5095 24.1282 17.6685 24.499 17.6741 24.8879C17.6796 25.2768 17.5312 25.652 17.2614 25.931" stroke="white" stroke-linecap="round" stroke-linejoin="round"/>
<path d="M27.9068 3.74876C29.1914 5.00323 29.2142 6.60558 27.9659 7.89649C26.7176 9.1874 25.1232 9.21034 23.8386 7.95587C22.4602 6.6097 22.0574 3.28438 21.9664 2.29623C21.9632 2.2611 21.9676 2.22568 21.9793 2.19242C21.991 2.15915 22.0097 2.12883 22.0342 2.10353C22.0586 2.07822 22.0883 2.05854 22.121 2.04584C22.1538 2.03314 22.1889 2.02771 22.2239 2.02993C23.2093 2.09325 26.5284 2.40259 27.9068 3.74876Z" stroke="white" stroke-miterlimit="10"/>
<path d="M27.2319 4.68028C27.5095 4.95135 27.6685 5.32214 27.6741 5.71106C27.6796 6.09999 27.5312 6.47519 27.2614 6.75414" stroke="white" stroke-linecap="round" stroke-linejoin="round"/>
<path d="M27.9068 13.3372C29.1914 14.5917 29.2142 16.194 27.9659 17.4849C26.7176 18.7758 25.1232 18.7988 23.8386 17.5443C22.4602 16.1981 22.0574 12.8728 21.9664 11.8847C21.9632 11.8495 21.9676 11.8141 21.9793 11.7809C21.991 11.7476 22.0097 11.7173 22.0342 11.692C22.0586 11.6667 22.0883 11.647 22.121 11.6343C22.1538 11.6216 22.1889 11.6161 22.2239 11.6184C23.2093 11.6817 26.5284 11.991 27.9068 13.3372Z" stroke="white" stroke-miterlimit="10"/>
<path d="M27.2319 14.2687C27.5095 14.5398 27.6685 14.9106 27.6741 15.2995C27.6796 15.6884 27.5312 16.0636 27.2614 16.3426" stroke="white" stroke-linecap="round" stroke-linejoin="round"/>
<path d="M27.9068 22.9257C29.1914 24.1802 29.2142 25.7825 27.9659 27.0734C26.7176 28.3643 25.1232 28.3873 23.8386 27.1328C22.4602 25.7866 22.0574 22.4613 21.9664 21.4732C21.9632 21.438 21.9676 21.4026 21.9793 21.3694C21.991 21.3361 22.0097 21.3058 22.0342 21.2805C22.0586 21.2552 22.0883 21.2355 22.121 21.2228C22.1538 21.2101 22.1889 21.2046 22.2239 21.2069C23.2093 21.2702 26.5284 21.5795 27.9068 22.9257Z" stroke="white" stroke-miterlimit="10"/>
<path d="M27.2319 23.8572C27.5095 24.1283 27.6685 24.4991 27.6741 24.888C27.6796 25.2769 27.5312 25.6521 27.2614 25.9311" stroke="white" stroke-linecap="round" stroke-linejoin="round"/>
<path d="M48.4022 8.66C49.2782 8.66 50.0762 8.774 50.7962 9.002C51.5162 9.23 52.1342 9.572 52.6502 10.028C53.1662 10.484 53.5622 11.054 53.8382 11.738C54.1262 12.41 54.2702 13.196 54.2702 14.096C54.2702 15.128 54.1022 16.016 53.7662 16.76C53.4302 17.492 52.9742 18.104 52.3982 18.596C51.8222 19.076 51.1442 19.43 50.3642 19.658C49.5962 19.886 48.7802 20 47.9162 20H44.4422V8.66H48.4022ZM46.9082 18.092H47.7542C48.2582 18.092 48.7442 18.032 49.2122 17.912C49.6922 17.78 50.1122 17.564 50.4722 17.264C50.8322 16.952 51.1202 16.544 51.3362 16.04C51.5522 15.524 51.6602 14.876 51.6602 14.096C51.6602 12.956 51.3362 12.086 50.6882 11.486C50.0402 10.874 49.1702 10.568 48.0782 10.568H46.9082V18.092ZM56.2195 8.66H60.5215C61.1575 8.66 61.7155 8.756 62.1955 8.948C62.6875 9.128 63.0955 9.38 63.4195 9.704C63.7435 10.016 63.9835 10.388 64.1395 10.82C64.3075 11.24 64.3915 11.696 64.3915 12.188C64.3915 12.644 64.3195 13.052 64.1755 13.412C64.0435 13.76 63.8695 14.066 63.6535 14.33C63.4495 14.582 63.2155 14.798 62.9515 14.978C62.6995 15.146 62.4535 15.284 62.2135 15.392L64.9855 20H62.1595L59.9815 15.824H58.6675V20H56.2195V8.66ZM58.6675 13.934H59.6395C60.2875 13.934 60.8155 13.802 61.2235 13.538C61.6435 13.274 61.8535 12.836 61.8535 12.224C61.8535 11.684 61.6855 11.27 61.3495 10.982C61.0255 10.682 60.5455 10.532 59.9095 10.532H58.6675V13.934ZM71.6327 8.462C72.4367 8.462 73.1807 8.594 73.8647 8.858C74.5487 9.122 75.1367 9.506 75.6287 10.01C76.1207 10.502 76.5047 11.114 76.7807 11.846C77.0687 12.578 77.2127 13.412 77.2127 14.348C77.2127 15.26 77.0687 16.076 76.7807 16.796C76.4927 17.516 76.0967 18.128 75.5927 18.632C75.0887 19.136 74.4887 19.526 73.7927 19.802C73.1087 20.066 72.3647 20.198 71.5607 20.198C70.7567 20.198 70.0127 20.072 69.3287 19.82C68.6447 19.556 68.0567 19.178 67.5647 18.686C67.0727 18.182 66.6827 17.57 66.3947 16.85C66.1187 16.118 65.9807 15.284 65.9807 14.348C65.9807 13.436 66.1247 12.62 66.4127 11.9C66.7007 11.168 67.0967 10.55 67.6007 10.046C68.1047 9.53 68.6987 9.14 69.3827 8.876C70.0787 8.6 70.8287 8.462 71.6327 8.462ZM68.5907 14.348C68.5907 15.02 68.6687 15.608 68.8247 16.112C68.9927 16.604 69.2147 17.018 69.4907 17.354C69.7667 17.678 70.0847 17.924 70.4447 18.092C70.8167 18.248 71.2127 18.326 71.6327 18.326C72.0407 18.326 72.4247 18.248 72.7847 18.092C73.1567 17.924 73.4747 17.678 73.7387 17.354C74.0027 17.018 74.2127 16.604 74.3687 16.112C74.5247 15.608 74.6027 15.02 74.6027 14.348C74.6027 13.652 74.5187 13.052 74.3507 12.548C74.1947 12.044 73.9787 11.63 73.7027 11.306C73.4267 10.97 73.1027 10.724 72.7307 10.568C72.3707 10.412 71.9807 10.334 71.5607 10.334C71.1407 10.334 70.7507 10.418 70.3907 10.586C70.0307 10.754 69.7187 11.006 69.4547 11.342C69.1907 11.666 68.9807 12.08 68.8247 12.584C68.6687 13.088 68.5907 13.676 68.5907 14.348ZM79.1766 8.66H83.1546C83.8146 8.66 84.4086 8.738 84.9366 8.894C85.4766 9.05 85.9326 9.278 86.3046 9.578C86.6886 9.878 86.9826 10.244 87.1866 10.676C87.3906 11.096 87.4926 11.582 87.4926 12.134C87.4926 12.782 87.3726 13.34 87.1326 13.808C86.8926 14.276 86.5626 14.666 86.1426 14.978C85.7346 15.278 85.2546 15.506 84.7026 15.662C84.1506 15.806 83.5626 15.878 82.9386 15.878H81.6426V20H79.1766V8.66ZM81.6426 13.988H82.6506C82.9626 13.988 83.2566 13.964 83.5326 13.916C83.8206 13.856 84.0666 13.76 84.2706 13.628C84.4866 13.484 84.6546 13.304 84.7746 13.088C84.8946 12.86 84.9546 12.578 84.9546 12.242C84.9546 11.654 84.7566 11.222 84.3606 10.946C83.9646 10.67 83.4606 10.532 82.8486 10.532H81.6426V13.988ZM92.9208 8.462C93.6528 8.462 94.3008 8.534 94.8648 8.678C95.4288 8.822 95.9328 9.008 96.3768 9.236L95.8188 11.072C95.3268 10.832 94.8528 10.652 94.3968 10.532C93.9408 10.4 93.4968 10.334 93.0648 10.334C92.4888 10.334 92.0388 10.448 91.7148 10.676C91.4028 10.904 91.2468 11.21 91.2468 11.594C91.2468 11.99 91.3848 12.29 91.6608 12.494C91.9368 12.698 92.3808 12.896 92.9928 13.088L94.0728 13.43C94.9728 13.73 95.6748 14.156 96.1788 14.708C96.6948 15.26 96.9528 15.938 96.9528 16.742C96.9528 17.222 96.8628 17.672 96.6828 18.092C96.5028 18.512 96.2328 18.878 95.8728 19.19C95.5128 19.502 95.0628 19.748 94.5228 19.928C93.9828 20.108 93.3528 20.198 92.6328 20.198C91.2768 20.198 90.0348 19.922 88.9068 19.37L89.4648 17.534C89.9808 17.786 90.4848 17.984 90.9768 18.128C91.4688 18.26 91.9848 18.326 92.5248 18.326C93.1608 18.326 93.6408 18.212 93.9648 17.984C94.2888 17.744 94.4508 17.414 94.4508 16.994C94.4508 16.85 94.4208 16.712 94.3608 16.58C94.3128 16.436 94.2168 16.304 94.0728 16.184C93.9288 16.052 93.7308 15.926 93.4788 15.806C93.2388 15.674 92.9208 15.548 92.5248 15.428L91.5708 15.104C91.1508 14.96 90.7668 14.792 90.4188 14.6C90.0708 14.408 89.7708 14.186 89.5188 13.934C89.2788 13.682 89.0868 13.388 88.9428 13.052C88.8108 12.704 88.7448 12.302 88.7448 11.846C88.7448 11.354 88.8348 10.904 89.0148 10.496C89.1948 10.076 89.4588 9.716 89.8068 9.416C90.1668 9.116 90.6048 8.882 91.1208 8.714C91.6488 8.546 92.2488 8.462 92.9208 8.462ZM110.248 8.66V10.568H105.514V13.574H109.852V15.464H105.514V20H103.048V8.66H110.248ZM114.461 8.66V20H111.995V8.66H114.461ZM116.97 8.66H119.22L123.126 14.636C123.39 15.044 123.63 15.446 123.846 15.842C124.074 16.226 124.236 16.526 124.332 16.742H124.368C124.296 15.962 124.26 15.188 124.26 14.42C124.26 13.64 124.26 12.854 124.26 12.062V8.66H126.546V20H124.296L120.66 14.492C120.504 14.252 120.348 14.006 120.192 13.754C120.048 13.49 119.91 13.238 119.778 12.998C119.646 12.758 119.526 12.542 119.418 12.35C119.322 12.146 119.25 11.978 119.202 11.846H119.166C119.226 12.674 119.256 13.472 119.256 14.24C119.268 14.996 119.274 15.77 119.274 16.562V20H116.97V8.66ZM132.016 15.572H134.896L134.374 14.06C134.206 13.592 134.05 13.124 133.906 12.656C133.762 12.176 133.624 11.696 133.492 11.216H133.456C133.324 11.672 133.18 12.14 133.024 12.62C132.868 13.088 132.706 13.568 132.538 14.06L132.016 15.572ZM132.232 8.66H134.788L138.982 20H136.372L135.49 17.39H131.458L130.576 20H128.002L132.232 8.66ZM140.419 8.66H142.669L146.575 14.636C146.839 15.044 147.079 15.446 147.295 15.842C147.523 16.226 147.685 16.526 147.781 16.742H147.817C147.745 15.962 147.709 15.188 147.709 14.42C147.709 13.64 147.709 12.854 147.709 12.062V8.66H149.995V20H147.745L144.109 14.492C143.953 14.252 143.797 14.006 143.641 13.754C143.497 13.49 143.359 13.238 143.227 12.998C143.095 12.758 142.975 12.542 142.867 12.35C142.771 12.146 142.699 11.978 142.651 11.846H142.615C142.675 12.674 142.705 13.472 142.705 14.24C142.717 14.996 142.723 15.77 142.723 16.562V20H140.419V8.66ZM158.075 18.29C158.627 18.29 159.095 18.242 159.479 18.146C159.863 18.05 160.193 17.918 160.469 17.75L160.973 19.55C160.685 19.718 160.277 19.868 159.749 20C159.221 20.132 158.579 20.198 157.823 20.198C156.971 20.198 156.185 20.066 155.465 19.802C154.745 19.526 154.121 19.136 153.593 18.632C153.077 18.116 152.675 17.498 152.387 16.778C152.099 16.046 151.955 15.224 151.955 14.312C151.955 13.424 152.093 12.62 152.369 11.9C152.657 11.18 153.053 10.568 153.557 10.064C154.073 9.548 154.697 9.152 155.429 8.876C156.161 8.6 156.977 8.462 157.877 8.462C158.645 8.462 159.275 8.534 159.767 8.678C160.271 8.822 160.679 8.978 160.991 9.146L160.433 10.964C160.121 10.796 159.773 10.658 159.389 10.55C159.017 10.43 158.597 10.37 158.129 10.37C157.637 10.37 157.175 10.442 156.743 10.586C156.311 10.73 155.933 10.964 155.609 11.288C155.285 11.6 155.027 12.008 154.835 12.512C154.655 13.004 154.565 13.604 154.565 14.312C154.565 14.996 154.655 15.59 154.835 16.094C155.015 16.586 155.261 16.994 155.573 17.318C155.897 17.642 156.269 17.888 156.689 18.056C157.121 18.212 157.583 18.29 158.075 18.29ZM162.743 8.66H170.123V10.568H165.209V13.16H169.655V15.05H165.209V18.092H170.177V20H162.743V8.66Z" fill="white"/>
</svg>
