<svg width="60" height="59" viewBox="0 0 60 59" fill="none" xmlns="http://www.w3.org/2000/svg">
<path d="M15.8136 7.49728C18.3827 10.0062 18.4284 13.2109 15.9318 15.7927C13.4352 18.3746 10.2463 18.4204 7.67721 15.9115C4.92031 13.2192 4.11489 6.56853 3.93279 4.59222C3.92637 4.52195 3.93516 4.45112 3.95856 4.38459C3.98196 4.31806 4.01941 4.25741 4.06835 4.20681C4.11728 4.1562 4.17653 4.11685 4.24204 4.09144C4.30754 4.06603 4.37774 4.05517 4.44782 4.05961C6.41851 4.18625 13.0567 4.80494 15.8136 7.49728Z" stroke="#173057" stroke-width="2" stroke-miterlimit="10"/>
<path d="M14.4638 9.36031C15.0189 9.90246 15.337 10.644 15.3481 11.4219C15.3592 12.1997 15.0624 12.9501 14.5229 13.508" stroke="#173057" stroke-width="2" stroke-linecap="round" stroke-linejoin="round"/>
<path d="M15.8136 26.674C18.3827 29.183 18.4284 32.3877 15.9318 34.9695C13.4352 37.5513 10.2463 37.5972 7.67721 35.0883C4.92031 32.3959 4.11489 25.7453 3.93279 23.769C3.92637 23.6987 3.93516 23.6279 3.95856 23.5613C3.98196 23.4948 4.01941 23.4342 4.06835 23.3836C4.11728 23.333 4.17653 23.2936 4.24204 23.2682C4.30754 23.2428 4.37774 23.2319 4.44782 23.2364C6.41851 23.363 13.0567 23.9817 15.8136 26.674Z" stroke="#173057" stroke-width="2" stroke-miterlimit="10"/>
<path d="M14.4638 28.5371C15.0189 29.0792 15.337 29.8208 15.3481 30.5986C15.3592 31.3765 15.0624 32.1269 14.5229 32.6848" stroke="#173057" stroke-width="2" stroke-linecap="round" stroke-linejoin="round"/>
<path d="M15.8136 45.8508C18.3827 48.3597 18.4284 51.5644 15.9318 54.1463C13.4352 56.7281 10.2463 56.774 7.67721 54.265C4.92031 51.5727 4.11489 44.922 3.93279 42.9457C3.92637 42.8755 3.93516 42.8046 3.95856 42.7381C3.98196 42.6716 4.01941 42.6109 4.06835 42.5603C4.11728 42.5097 4.17653 42.4704 4.24204 42.445C4.30754 42.4195 4.37774 42.4087 4.44782 42.4131C6.41851 42.5398 13.0567 43.1585 15.8136 45.8508Z" stroke="#173057" stroke-width="2" stroke-miterlimit="10"/>
<path d="M14.4638 47.7138C15.0189 48.256 15.337 48.9975 15.3481 49.7754C15.3592 50.5532 15.0624 51.3037 14.5229 51.8616" stroke="#173057" stroke-width="2" stroke-linecap="round" stroke-linejoin="round"/>
<path d="M35.8136 7.49728C38.3827 10.0062 38.4284 13.2109 35.9318 15.7927C33.4352 18.3746 30.2463 18.4204 27.6772 15.9115C24.9203 13.2192 24.1149 6.56853 23.9328 4.59222C23.9264 4.52195 23.9352 4.45112 23.9586 4.38459C23.982 4.31806 24.0194 4.25741 24.0683 4.20681C24.1173 4.1562 24.1765 4.11685 24.242 4.09144C24.3075 4.06603 24.3777 4.05517 24.4478 4.05961C26.4185 4.18625 33.0567 4.80494 35.8136 7.49728Z" stroke="#173057" stroke-width="2" stroke-miterlimit="10"/>
<path d="M34.4638 9.36031C35.0189 9.90246 35.337 10.644 35.3481 11.4219C35.3592 12.1997 35.0624 12.9501 34.5229 13.508" stroke="#173057" stroke-width="2" stroke-linecap="round" stroke-linejoin="round"/>
<path d="M35.8136 26.674C38.3827 29.183 38.4284 32.3877 35.9318 34.9695C33.4352 37.5513 30.2463 37.5972 27.6772 35.0883C24.9203 32.3959 24.1149 25.7453 23.9328 23.769C23.9264 23.6987 23.9352 23.6279 23.9586 23.5613C23.982 23.4948 24.0194 23.4342 24.0683 23.3836C24.1173 23.333 24.1765 23.2936 24.242 23.2682C24.3075 23.2428 24.3777 23.2319 24.4478 23.2364C26.4185 23.363 33.0567 23.9817 35.8136 26.674Z" stroke="#173057" stroke-width="2" stroke-miterlimit="10"/>
<path d="M34.4638 28.5371C35.0189 29.0792 35.337 29.8208 35.3481 30.5986C35.3592 31.3765 35.0624 32.1269 34.5229 32.6848" stroke="#173057" stroke-width="2" stroke-linecap="round" stroke-linejoin="round"/>
<path d="M35.8136 45.8508C38.3827 48.3597 38.4284 51.5644 35.9318 54.1463C33.4352 56.7281 30.2463 56.774 27.6772 54.265C24.9203 51.5727 24.1149 44.922 23.9328 42.9457C23.9264 42.8755 23.9352 42.8046 23.9586 42.7381C23.982 42.6716 24.0194 42.6109 24.0683 42.5603C24.1173 42.5097 24.1765 42.4704 24.242 42.445C24.3075 42.4195 24.3777 42.4087 24.4478 42.4131C26.4185 42.5398 33.0567 43.1585 35.8136 45.8508Z" stroke="#173057" stroke-width="2" stroke-miterlimit="10"/>
<path d="M34.4638 47.7138C35.0189 48.256 35.337 48.9975 35.3481 49.7754C35.3592 50.5532 35.0624 51.3037 34.5229 51.8616" stroke="#173057" stroke-width="2" stroke-linecap="round" stroke-linejoin="round"/>
<path d="M55.8136 7.49728C58.3827 10.0062 58.4284 13.2109 55.9318 15.7927C53.4352 18.3746 50.2463 18.4204 47.6772 15.9115C44.9203 13.2192 44.1149 6.56853 43.9328 4.59222C43.9264 4.52195 43.9352 4.45112 43.9586 4.38459C43.982 4.31806 44.0194 4.25741 44.0683 4.20681C44.1173 4.1562 44.1765 4.11685 44.242 4.09144C44.3075 4.06603 44.3777 4.05517 44.4478 4.05961C46.4185 4.18625 53.0567 4.80494 55.8136 7.49728Z" stroke="#173057" stroke-width="2" stroke-miterlimit="10"/>
<path d="M54.4638 9.36031C55.0189 9.90246 55.337 10.644 55.3481 11.4219C55.3592 12.1997 55.0624 12.9501 54.5229 13.508" stroke="#173057" stroke-width="2" stroke-linecap="round" stroke-linejoin="round"/>
<path d="M55.8136 26.674C58.3827 29.183 58.4284 32.3877 55.9318 34.9695C53.4352 37.5513 50.2463 37.5972 47.6772 35.0883C44.9203 32.3959 44.1149 25.7453 43.9328 23.769C43.9264 23.6987 43.9352 23.6279 43.9586 23.5613C43.982 23.4948 44.0194 23.4342 44.0683 23.3836C44.1173 23.333 44.1765 23.2936 44.242 23.2682C44.3075 23.2428 44.3777 23.2319 44.4478 23.2364C46.4185 23.363 53.0567 23.9817 55.8136 26.674Z" stroke="#173057" stroke-width="2" stroke-miterlimit="10"/>
<path d="M54.4638 28.5371C55.0189 29.0792 55.337 29.8208 55.3481 30.5986C55.3592 31.3765 55.0624 32.1269 54.5229 32.6848" stroke="#173057" stroke-width="2" stroke-linecap="round" stroke-linejoin="round"/>
<path d="M55.8136 45.8508C58.3827 48.3597 58.4284 51.5644 55.9318 54.1463C53.4352 56.7281 50.2463 56.774 47.6772 54.265C44.9203 51.5727 44.1149 44.922 43.9328 42.9457C43.9264 42.8755 43.9352 42.8046 43.9586 42.7381C43.982 42.6716 44.0194 42.6109 44.0683 42.5603C44.1173 42.5097 44.1765 42.4704 44.242 42.445C44.3075 42.4195 44.3777 42.4087 44.4478 42.4131C46.4185 42.5398 53.0567 43.1585 55.8136 45.8508Z" stroke="#173057" stroke-width="2" stroke-miterlimit="10"/>
<path d="M54.4638 47.7138C55.0189 48.256 55.337 48.9975 55.3481 49.7754C55.3592 50.5532 55.0624 51.3037 54.5229 51.8616" stroke="#173057" stroke-width="2" stroke-linecap="round" stroke-linejoin="round"/>
</svg>
