<svg width="35" height="35" viewBox="0 0 35 35" fill="none" xmlns="http://www.w3.org/2000/svg">
<circle cx="17.5" cy="17.5" r="17.5" fill="#18315B"/>
<path d="M12 9H22V25L18.7266 27H15.2695L12 25V9Z" fill="#F6FAFF"/>
<path d="M28 16.0672C28 9.95496 23.0751 5 17 5C10.9249 5 6 9.95496 6 16.0672C6 21.5912 10.0225 26.1697 15.2812 27V19.2663H12.4883V16.0672H15.2812V13.629C15.2812 10.8553 16.9235 9.32314 19.4361 9.32314C20.6396 9.32314 21.8984 9.53929 21.8984 9.53929V12.2629H20.5114C19.1449 12.2629 18.7188 13.116 18.7188 13.9912V16.0672H21.7695L21.2818 19.2663H18.7188V27C23.9775 26.1697 28 21.5912 28 16.0672Z" fill="#18315B"/>
</svg>
