<svg width="35" height="35" viewBox="0 0 35 35" fill="none" xmlns="http://www.w3.org/2000/svg">
<circle cx="17.5" cy="17.5" r="17.5" fill="#18315B"/>
<path d="M28 11.9246C27.2645 12.2505 26.4744 12.4707 25.6438 12.5702C26.4911 12.0629 27.1412 11.2578 27.4477 10.2995C26.655 10.7698 25.7768 11.1116 24.8422 11.2948C24.0935 10.4985 23.0277 10 21.8474 10C19.582 10 17.7446 11.8374 17.7446 14.1046C17.7446 14.4253 17.7816 14.7371 17.8503 15.0383C14.4388 14.8666 11.4167 13.2326 9.39258 10.7505C9.04025 11.3582 8.83766 12.0629 8.83766 12.8134C8.83766 14.2368 9.56258 15.4937 10.6627 16.2292C9.98978 16.2072 9.35735 16.0231 8.80419 15.7157V15.7685C8.80419 17.7565 10.2179 19.4151 12.0958 19.7921C11.7506 19.8855 11.3885 19.9348 11.0151 19.9348C10.7508 19.9348 10.4927 19.9102 10.2426 19.8626C10.7649 21.4921 12.2799 22.6795 14.0759 22.7112C12.671 23.8122 10.9014 24.4684 8.97948 24.4684C8.64829 24.4684 8.3215 24.449 8 24.4112C9.81626 25.5765 11.9725 26.2547 14.2891 26.2547C21.8378 26.2547 25.9644 20.0026 25.9644 14.5803C25.9644 14.4041 25.96 14.2262 25.9521 14.05C26.7536 13.4704 27.4495 12.7491 27.9982 11.9272L28 11.9246Z" fill="#F6FAFF"/>
</svg>
