<svg width="15" height="17" viewBox="0 0 15 17" fill="none" xmlns="http://www.w3.org/2000/svg">
<path d="M0.301238 0.251464C0.110427 0.446214 0 0.749421 0 1.14209V15.1482C0 15.5409 0.110427 15.8441 0.301238 16.0389L0.348332 16.0816L8.39814 8.2362V8.05095L0.348332 0.205548L0.301238 0.251464Z" fill="url(#paint0_linear_1_431)"/>
<path d="M11.0784 10.8527L8.3981 8.23621V8.05096L11.0816 5.4345L11.1417 5.46855L14.3198 7.23158C15.2267 7.73192 15.2267 8.55525 14.3198 9.05875L11.1417 10.8186L11.0784 10.8527Z" fill="url(#paint1_linear_1_431)"/>
<path d="M11.1418 10.8186L8.39815 8.14357L0.301239 16.0389C0.602478 16.3476 1.09372 16.3848 1.65235 16.0761L11.1418 10.8186Z" fill="url(#paint2_linear_1_431)"/>
<path d="M11.1418 5.46852L1.65235 0.211071C1.09372 -0.0945117 0.602478 -0.0573047 0.301239 0.251445L8.39815 8.14355L11.1418 5.46852Z" fill="url(#paint3_linear_1_431)"/>
<defs>
<linearGradient id="paint0_linear_1_431" x1="7.68342" y1="15.2941" x2="-2.94201" y2="4.39622" gradientUnits="userSpaceOnUse">
<stop stop-color="#00A0FF"/>
<stop offset="0.0066" stop-color="#00A1FF"/>
<stop offset="0.2601" stop-color="#00BEFF"/>
<stop offset="0.5122" stop-color="#00D2FF"/>
<stop offset="0.7604" stop-color="#00DFFF"/>
<stop offset="1" stop-color="#00E3FF"/>
</linearGradient>
<linearGradient id="paint1_linear_1_431" x1="15.5008" y1="8.1427" x2="-0.21684" y2="8.1427" gradientUnits="userSpaceOnUse">
<stop stop-color="#FFE000"/>
<stop offset="0.4087" stop-color="#FFBD00"/>
<stop offset="0.7754" stop-color="#FFA500"/>
<stop offset="1" stop-color="#FF9C00"/>
</linearGradient>
<linearGradient id="paint2_linear_1_431" x1="9.64987" y1="6.68938" x2="-4.75907" y2="-8.08902" gradientUnits="userSpaceOnUse">
<stop stop-color="#FF3A44"/>
<stop offset="1" stop-color="#C31162"/>
</linearGradient>
<linearGradient id="paint3_linear_1_431" x1="-1.73692" y1="20.6986" x2="4.69732" y2="14.0994" gradientUnits="userSpaceOnUse">
<stop stop-color="#32A071"/>
<stop offset="0.0685" stop-color="#2DA771"/>
<stop offset="0.4762" stop-color="#15CF74"/>
<stop offset="0.8009" stop-color="#06E775"/>
<stop offset="1" stop-color="#00F076"/>
</linearGradient>
</defs>
</svg>
