<svg width="59" height="40" viewBox="0 0 59 40" fill="none" xmlns="http://www.w3.org/2000/svg">
<rect x="1.17285" y="0.5" width="56.7778" height="39" rx="3.5" stroke="#3E95DF"/>
<path fill-rule="evenodd" clip-rule="evenodd" d="M12.4907 28.8937V20.6592H21.7786L22.7751 21.8786L23.8045 20.6592H57.5175V28.3258C57.5175 28.3258 56.6358 28.8855 55.6162 28.8937H36.9486L35.8251 27.5957V28.8937H32.1434V26.6779C32.1434 26.6779 31.6405 26.9872 30.5532 26.9872H29.3001V28.8937H23.7258L22.7307 27.6481L21.7203 28.8937H12.4907ZM1.66895 14.4529L3.75866 9.86914H7.37261L8.55855 12.4368V9.86914H13.051L13.757 11.7249L14.4414 9.86914H34.608V10.8021C34.608 10.8021 35.6681 9.86914 37.4104 9.86914L43.9537 9.89066L45.1191 12.4247V9.86914H48.8787L49.9134 11.3247V9.86914H53.7074V18.1037H49.9134L48.9218 16.6434V18.1037H43.3982L42.8427 16.8056H41.3578L40.8114 18.1037H37.0655C35.5663 18.1037 34.608 17.1897 34.608 17.1897V18.1037H28.9601L27.8391 16.8056V18.1037H6.83723L6.28213 16.8056H4.80194L4.25077 18.1037H1.66895V14.4529ZM1.67984 17.05L4.49841 10.8842H6.63525L9.45112 17.05H7.57567L7.0583 15.8153H4.03494L3.51488 17.05H1.67984ZM6.4629 14.4767L5.54134 12.3192L4.61708 14.4767H6.4629ZM9.64507 17.049V10.8833L12.2528 10.8924L13.7695 14.8677L15.2499 10.8833H17.8367V17.049H16.1984V12.5058L14.4617 17.049H13.0249L11.2834 12.5058V17.049H9.64507ZM18.9577 17.049V10.8833H24.3038V12.2624H20.6133V13.3171H24.2176V14.6152H20.6133V15.7104H24.3038V17.049H18.9577ZM25.2522 17.05V10.8842H28.898C30.106 10.8842 31.1884 11.587 31.1884 12.8845C31.1884 13.9937 30.2758 14.7081 29.3911 14.7784L31.5468 17.05H29.5447L27.5803 14.8595H26.8905V17.05H25.2522ZM28.7634 12.2633H26.8906V13.5614H28.7877C29.116 13.5614 29.5395 13.322 29.5395 12.9124C29.5395 12.594 29.2127 12.2633 28.7634 12.2633ZM33.5301 17.049H31.8573V10.8833H33.5301V17.049ZM37.4966 17.049H37.1355C35.3884 17.049 34.3277 15.754 34.3277 13.9915C34.3277 12.1854 35.3765 10.8833 37.5828 10.8833H39.3936V12.3436H37.5166C36.621 12.3436 35.9876 13.0012 35.9876 14.0067C35.9876 15.2008 36.7118 15.7023 37.7552 15.7023H38.1864L37.4966 17.049ZM38.2432 17.05L41.0617 10.8842H43.1986L46.0144 17.05H44.139L43.6216 15.8153H40.5983L40.0782 17.05H38.2432ZM43.0263 14.4767L42.1047 12.3192L41.1805 14.4767H43.0263ZM46.2057 17.049V10.8833H48.2886L50.9482 14.7571V10.8833H52.5865V17.049H50.571L47.844 13.0737V17.049H46.2057ZM13.6115 27.8391V21.6733H18.9577V23.0525H15.2671V24.1072H18.8714V25.4052H15.2671V26.5005H18.9577V27.8391H13.6115ZM39.8076 27.8391V21.6733H45.1537V23.0525H41.4631V24.1072H45.0502V25.4052H41.4631V26.5005H45.1537V27.8391H39.8076ZM19.1651 27.8391L21.7681 24.7942L19.1031 21.6733H21.1672L22.7543 23.6027L24.3468 21.6733H26.33L23.7001 24.7562L26.3079 27.8391H24.2441L22.7031 25.9402L21.1995 27.8391H19.1651ZM26.5027 27.84V21.6743H30.1216C31.6065 21.6743 32.474 22.5747 32.474 23.7481C32.474 25.1646 31.3679 25.8929 29.9087 25.8929H28.1841V27.84H26.5027ZM30.0002 23.0687H28.184V24.4884H29.9948C30.4733 24.4884 30.8086 24.1901 30.8086 23.7786C30.8086 23.3405 30.4716 23.0687 30.0002 23.0687ZM33.1854 27.8391V21.6733H36.8312C38.0392 21.6733 39.1216 22.3762 39.1216 23.6736C39.1216 24.7828 38.209 25.4972 37.3243 25.5675L39.48 27.8391H37.4779L35.5135 25.6486H34.8237V27.8391H33.1854ZM36.6965 23.0524H34.8238V24.3505H36.7208C37.0492 24.3505 37.4726 24.1111 37.4726 23.7015C37.4726 23.3831 37.1458 23.0524 36.6965 23.0524ZM45.9124 27.8391V26.5005H49.1912C49.6763 26.5005 49.8864 26.2538 49.8864 25.9833C49.8864 25.7241 49.677 25.462 49.1912 25.462H47.7095C46.4216 25.462 45.7044 24.7238 45.7044 23.6153C45.7044 22.6267 46.3612 21.6733 48.275 21.6733H51.4655L50.7756 23.0606H48.0163C47.4889 23.0606 47.3265 23.321 47.3265 23.5697C47.3265 23.8253 47.5272 24.1072 47.9301 24.1072H49.4822C50.9179 24.1072 51.5409 24.8734 51.5409 25.8768C51.5409 26.9555 50.8467 27.8391 49.4041 27.8391H45.9124ZM51.6855 27.8391V26.5005H54.9643C55.4495 26.5005 55.6595 26.2538 55.6595 25.9833C55.6595 25.7241 55.4501 25.462 54.9643 25.462H53.4826C52.1947 25.462 51.4775 24.7238 51.4775 23.6153C51.4775 22.6267 52.1343 21.6733 54.0481 21.6733H57.2386L56.5487 23.0606H53.7895C53.262 23.0606 53.0996 23.321 53.0996 23.5697C53.0996 23.8253 53.3003 24.1072 53.7032 24.1072H55.2553C56.691 24.1072 57.314 24.8734 57.314 25.8768C57.314 26.9555 56.6198 27.8391 55.1772 27.8391H51.6855Z" fill="#3E95DF"/>
</svg>
