<svg width="193" height="40" viewBox="0 0 193 40" fill="none" xmlns="http://www.w3.org/2000/svg">
<path fill-rule="evenodd" clip-rule="evenodd" d="M59.3842 12.0993C61.0135 12.0993 62.4194 12.3893 63.6018 12.9607C64.7892 13.5371 65.7708 14.3136 66.5566 15.2901C67.3323 16.2716 67.9097 17.4194 68.2825 18.7334C68.6528 20.0525 68.8386 21.4691 68.8386 22.987C68.8386 25.3163 68.4106 27.5194 67.5445 29.5949C66.6796 31.6729 65.5047 33.4759 64.011 35.0137C62.5185 36.5504 60.7562 37.7607 58.724 38.6547C56.6943 39.5511 54.4888 39.9975 52.1202 39.9975C51.8139 39.9975 51.2754 39.99 50.5148 39.9725C49.7541 39.9575 48.8792 39.88 47.9001 39.7474C46.9148 39.6111 45.8729 39.4086 44.7721 39.1373C43.6725 38.871 42.6281 38.4971 41.644 38.0233L50.4382 1.21655L58.3148 0L55.1666 13.0608C55.8407 12.7582 56.5198 12.5231 57.1976 12.3531C57.8792 12.188 58.606 12.0993 59.3842 12.0993ZM52.7779 33.7747C53.964 33.7747 55.0812 33.4847 56.1318 32.9133C57.185 32.3431 58.0938 31.5717 58.8544 30.6102C59.6151 29.6462 60.2189 28.5584 60.6582 27.3431C61.0975 26.1291 61.3197 24.8625 61.3197 23.5434C61.3197 21.9243 61.0486 20.6602 60.5063 19.7475C59.9641 18.8372 58.9624 18.3809 57.5063 18.3809C57.0293 18.3809 56.4143 18.4709 55.6523 18.6322C54.8879 18.806 54.2038 19.1623 53.59 19.6987L50.2373 33.5709C50.4394 33.6047 50.6189 33.6397 50.7707 33.671C50.9201 33.7047 51.0845 33.7297 51.249 33.7472C51.4235 33.7672 51.6218 33.776 51.8615 33.776C52.1013 33.776 52.4051 33.7747 52.7779 33.7747Z" fill="#3E95DF"/>
<path fill-rule="evenodd" clip-rule="evenodd" d="M77.0104 39.2909H69.4866L75.8405 12.6605H83.4159L77.0104 39.2909ZM80.6707 9.41852C79.62 9.41852 78.6686 9.10594 77.8238 8.48328C76.9715 7.86313 76.5498 6.90789 76.5498 5.62132C76.5498 4.91364 76.6941 4.24847 76.9803 3.62332C77.2703 2.99816 77.6506 2.45803 78.1263 2.00166C78.6021 1.5478 79.1518 1.18521 79.7769 0.91139C80.4058 0.642573 81.0749 0.508789 81.7878 0.508789C82.8372 0.508789 83.7849 0.820117 84.6322 1.44402C85.4769 2.07043 85.9025 3.02567 85.9025 4.30474C85.9025 5.01492 85.7594 5.68258 85.4694 6.30774C85.182 6.9329 84.8029 7.47053 84.3272 7.9294C83.8564 8.38326 83.3004 8.7446 82.6765 9.01592C82.0477 9.28849 81.3824 9.41852 80.6707 9.41852Z" fill="#3E95DF"/>
<path fill-rule="evenodd" clip-rule="evenodd" d="M90.007 6.02893L97.8873 4.81238L95.9518 12.6606H104.391L102.867 18.8359H94.4781L92.2438 28.152C92.038 28.9284 91.9212 29.6536 91.8886 30.3263C91.8522 31.0039 91.9376 31.5853 92.1409 32.0742C92.343 32.5643 92.707 32.9419 93.2342 33.2107C93.7589 33.482 94.5108 33.6183 95.4949 33.6183C96.3058 33.6183 97.0965 33.5421 97.861 33.3883C98.6204 33.2395 99.3911 33.0294 100.171 32.7556L100.732 38.5308C99.715 38.9022 98.6141 39.2222 97.4279 39.4911C96.2405 39.7624 94.8334 39.8937 93.2078 39.8937C90.8706 39.8937 89.0581 39.5498 87.7677 38.8609C86.4786 38.167 85.5673 37.2205 85.0212 36.0214C84.4827 34.8274 84.243 33.4495 84.3108 31.8979C84.3811 30.3425 84.6158 28.7071 85.0212 26.9854L90.007 6.02893Z" fill="#3E95DF"/>
<path fill-rule="evenodd" clip-rule="evenodd" d="M104.059 28.6609C104.059 26.3666 104.432 24.2048 105.177 22.1781C105.921 20.1513 106.993 18.3796 108.383 16.858C109.769 15.3438 111.456 14.1448 113.442 13.2658C115.419 12.3894 117.632 11.948 120.072 11.948C121.598 11.948 122.963 12.0905 124.163 12.3794C125.368 12.6694 126.459 13.0458 127.444 13.5171L124.849 19.3949C124.172 19.121 123.467 18.8797 122.741 18.6597C122.013 18.4371 121.124 18.3296 120.073 18.3296C117.563 18.3296 115.577 19.1911 114.1 20.909C112.629 22.6294 111.887 24.9437 111.887 27.8482C111.887 29.5699 112.26 30.9602 113.008 32.0255C113.752 33.0895 115.126 33.6184 117.124 33.6184C118.109 33.6184 119.059 33.5159 119.97 33.3158C120.888 33.1133 121.698 32.8595 122.412 32.5569L122.973 38.5809C122.021 38.9497 120.972 39.2823 119.821 39.5724C118.667 39.8537 117.294 39.9975 115.701 39.9975C113.6 39.9975 111.82 39.6924 110.365 39.0885C108.909 38.4759 107.706 37.6619 106.758 36.6317C105.805 35.5989 105.121 34.3924 104.698 33.0083C104.274 31.6292 104.059 30.1763 104.059 28.6609H104.059Z" fill="#3E95DF"/>
<path fill-rule="evenodd" clip-rule="evenodd" d="M137.478 39.9999C135.682 39.9999 134.123 39.7286 132.8 39.1897C131.481 38.6496 130.389 37.8932 129.524 36.9117C128.659 35.9352 128.01 34.7774 127.567 33.4445C127.123 32.113 126.911 30.6363 126.911 29.0197C126.911 26.9904 127.238 24.9624 127.899 22.9394C128.556 20.9139 129.532 19.0934 130.824 17.4743C132.106 15.8526 133.686 14.5273 135.549 13.4933C137.408 12.468 139.548 11.9517 141.951 11.9517C143.713 11.9517 145.266 12.2242 146.606 12.7631C147.941 13.3032 149.04 14.0647 149.91 15.0412C150.77 16.0227 151.424 17.1755 151.863 18.5108C152.306 19.8399 152.524 21.3203 152.524 22.9382C152.524 24.9612 152.201 26.9892 151.561 29.0184C150.919 31.0364 149.969 32.8619 148.714 34.4835C147.461 36.1027 145.895 37.4268 144.013 38.457C142.132 39.4848 139.951 39.9999 137.478 39.9999ZM141.238 18.332C140.122 18.332 139.137 18.6546 138.292 19.2923C137.445 19.9362 136.733 20.7464 136.159 21.7229C135.579 22.7031 135.149 23.7759 134.859 24.9374C134.571 26.104 134.429 27.2055 134.429 28.2532C134.429 29.9424 134.703 31.2577 135.24 32.2055C135.786 33.147 136.765 33.6208 138.19 33.6208C139.31 33.6208 140.29 33.3008 141.14 32.6568C141.982 32.0179 142.694 31.2077 143.273 30.2287C143.849 29.2535 144.283 28.1782 144.573 27.0142C144.858 25.8514 145.002 24.7436 145.002 23.6984C145.002 22.0129 144.73 20.6951 144.188 19.7486C143.645 18.8046 142.661 18.332 141.238 18.332Z" fill="#3E95DF"/>
<path fill-rule="evenodd" clip-rule="evenodd" d="M160.72 39.2909H153.191L159.545 12.6605H167.124L160.72 39.2909ZM164.375 9.41852C163.326 9.41852 162.374 9.10594 161.531 8.48328C160.682 7.86313 160.257 6.90789 160.257 5.62132C160.257 4.91364 160.402 4.24847 160.69 3.62332C160.977 2.99816 161.359 2.45803 161.835 2.00166C162.308 1.5478 162.863 1.18521 163.486 0.91139C164.112 0.642573 164.781 0.508789 165.492 0.508789C166.544 0.508789 167.494 0.820117 168.34 1.44402C169.188 2.07043 169.614 3.02567 169.614 4.30474C169.614 5.01492 169.463 5.68258 169.178 6.30774C168.893 6.9329 168.512 7.47053 168.038 7.9294C167.561 8.38326 167.014 8.7446 166.389 9.01592C165.758 9.28849 165.091 9.41852 164.375 9.41852Z" fill="#3E95DF"/>
<path fill-rule="evenodd" clip-rule="evenodd" d="M172.542 13.8746C173.113 13.7083 173.751 13.5083 174.445 13.2907C175.141 13.0732 175.918 12.8706 176.787 12.6881C177.647 12.5005 178.616 12.3492 179.683 12.2292C180.75 12.1092 181.964 12.0504 183.315 12.0504C187.282 12.0504 190.018 13.2007 191.528 15.4963C193.036 17.7919 193.298 20.9326 192.318 24.9124L188.859 39.291H181.286L184.64 25.215C184.843 24.336 185.005 23.4858 185.123 22.6556C185.243 21.8341 185.236 21.1089 185.097 20.4813C184.965 19.8611 184.648 19.3547 184.16 18.9609C183.663 18.572 182.912 18.3795 181.894 18.3795C180.914 18.3795 179.916 18.4845 178.897 18.6871L173.965 39.291H166.39L172.542 13.8746Z" fill="#3E95DF"/>
<path fill-rule="evenodd" clip-rule="evenodd" d="M20.6138 39.9969C31.7015 39.9969 40.6899 31.0438 40.6899 19.9995C40.6899 8.95514 31.7015 0.00195312 20.6138 0.00195312C9.526 0.00195312 0.537598 8.95514 0.537598 19.9995C0.537598 31.0438 9.526 39.9969 20.6138 39.9969ZM29.4656 17.1493C29.8647 14.4874 27.83 13.057 25.0484 12.1018L25.9509 8.4946L23.748 7.94696L22.8693 11.4591C22.2907 11.3153 21.6957 11.179 21.1032 11.0452L21.9882 7.5106L19.7865 6.96297L18.8827 10.5689C18.4032 10.4601 17.9325 10.3526 17.4756 10.2388L17.4781 10.2275L14.4392 9.47235L13.853 11.8167C13.853 11.8167 15.4873 12.1893 15.4534 12.213C16.3459 12.4356 16.5078 13.0232 16.4802 13.4896L15.4522 17.5969C15.5137 17.6119 15.5928 17.6331 15.6819 17.6706C15.6078 17.6506 15.53 17.6319 15.4484 17.6119L14.0074 23.3683C13.8982 23.6371 13.6208 24.0422 12.9969 23.8885C13.0195 23.9197 11.3953 23.4909 11.3953 23.4909L10.3007 26.004L13.1677 26.7154C13.7011 26.8479 14.2246 26.988 14.738 27.1193L13.8267 30.7664L16.0271 31.3141L16.9308 27.7057C17.5321 27.8669 18.1158 28.0182 18.6869 28.1595L17.7869 31.7504L19.9898 32.2981L20.9024 28.6584C24.6605 29.3661 27.4861 29.081 28.6748 25.6952C29.6338 22.9682 28.6271 21.3966 26.6501 20.3713C28.0911 20.0412 29.1756 19.0985 29.4656 17.1493ZM24.431 24.1822C23.7494 26.9079 19.1427 25.4338 17.649 25.0637L18.8591 20.2325C20.3528 20.6038 25.1427 21.339 24.431 24.1822ZM25.1124 17.1105C24.4911 19.5886 20.6564 18.3296 19.4124 18.022L20.5095 13.6384C21.7534 13.9485 25.7589 14.5249 25.1124 17.1105Z" fill="#3E95DF"/>
</svg>
