<svg width="98" height="40" viewBox="0 0 98 40" fill="none" xmlns="http://www.w3.org/2000/svg">
<path fill-rule="evenodd" clip-rule="evenodd" d="M44.8031 31.2886V19.5499H50.8617C53.3443 19.5499 55.4398 18.7181 57.148 17.0774L57.558 16.6615C60.6784 13.2647 60.4734 7.973 57.148 4.83036C55.4853 3.16661 53.2077 2.26541 50.8617 2.31163H41.1361V31.2886H44.8031ZM44.8036 15.9911V5.86995H50.9543C52.2755 5.86995 53.5284 6.37832 54.4624 7.30262C56.4443 9.24367 56.4898 12.4787 54.5763 14.4891C53.6423 15.4827 52.3211 16.0373 50.9543 15.9911H44.8036ZM74.6632 13.0103C73.0916 11.5545 70.9506 10.8151 68.2402 10.8151C64.7554 10.8151 62.1361 12.1091 60.4051 14.674L63.6394 16.7306C64.8238 14.9744 66.4409 14.0964 68.4908 14.0964C69.789 14.0964 71.0417 14.5816 72.0211 15.4597C72.9778 16.2916 73.5244 17.4932 73.5244 18.7641V19.6191C72.1122 18.8334 70.3357 18.4175 68.1491 18.4175C65.5982 18.4175 63.5483 19.0183 62.0223 20.243C60.4962 21.4677 59.7218 23.0852 59.7218 25.1418C59.6763 27.0135 60.4735 28.7928 61.8856 29.9944C63.3205 31.2884 65.1426 31.9355 67.2836 31.9355C69.8118 31.9355 71.8162 30.8032 73.3422 28.5386H73.5016V31.2884H77.0092V19.0645C77.0092 16.4995 76.2348 14.4661 74.6632 13.0103ZM64.7105 27.6375C63.9588 27.0829 63.5032 26.1817 63.5032 25.2112C63.5032 24.1252 64.0043 23.224 64.9839 22.5076C65.9862 21.7913 67.2391 21.4216 68.7198 21.4216C70.77 21.3985 72.3646 21.8606 73.5036 22.7849C73.5036 24.3562 72.8886 25.7196 71.6812 26.875C70.5878 27.9841 69.1071 28.608 67.558 28.608C66.5329 28.6312 65.5306 28.2845 64.7105 27.6375ZM84.8899 40L97.1437 11.462H93.1578L87.4865 25.6964H87.4181L81.6101 11.462H77.6242L85.6643 30.0175L81.109 40H84.8899Z" fill="#3E95DF"/>
<path d="M32.1432 17.0081C32.1432 15.8758 32.0521 14.7436 31.8699 13.6344H16.4047V20.0352H25.2647C24.9003 22.0918 23.7159 23.9404 21.9849 25.0958V29.2552H27.2691C30.3667 26.3667 32.1432 22.0918 32.1432 17.0081Z" fill="#3E95DF"/>
<path d="M16.4053 33.2762C20.8239 33.2762 24.5593 31.7973 27.2697 29.2554L21.9855 25.0961C20.5051 26.1128 18.6146 26.6905 16.4053 26.6905C12.1233 26.6905 8.50186 23.7558 7.20359 19.8275H1.76001V24.1255C4.53874 29.7407 10.2101 33.2762 16.4053 33.2762Z" fill="#3E95DF"/>
<path d="M7.20422 19.8273C6.52081 17.7707 6.52081 15.5293 7.20422 13.4496V9.17468H1.75976C-0.586588 13.8655 -0.586588 19.4114 1.75976 24.1022L7.20422 19.8273Z" fill="#3E95DF"/>
<path d="M16.4053 6.58669C18.7513 6.54047 21.0062 7.44167 22.6916 9.08231L27.3836 4.32214C24.3999 1.503 20.4823 -0.0452096 16.4053 0.00100567C10.2101 0.00100567 4.53874 3.55958 1.76001 9.17474L7.20359 13.4728C8.50185 9.52136 12.1233 6.58669 16.4053 6.58669Z" fill="#3E95DF"/>
</svg>
