<svg width="53" height="40" viewBox="0 0 53 40" fill="none" xmlns="http://www.w3.org/2000/svg">
<path fill-rule="evenodd" clip-rule="evenodd" d="M15.5646 35.6617V37.7776V39.8936H14.6383V39.3798C14.3445 39.7608 13.8987 40 13.2927 40C12.0981 40 11.1616 39.0707 11.1616 37.7776C11.1616 36.4856 12.0981 35.5553 13.2927 35.5553C13.8987 35.5553 14.3445 35.7944 14.6383 36.1755V35.6617H15.5646ZM13.408 36.4227C12.6061 36.4227 12.1154 37.0338 12.1154 37.7776C12.1154 38.5214 12.6061 39.1325 13.408 39.1325C14.1741 39.1325 14.6913 38.5478 14.6913 37.7776C14.6913 37.0074 14.1741 36.4227 13.408 36.4227ZM46.8668 37.7776C46.8668 37.0338 47.3575 36.4227 48.1594 36.4227C48.9265 36.4227 49.4427 37.0074 49.4427 37.7776C49.4427 38.5478 48.9265 39.1325 48.1594 39.1325C47.3575 39.1325 46.8668 38.5214 46.8668 37.7776ZM50.317 33.9622V37.7776V39.8936H49.3896V39.3798C49.0958 39.7608 48.65 40 48.0441 40C46.8495 40 45.913 39.0707 45.913 37.7776C45.913 36.4856 46.8495 35.5553 48.0441 35.5553C48.65 35.5553 49.0958 35.7944 49.3896 36.1755V33.9622H50.317ZM27.0627 36.3791C27.6595 36.3791 28.043 36.7511 28.141 37.4057H25.9303C26.0293 36.7946 26.4026 36.3791 27.0627 36.3791ZM24.9591 37.7776C24.9591 36.4582 25.8324 35.5553 27.081 35.5553C28.2746 35.5553 29.0948 36.4582 29.104 37.7776C29.104 37.9013 29.0948 38.0168 29.0856 38.1313H25.9221C26.0558 38.8934 26.5995 39.168 27.1963 39.168C27.6237 39.168 28.0787 39.0079 28.4358 38.7252L28.8898 39.4072C28.3725 39.8409 27.7849 40 27.1433 40C25.8681 40 24.9591 39.1234 24.9591 37.7776ZM38.266 37.7776C38.266 37.0338 38.7567 36.4227 39.5585 36.4227C40.3246 36.4227 40.8418 37.0074 40.8418 37.7776C40.8418 38.5478 40.3246 39.1325 39.5585 39.1325C38.7567 39.1325 38.266 38.5214 38.266 37.7776ZM41.7151 35.6617V37.7776V39.8936H40.7888V39.3798C40.494 39.7608 40.0492 40 39.4432 40C38.2486 40 37.3121 39.0707 37.3121 37.7776C37.3121 36.4856 38.2486 35.5553 39.4432 35.5553C40.0492 35.5553 40.494 35.7944 40.7888 36.1755V35.6617H41.7151ZM33.0346 37.7776C33.0346 39.0616 33.9343 40 35.3075 40C35.9491 40 36.3766 39.8581 36.8397 39.4953L36.3949 38.7515C36.0471 38.9998 35.6818 39.1325 35.2799 39.1325C34.5403 39.1234 33.9966 38.5924 33.9966 37.7776C33.9966 36.9629 34.5403 36.4318 35.2799 36.4227C35.6818 36.4227 36.0471 36.5555 36.3949 36.8038L36.8397 36.0599C36.3766 35.6971 35.9491 35.5553 35.3075 35.5553C33.9343 35.5553 33.0346 36.4937 33.0346 37.7776ZM43.8542 36.1755C44.0949 35.8036 44.4428 35.5553 44.9774 35.5553C45.1651 35.5553 45.4323 35.5907 45.6374 35.6708L45.3517 36.5383C45.1559 36.4582 44.96 36.4319 44.7723 36.4319C44.1663 36.4319 43.8634 36.821 43.8634 37.5213V39.8936H42.936V35.6617H43.8542V36.1755ZM20.146 35.9981C19.7002 35.7063 19.0861 35.5553 18.4087 35.5553C17.3294 35.5553 16.6346 36.069 16.6346 36.9102C16.6346 37.6003 17.1519 38.0259 18.1047 38.1587L18.5423 38.2205C19.0504 38.2914 19.2901 38.4242 19.2901 38.6633C19.2901 38.9907 18.9514 39.1771 18.3189 39.1771C17.6772 39.1771 17.2141 38.9734 16.9019 38.7343L16.4653 39.4507C16.9733 39.8227 17.615 40 18.3097 40C19.54 40 20.2531 39.4244 20.2531 38.6187C20.2531 37.8749 19.692 37.4858 18.7647 37.353L18.3281 37.2902C17.9272 37.2375 17.6058 37.1584 17.6058 36.8747C17.6058 36.5646 17.9088 36.3791 18.4168 36.3791C18.9606 36.3791 19.487 36.5828 19.7451 36.7419L20.146 35.9981ZM30.976 36.1755C31.2157 35.8036 31.5636 35.5553 32.0981 35.5553C32.2858 35.5553 32.5531 35.5907 32.7582 35.6708L32.4725 36.5383C32.2767 36.4582 32.0808 36.4319 31.8931 36.4319C31.2871 36.4319 30.9841 36.821 30.9841 37.5213V39.8936H30.0578V35.6617H30.976V36.1755ZM24.1928 35.6617H22.6779V34.3777H21.7414V35.6617H20.8773V36.5028H21.7414V38.4333C21.7414 39.4153 22.125 40 23.2206 40C23.6226 40 24.0857 39.8764 24.3795 39.6727L24.1122 38.8843C23.8358 39.0434 23.5328 39.1234 23.292 39.1234C22.8289 39.1234 22.6779 38.8397 22.6779 38.4151V36.5028H24.1928V35.6617ZM10.3424 37.2375V39.8936H9.40588V37.5385C9.40588 36.821 9.1029 36.4227 8.47041 36.4227C7.85526 36.4227 7.42781 36.8129 7.42781 37.5476V39.8936H6.49132V37.5385C6.49132 36.821 6.18017 36.4227 5.56502 36.4227C4.93151 36.4227 4.52141 36.8129 4.52141 37.5476V39.8936H3.58594L3.58594 35.6617H4.51325L4.51325 36.1836C4.86112 35.688 5.30591 35.5553 5.76089 35.5553C6.41175 35.5553 6.87489 35.839 7.1687 36.3082C7.56145 35.7144 8.12253 35.5462 8.66627 35.5553C9.7007 35.5644 10.3424 36.2373 10.3424 37.2375Z" fill="#3E95DF"/>
<path d="M33.8781 28.4707H19.8389V3.40747H33.8781V28.4707Z" fill="#3E95DF"/>
<path d="M20.7296 15.9396C20.7296 10.8554 23.126 6.32659 26.8577 3.40802C24.1288 1.27382 20.6847 -1.42481e-05 16.9418 -1.42481e-05C8.08081 -1.42481e-05 0.897949 7.13629 0.897949 15.9396C0.897949 24.743 8.08081 31.8793 16.9418 31.8793C20.6847 31.8793 24.1288 30.6054 26.8577 28.4712C23.126 25.5527 20.7296 21.0238 20.7296 15.9396" fill="#3E95DF"/>
<path d="M52.8184 15.9396C52.8184 24.743 45.6355 31.8793 36.7745 31.8793C33.0316 31.8793 29.5876 30.6054 26.8577 28.4712C30.5904 25.5527 32.9867 21.0238 32.9867 15.9396C32.9867 10.8554 30.5904 6.32659 26.8577 3.40802C29.5876 1.27382 33.0316 -1.42481e-05 36.7745 -1.42481e-05C45.6355 -1.42481e-05 52.8184 7.13629 52.8184 15.9396" fill="#49ABFF"/>
</svg>
