<svg width="149" height="40" viewBox="0 0 149 40" fill="none" xmlns="http://www.w3.org/2000/svg">
<path fill-rule="evenodd" clip-rule="evenodd" d="M17.829 0H6.2729C5.48202 0 4.80946 0.576914 4.68593 1.36102L0.0120888 31.1134C-0.080678 31.7008 0.37227 32.2297 0.965315 32.2297H6.4821C7.27299 32.2297 7.94555 31.6533 8.06908 30.8678L9.32947 22.8428C9.45111 22.0572 10.1251 21.4803 10.9146 21.4803H14.5727C22.1848 21.4803 26.578 17.7817 27.7257 10.4529C28.2425 7.24612 27.7475 4.72699 26.2518 2.96251C24.6095 1.02504 21.6963 0 17.829 0ZM19.1615 10.8668C18.5297 15.0302 15.3614 15.0302 12.2982 15.0302H10.5541L11.7776 7.25464C11.8504 6.78465 12.2556 6.4387 12.7289 6.4387H13.5283C15.6151 6.4387 17.5835 6.4387 18.6007 7.63292C19.2074 8.34527 19.393 9.40405 19.1615 10.8668V10.8668Z" fill="#3E95DF"/>
<path fill-rule="evenodd" clip-rule="evenodd" d="M52.6672 10.5077H47.1334C46.662 10.5077 46.2545 10.8537 46.182 11.3237L45.9369 12.8776L45.5502 12.3145C44.3523 10.5686 41.6805 9.98499 39.0144 9.98499C32.8989 9.98499 27.676 14.6355 26.6589 21.1588C26.1302 24.4126 26.8818 27.5243 28.7206 29.6942C30.4069 31.6891 32.8198 32.5208 35.6904 32.5208C40.6179 32.5208 43.3498 29.3397 43.3498 29.3397L43.1032 30.8836C43.0105 31.4739 43.4634 32.0032 44.0531 32.0032H49.0375C49.8302 32.0032 50.4995 31.4263 50.6244 30.6408L53.6152 11.624C53.7099 11.0385 53.2583 10.5077 52.6672 10.5077ZM44.9533 21.3218C44.4194 24.4958 41.9105 26.6267 38.71 26.6267C37.1032 26.6267 35.8191 26.1091 34.9941 25.1288C34.1763 24.1551 33.8658 22.7688 34.1256 21.2249C34.6245 18.078 37.1756 15.8772 40.3273 15.8772C41.8986 15.8772 43.1761 16.4019 44.0176 17.3903C44.8606 18.3897 45.1952 19.7845 44.9533 21.3218V21.3218Z" fill="#3E95DF"/>
<path fill-rule="evenodd" clip-rule="evenodd" d="M81.7136 10.9836H76.1523C75.6217 10.9836 75.1233 11.2483 74.8228 11.6912L67.153 23.0342L63.9019 12.1337C63.6974 11.4517 63.0707 10.9836 62.3608 10.9836H56.8965C56.232 10.9836 55.771 11.6352 55.9821 12.2629L62.1076 30.3107L56.3489 38.4731C55.896 39.116 56.3522 39.9999 57.1346 39.9999H62.6888C63.216 39.9999 63.7092 39.7419 64.0084 39.308L82.504 12.502C82.947 11.8609 82.4921 10.9836 81.7136 10.9836" fill="#3E95DF"/>
<path fill-rule="evenodd" clip-rule="evenodd" d="M100.252 0H88.6948C87.9058 0 87.2333 0.576914 87.1098 1.36102L82.4359 31.1134C82.3432 31.7008 82.7961 32.2297 83.3858 32.2297H89.3168C89.8672 32.2297 90.3386 31.8263 90.4247 31.2764L91.7514 22.8428C91.873 22.0572 92.5475 21.4803 93.3365 21.4803H96.9932C104.607 21.4803 108.998 17.7817 110.148 10.4529C110.666 7.24612 110.168 4.72699 108.672 2.96251C107.031 1.02504 104.12 0 100.252 0ZM101.586 10.8668C100.955 15.0302 97.7871 15.0302 94.722 15.0302H92.9803L94.2052 7.25464C94.2776 6.78465 94.6799 6.4387 95.1546 6.4387H95.954C98.0389 6.4387 100.009 6.4387 101.026 7.63292C101.633 8.34527 101.817 9.40405 101.586 10.8668V10.8668Z" fill="#3E95DF"/>
<path fill-rule="evenodd" clip-rule="evenodd" d="M135.083 10.5077H129.553C129.078 10.5077 128.674 10.8537 128.603 11.3237L128.358 12.8776L127.969 12.3145C126.771 10.5686 124.102 9.98499 121.435 9.98499C115.32 9.98499 110.099 14.6355 109.082 21.1588C108.555 24.4126 109.303 27.5243 111.141 29.6942C112.831 31.6891 115.24 32.5208 118.111 32.5208C123.039 32.5208 125.771 29.3397 125.771 29.3397L125.524 30.8836C125.432 31.4739 125.884 32.0032 126.478 32.0032H131.46C132.249 32.0032 132.922 31.4263 133.046 30.6408L136.038 11.624C136.129 11.0385 135.676 10.5077 135.083 10.5077ZM127.369 21.3218C126.839 24.4958 124.326 26.6267 121.126 26.6267C119.522 26.6267 118.235 26.1091 117.41 25.1288C116.592 24.1551 116.285 22.7688 116.541 21.2249C117.043 18.078 119.591 15.8772 122.743 15.8772C124.314 15.8772 125.592 16.4019 126.433 17.3903C127.28 18.3897 127.614 19.7845 127.369 21.3218V21.3218Z" fill="#3E95DF"/>
<path fill-rule="evenodd" clip-rule="evenodd" d="M141.146 0.817849L136.403 31.1149C136.31 31.7022 136.763 32.2312 137.353 32.2312H142.121C142.914 32.2312 143.586 31.6547 143.708 30.8692L148.385 1.11819C148.478 0.530818 148.025 0 147.435 0H142.096C141.625 0.00142565 141.219 0.347859 141.146 0.817849" fill="#3E95DF"/>
</svg>
